<?xml version="1.0" standalone="no"?>
<!DOCTYPE svg PUBLIC "-//W3C//DTD SVG 1.1//EN" "http://www.w3.org/Graphics/SVG/1.1/DTD/svg11.dtd" >
<svg xmlns="http://www.w3.org/2000/svg" xmlns:xlink="http://www.w3.org/1999/xlink" version="1.1">
<metadata>
Created by FontForge 20160407 at Thu Dec 15 04:42:27 2016
 By Jimmy Wärting
(c) 1999 by s.a.x. Software GmbH, Karlsruhe, Germany
</metadata>
<defs>
<font id="saxMono" horiz-adv-x="1123" >
  <font-face 
    font-family="saxMono"
    font-weight="400"
    font-stretch="normal"
    units-per-em="2048"
    panose-1="2 15 4 9 2 2 2 4 5 4"
    ascent="1638"
    descent="-410"
    x-height="1003"
    cap-height="1366"
    bbox="-82 -555 1313 2108"
    underline-thickness="100"
    underline-position="-273"
    unicode-range="U+0020-F004"
  />
<missing-glyph horiz-adv-x="1024" 
d="M128 0v1454h768v-1454h-768zM256 128h512v1198h-512v-1198z" />
    <glyph glyph-name=".notdef" horiz-adv-x="1024" 
d="M128 0v1454h768v-1454h-768zM256 128h512v1198h-512v-1198z" />
    <glyph glyph-name=".null" horiz-adv-x="0" 
 />
    <glyph glyph-name="nonmarkingreturn" 
 />
    <glyph glyph-name="space" unicode=" " 
 />
    <glyph glyph-name="exclam" unicode="!" 
d="M451 1295q-4 98 112 98q40 0 71 -22q35 -24 35 -62q0 -7 -2 -34l-50 -625q-5 -63 -57 -63q-47 0 -53 63zM562 218q55 0 88 -35.5t33 -91.5q0 -118 -121 -118q-125 0 -125 122q0 55 34.5 89t90.5 34z" />
    <glyph glyph-name="quotedbl" unicode="&#x22;" 
d="M219 1274q0 119 123 119t123 -115q0 -14 -2 -30l-62 -488q-10 -77 -60 -77q-52 0 -62 82l-58 482q-2 17 -2 27zM655 1274q0 119 123 119t123 -115q0 -14 -2 -30l-62 -488q-10 -77 -60 -77q-52 0 -62 82l-58 482q-2 17 -2 27z" />
    <glyph glyph-name="numbersign" unicode="#" 
d="M290 457h-166q-69 0 -69 64q0 66 66 66h190l37 205h-167q-58 0 -58 65t62 65h182l71 411q10 60 68 60q60 0 60 -60l-220 -1290q-10 -70 -71 -70q-64 0 -60 70zM753 457l-74 -414q-10 -70 -71 -70q-63 0 -56 70l217 1290q10 60 63 60q62 0 62 -60l-65 -411h156
q80 0 80 -61q0 -69 -82 -69h-174l-37 -205h146q80 0 80 -65t-78 -65h-167z" />
    <glyph glyph-name="dollar" unicode="$" 
d="M507 -27q-114 12 -243 65q-168 69 -168 152q0 22 17.5 39t39.5 17q11 0 137 -71t217 -71v573q-186 64 -257 114q-126 89 -126 235q0 320 383 367v133q0 71 68 71t68 -71v-133q114 -9 222 -64q134 -70 134 -167q0 -56 -52 -56q-21 0 -122 70q-107 74 -182 87v-490
q205 -66 274 -122q109 -89 109 -269q0 -174 -107 -281q-100 -101 -276 -128v-161q0 -72 -65 -72q-71 0 -71 77v156zM643 104q112 14 179 88t67 187q0 118 -69 177q-41 34 -177 86v-538zM507 811v452q-246 -17 -246 -227q0 -96 80 -152q37 -25 166 -73z" />
    <glyph glyph-name="percent" unicode="%" 
d="M499 1158v-278q0 -228 -238 -228q-112 0 -176 59t-64 169v278q0 110 64 172.5t176 62.5t175 -63t63 -172zM121 1158v-278q0 -56 41 -93.5t100 -37.5q60 0 98.5 36t38.5 95v278q0 59 -41.5 98t-101.5 39t-97.5 -37.5t-37.5 -99.5zM991 1393q49 0 49 -50q0 -29 -34 -82
l-795 -1239q-28 -49 -74 -49q-52 0 -53 52q0 26 25 64l791 1233q36 71 91 71zM1099 489v-278q0 -228 -238 -228q-112 0 -176 59t-64 169v278q0 110 64 172.5t176 62.5t175 -63t63 -172zM721 489v-278q0 -56 41 -93.5t100 -37.5q60 0 98.5 36t38.5 95v278q0 59 -41.5 98
t-101.5 39t-97.5 -37.5t-37.5 -99.5z" />
    <glyph glyph-name="ampersand" unicode="&#x26;" 
d="M740 177q-59 -109 -118 -151q-67 -46 -185 -46q-162 0 -258.5 100.5t-96.5 263.5q0 143 86 287q56 93 188 238q-40 74 -81 148q-43 91 -43 161q0 215 244 215q234 0 234 -211q0 -89 -66 -183q-18 -26 -128 -152l192 -344q17 63 35 126q30 94 58 118q33 27 125 27
q60 0 83 -8q42 -15 42 -63q0 -56 -69 -59q-87 -4 -103.5 -20.5t-87.5 -281.5q28 -53 56 -105q41 -73 71 -97q14 -11 91 -28q56 -13 56 -53q0 -46 -51 -56q-14 -3 -87 -3q-60 0 -112 63q-9 10 -75 114zM669 301l-249 448q-102 -116 -141 -180q-68 -110 -68 -216
q0 -104 64.5 -174.5t167.5 -70.5q86 0 142 59q38 38 84 134zM454 963q39 47 79 95q47 65 47 113q0 94 -108 94q-44 0 -75 -22q-35 -25 -35 -67q0 -44 35 -112q28 -50 57 -101z" />
    <glyph glyph-name="quotesingle" unicode="'" 
d="M437 1274q0 119 123 119t123 -115q0 -14 -2 -30l-62 -488q-10 -77 -60 -77q-52 0 -62 82l-58 482q-2 17 -2 27z" />
    <glyph glyph-name="parenleft" unicode="(" 
d="M328 516q0 423 294 755q108 122 167 122q22 0 40 -16t18 -37q0 -31 -75 -103q-307 -295 -307 -729q0 -482 318 -785q64 -61 64 -97q0 -23 -17.5 -40.5t-40.5 -17.5q-74 0 -209 172q-252 320 -252 776z" />
    <glyph glyph-name="parenright" unicode=")" 
d="M792 445q0 -424 -294 -756q-108 -122 -167 -122q-22 0 -40 16t-18 38q0 30 75 102q307 294 307 730q0 481 -318 785q-64 61 -64 96q0 23 17.5 41t40.5 18q72 0 208 -173q253 -322 253 -775z" />
    <glyph glyph-name="asterisk" unicode="*" 
d="M560 865l-135 -230q-29 -49 -70 -49q-56 0 -56 55q0 30 16 57l131 224h-268q-76 0 -76 65q0 63 76 63h268q-147 244 -147 281q0 62 65 62q34 0 54 -34l142 -242l137 233q25 43 64 43q59 0 59 -61q0 -30 -150 -282h264q83 0 83 -61q0 -67 -83 -67h-264q42 -68 85 -137
q65 -110 65 -146q0 -53 -57 -53q-40 0 -66 45z" />
    <glyph glyph-name="plus" unicode="+" 
d="M495 587v308q0 78 64 78q65 0 65 -74v-312h308q78 0 78 -63q0 -30 -23.5 -48.5t-53.5 -18.5h-309v-307q0 -78 -62 -78q-67 0 -67 76v309h-308q-78 0 -78 65t74 65h312z" />
    <glyph glyph-name="comma" unicode="," 
d="M396 116q0 46 34.5 74t81.5 28q62 0 96 -41t34 -104q0 -96 -61 -179q-64 -86 -142 -86q-43 0 -43 41q0 18 51.5 61.5t51.5 76.5q0 20 -51.5 55t-51.5 74z" />
    <glyph glyph-name="hyphen" unicode="-" 
d="M402 587h312q78 0 78 -64q0 -66 -77 -66h-309q-78 0 -78 66q0 64 74 64z" />
    <glyph glyph-name="hyphen" unicode="&#x2010;" 
d="M402 587h312q78 0 78 -64q0 -66 -77 -66h-309q-78 0 -78 66q0 64 74 64z" />
    <glyph glyph-name="period" unicode="." 
d="M562 219q121 0 121 -123t-121 -123q-125 0 -125 123t125 123z" />
    <glyph glyph-name="slash" unicode="/" 
d="M939 1393q58 0 58 -50q0 -27 -24 -69l-720 -1248q-27 -46 -68 -46q-62 0 -62 52q0 20 22 58l722 1248q32 55 72 55z" />
    <glyph glyph-name="zero" unicode="0" 
d="M137 393v580q0 185 113.5 302.5t312.5 117.5t310 -118t111 -302v-580q0 -204 -108 -312t-313 -108q-199 0 -312.5 111t-113.5 309zM847 393v580q0 127 -76.5 207.5t-217.5 80.5q-279 0 -279 -288v-580q0 -137 76 -213t214 -76q283 0 283 289z" />
    <glyph glyph-name="one" unicode="1" 
d="M519 132v1103h-198q-75 0 -75 65q0 66 75 66h266q68 0 68 -66v-1168h210q77 0 77 -70q0 -62 -77 -62h-597q-77 0 -77 66t77 66h251z" />
    <glyph glyph-name="two" unicode="2" 
d="M334 132h554q96 0 96 -67q0 -65 -78 -65h-695q-74 0 -74 58q0 26 28 60l590 713q92 111 92 208q0 107 -86 168q-77 54 -188 54q-139 0 -214 -87q-36 -42 -85 -162q-35 -87 -77 -87q-60 0 -60 71q0 81 53 177q122 220 390 220q167 0 280 -85q124 -94 124 -256
q0 -140 -140 -308z" />
    <glyph glyph-name="three" unicode="3" 
d="M757 1234h-520q-87 0 -87 67q0 64 87 64h641q78 0 78 -53q0 -28 -19 -51l-311 -380q29 6 57 6q132 0 209.5 -82.5t77.5 -214.5q0 -254 -261 -443q-239 -174 -502 -174q-98 0 -98 59q0 60 82 60q151 0 273 54q142 62 246 170q124 128 124 262q0 73 -47.5 125.5
t-119.5 52.5q-56 0 -136 -34t-100 -34q-47 0 -47 57q0 32 24 61z" />
    <glyph glyph-name="four" unicode="4" 
d="M642 259h-457q-62 0 -62 46q0 25 23 95l295 901q17 52 23 62q18 30 52 30q62 0 62 -59q0 -14 -10 -46l-283 -897h357v555q0 77 69 77q67 0 67 -77v-555h143q76 0 76 -66t-76 -66h-143v-209q0 -77 -68 -77t-68 77v209z" />
    <glyph glyph-name="five" unicode="5" 
d="M372 876q131 59 227 59q162 0 268 -114q103 -111 103 -274q0 -272 -262 -434q-225 -140 -513 -140q-72 0 -72 59t88 67q240 23 365 87q257 132 257 360q0 108 -61 182q-66 79 -172 79q-68 0 -170.5 -44t-131.5 -44q-54 0 -51 77l16 449q2 58 17 81q20 40 74 40h514
q74 0 74 -64q0 -28 -22.5 -47.5t-51.5 -19.5h-481z" />
    <glyph glyph-name="six" unicode="6" 
d="M298 653q111 126 293 126q168 0 280.5 -115.5t112.5 -284.5q0 -175 -120 -290.5t-296 -115.5q-211 0 -325 138q-106 128 -106 342q0 453 379 774q196 166 293 166q52 0 52 -55q0 -29 -27 -51q-4 -3 -53 -32q-401 -237 -483 -602zM568 646q-127 0 -208 -67
q-87 -71 -87 -196q0 -124 81.5 -201.5t206.5 -77.5q124 0 205 75t81 198q0 122 -78 195.5t-201 73.5z" />
    <glyph glyph-name="seven" unicode="7" 
d="M841 1235h-633q-85 0 -85 67q0 64 85 64h712q78 0 78 -55q0 -23 -30 -99l-460 -1170q-27 -69 -76 -69q-59 0 -59 60q0 19 21 72z" />
    <glyph glyph-name="eight" unicode="8" 
d="M376 747q-185 91 -185 280q0 158 109 262t267 104q156 0 259 -100t103 -256q0 -180 -172 -288q227 -106 227 -358q0 -189 -113 -303.5t-302 -114.5q-185 0 -306 112q-126 115 -126 298q0 257 239 364zM568 804q103 0 163.5 59.5t60.5 162.5t-63 169t-165 66
q-103 0 -169.5 -68t-66.5 -172q0 -100 71 -160q67 -57 169 -57zM567 682q-131 0 -212 -80.5t-81 -211.5t88.5 -217.5t220.5 -86.5q124 0 196 86q68 82 68 212q0 128 -75 211q-78 87 -205 87z" />
    <glyph glyph-name="nine" unicode="9" 
d="M828 712q-139 -125 -289 -125q-173 0 -287.5 113.5t-114.5 285.5q0 176 120 291.5t296 115.5q208 0 323 -137q108 -128 108 -340q0 -229 -101 -438q-99 -205 -276 -355t-247 -150q-53 0 -53 55q0 43 63 84q365 238 458 600zM553 719q126 0 207 67q87 72 87 196
t-81.5 201.5t-206.5 77.5q-124 0 -203 -74q-82 -76 -82 -199q0 -122 78 -195.5t201 -73.5z" />
    <glyph glyph-name="colon" unicode=":" 
d="M562 219q121 0 121 -123t-121 -123q-125 0 -125 123t125 123zM562 1024q121 0 121 -123t-121 -123q-125 0 -125 123t125 123z" />
    <glyph glyph-name="semicolon" unicode=";" 
d="M396 116q0 46 34.5 74t81.5 28q62 0 96 -41t34 -104q0 -96 -61 -179q-64 -86 -142 -86q-43 0 -43 41q0 18 51.5 61.5t51.5 76.5q0 20 -51.5 55t-51.5 74zM522 1024q121 0 121 -123t-121 -123q-125 0 -125 123t125 123z" />
    <glyph glyph-name="less" unicode="&#x3c;" 
d="M268 522l700 -335q44 -21 44 -60q0 -55 -50 -55q-24 0 -81 28l-703 348q-69 34 -69 77q0 40 74 77l703 347q49 24 72 24q55 0 55 -56q0 -42 -47 -64z" />
    <glyph glyph-name="equal" unicode="=" 
d="M183 792h749q78 0 78 -63q0 -30 -23.5 -48.5t-53.5 -18.5h-746q-78 0 -78 65t74 65zM183 389h749q78 0 78 -63q0 -30 -23.5 -48.5t-53.5 -18.5h-746q-78 0 -78 65t74 65z" />
    <glyph glyph-name="greater" unicode="&#x3e;" 
d="M854 522l-700 335q-42 20 -42 60q0 22 16 39t38 17q18 0 75 -28l703 -348q69 -34 69 -74q0 -44 -74 -81l-703 -347q-47 -23 -72 -23q-55 0 -55 56q0 42 47 64z" />
    <glyph glyph-name="question" unicode="?" 
d="M855 1046q0 101 -110 164q-93 54 -202 54q-103 0 -179 -42q-90 -49 -109 -141l-9 -43q-10 -47 -61 -47q-62 0 -62 65q0 88 77 185q121 152 354 152q176 0 302 -90q141 -101 141 -271q0 -84 -57 -145q-32 -34 -123 -90t-125 -96q-22 -24 -47 -130q-20 -80 -72 -80
q-65 0 -65 82q0 124 90 211q83 60 167 121q90 66 90 141zM562 218q55 0 88 -35.5t33 -91.5q0 -118 -121 -118q-125 0 -125 122q0 55 34.5 89t90.5 34z" />
    <glyph glyph-name="at" unicode="@" 
d="M731 238q-102 -88 -219 -88t-185 68.5t-68 185.5q0 126 72 202.5t197 76.5q114 0 168 -54v97q0 87 -23 122q-30 47 -116 47q-68 0 -103 -38q-8 -8 -43 -69q-22 -38 -55 -38q-25 0 -43 18.5t-18 43.5q0 50 43 111q71 100 227 100q146 0 206 -77q53 -68 53 -219v-381
q0 -25 17.5 -46.5t42.5 -21.5q67 0 67 95v500q0 203 -95 297.5t-298 94.5q-389 0 -389 -416v-548q0 -406 443 -406q142 0 258 53q70 32 85 32q52 0 52 -59q0 -74 -171 -119q-129 -34 -235 -34q-260 0 -407 132q-153 138 -153 395v557q0 277 128.5 409t404.5 132
q266 0 387 -125q118 -123 118 -391v-502q0 -225 -195 -225q-88 0 -153 88zM696 359v146q-58 50 -141 50q-73 0 -119 -39q-49 -42 -49 -113q0 -125 141 -125q115 0 168 81z" />
    <glyph glyph-name="A" unicode="A" 
d="M828 396h-542l-77 -383q-8 -40 -59 -40q-71 0 -67 56q3 39 103 539q92 456 125 597q47 228 250 228t250 -228l124 -586q105 -500 105 -539q0 -68 -71 -68q-56 0 -66 49zM309 528h493l-111 563q-33 170 -137 170q-62 0 -94 -47q-26 -39 -44 -133z" />
    <glyph glyph-name="B" unicode="B" 
d="M837 715q214 -70 214 -323q0 -392 -389 -392h-480q-73 0 -73 67v1227q0 73 73 73h423q405 0 405 -341q0 -215 -173 -311zM246 132h404q136 0 200.5 59t64.5 194q0 119 -66.5 188t-184.5 69h-418v-510zM246 773h416q100 0 158 72q54 66 54 169q0 106 -66 165
q-64 56 -171 56h-391v-462z" />
    <glyph glyph-name="C" unicode="C" 
d="M123 395v560q0 438 465 438q189 0 304 -84q132 -103 132 -275q0 -83 -67 -83q-48 0 -69 78q-13 67 -50 127q-58 105 -260 105q-173 0 -248 -87q-70 -78 -70 -255v-467q0 -182 74 -260q79 -88 252 -88q261 0 302 184q15 68 16 70q15 38 53 38q67 0 67 -83
q0 -165 -139 -266q-112 -74 -293 -74q-215 0 -337 102q-132 109 -132 320z" />
    <glyph glyph-name="D" unicode="D" 
d="M110 70v1214q0 82 68 82h357q241 0 368 -122q121 -133 121 -338v-447q0 -459 -500 -459h-346q-68 0 -68 70zM246 132h278q189 0 276 82t87 247v445q0 329 -363 329h-278v-1103z" />
    <glyph glyph-name="E" unicode="E" 
d="M246 1235v-462h478q95 0 95 -61q0 -70 -95 -70h-478v-510h669q95 0 95 -62q0 -70 -95 -70h-721q-85 0 -85 83v1205q0 34 25 56t60 22h720q96 0 96 -61q0 -70 -96 -70h-668z" />
    <glyph glyph-name="F" unicode="F" 
d="M246 1235v-462h491q82 0 82 -64q0 -67 -82 -67h-491v-583q0 -86 -68 -86q-69 0 -69 86v1227q0 80 74 80h771q56 0 56 -64q0 -67 -91 -67h-673z" />
    <glyph glyph-name="G" unicode="G" 
d="M891 464h-184q-82 0 -82 65q0 67 82 67h249q68 0 68 -82v-469q0 -72 -62 -72q-64 0 -64 52v106q-127 -158 -347 -158q-199 0 -324 109q-131 115 -131 311v561q0 439 443 439q320 0 436 -227q36 -71 36 -135q0 -74 -70 -74q-43 0 -71 79q-38 106 -78 146q-78 79 -242 79
q-317 0 -317 -307v-561q0 -145 99 -221q89 -68 238 -68q145 0 230 71q91 75 91 218v71z" />
    <glyph glyph-name="H" unicode="H" 
d="M248 773h628v521q0 99 69 99q67 0 67 -99v-1250q0 -71 -68 -71t-68 71v598h-628v-591q0 -78 -68 -78q-69 0 -69 78v1225q0 117 69 117q68 0 68 -111v-509z" />
    <glyph glyph-name="I" unicode="I" 
d="M493 132v1102h-242q-86 0 -86 66t77 66h635q80 0 80 -63q0 -69 -80 -69h-248v-1102h237q91 0 91 -66t-91 -66h-626q-75 0 -75 63q0 69 75 69h253z" />
    <glyph glyph-name="J" unicode="J" 
d="M861 1234h-421q-71 0 -71 65q0 67 71 67h493q64 0 64 -84v-888q0 -201 -129 -314q-123 -107 -327 -107q-238 0 -366 169q-79 105 -79 185q0 77 72 77q39 0 51 -38l15 -49q31 -101 116 -158q81 -55 190 -55q142 0 229 73q92 77 92 217v840z" />
    <glyph glyph-name="K" unicode="K" 
d="M246 386v-337q0 -76 -70 -76q-67 0 -67 76v1275q0 69 69 69q68 0 68 -74v-737l641 775q30 36 64 36q60 0 60 -57q0 -29 -22 -56l-436 -538l497 -660q15 -20 15 -45q0 -26 -19 -45t-45 -19q-35 0 -60 33l-484 636z" />
    <glyph glyph-name="L" unicode="L" 
d="M260 132h719q86 0 86 -67q0 -65 -86 -65h-784q-27 0 -49 16.5t-22 52.5v1231q0 93 68 93t68 -99v-1162z" />
    <glyph glyph-name="M" unicode="M" 
d="M572 556l324 779q24 58 77 58q65 0 65 -90v-1256q0 -74 -66 -74q-71 0 -71 92v986l-268 -630q-25 -59 -64 -59q-43 0 -69 59l-281 630v-1004q0 -74 -68 -74q-69 0 -69 83v1246q0 91 73 91q47 0 70 -53z" />
    <glyph glyph-name="N" unicode="N" 
d="M888 259v1040q0 94 66 94q70 0 70 -94v-1255q0 -71 -68 -71q-47 0 -73 43l-650 1090v-1056q0 -77 -72 -77q-65 0 -65 77v1249q0 94 66 94q41 0 72 -52z" />
    <glyph glyph-name="O" unicode="O" 
d="M96 391v566q0 217 133 330q124 106 345 106q212 0 330 -111q120 -114 120 -325v-566q0 -205 -131 -315q-122 -103 -331 -103t-333 103q-133 110 -133 315zM888 401v545q0 315 -339 315q-147 0 -231.5 -81t-84.5 -228v-551q0 -144 94 -223q87 -74 234 -74q327 0 327 297z
" />
    <glyph glyph-name="P" unicode="P" 
d="M246 587v-537q0 -77 -69 -77q-68 0 -68 77v1251q0 65 71 65h554q155 0 246 -110q85 -102 85 -261q0 -215 -102.5 -311.5t-318.5 -96.5h-398zM246 719h391q148 0 217 59q74 63 74 210q0 247 -218 247h-464v-516z" />
    <glyph glyph-name="Q" unicode="Q" 
d="M658 -17q-51 -10 -98 -10q-209 0 -333 105q-131 112 -131 318v562q0 208 129 324q124 111 334 111q213 0 336 -110q129 -115 129 -325v-562q0 -131 -55 -220q-52 -84 -168 -155q45 -46 179 -130q43 -27 43 -59q0 -58 -60 -58q-73 0 -170 74q-78 59 -135 135zM718 121
q170 96 170 273v564q0 303 -326 303q-151 0 -237 -75q-92 -80 -92 -228v-562q0 -292 334 -292q-94 173 -94 323q0 115 73 115q39 0 55 -23.5t16 -94.5q0 -148 101 -303z" />
    <glyph glyph-name="R" unicode="R" 
d="M769 615l292 -524q18 -32 18 -60q0 -59 -62 -59q-44 0 -73 51l-316 564h-382v-537q0 -78 -68 -78q-69 0 -69 78v1242q0 42 14 58t56 16h503q173 0 267 -109q88 -103 88 -279q0 -160 -57.5 -239t-210.5 -124zM246 719h376q279 0 279 258q0 112 -49 180q-55 78 -163 78
h-443v-516z" />
    <glyph glyph-name="S" unicode="S" 
d="M90 1027q0 187 136 283q118 83 313 83q302 0 432 -148q34 -39 34 -71q0 -56 -59 -56q-24 0 -72.5 33t-110.5 62q-106 48 -235 48q-126 0 -206 -51q-96 -60 -96 -179q0 -141 212 -206l384 -120q223 -98 223 -346q0 -192 -158 -302q-133 -85 -345 -85q-130 0 -275 44
q-192 59 -192 156q0 57 58 57q28 0 130 -56q126 -69 290 -69q142 0 240 62q116 73 116 207q0 188 -224 244l-290 92q-305 81 -305 318z" />
    <glyph glyph-name="T" unicode="T" 
d="M492 1235h-366q-71 0 -71 63q0 68 81 68h846q83 0 83 -65q0 -66 -83 -66h-354v-1185q0 -78 -67 -78q-69 0 -69 78v1185z" />
    <glyph glyph-name="U" unicode="U" 
d="M102 397v908q0 88 66 88q71 0 71 -88v-906q0 -146 99 -224q90 -71 240 -71q302 0 302 295v904q0 90 67 90q70 0 70 -90v-906q0 -207 -119 -317q-115 -107 -324 -107q-207 0 -335 107q-137 114 -137 317z" />
    <glyph glyph-name="V" unicode="V" horiz-adv-x="1109" 
d="M555 232l352 1105q18 56 65 56q65 0 65 -56q0 -19 -7 -41l-411 -1279q-14 -44 -65 -44t-65 44l-414 1279q-7 22 -7 41q0 56 64 56q45 0 63 -56z" />
    <glyph glyph-name="W" unicode="W" 
d="M313 96l133 677q25 128 114 128q92 0 123 -137l149 -668l93 1225q5 72 64 72q64 0 62 -65l-1 -28l-86 -1181q-11 -146 -131 -146q-67 0 -99 40q-22 29 -39 104l-135 600l-111 -592q-28 -152 -139 -152q-118 0 -132 152l-108 1179q-2 22 -2 30q0 59 56 59q61 0 68 -73z
" />
    <glyph glyph-name="X" unicode="X" 
d="M477 703l-365 585q-17 27 -17 43q0 62 67 62q34 0 54 -32l340 -539l331 524q35 56 68 56q26 0 47.5 -17t21.5 -42q0 -26 -25 -65l-364 -575l395 -612q22 -34 22 -59q0 -59 -64 -59q-34 0 -61 41l-371 570l-356 -570q-26 -41 -66 -41q-66 0 -66 61q0 26 20 57z" />
    <glyph glyph-name="Y" unicode="Y" 
d="M492 587l-379 693q-17 31 -17 54q0 59 61 59q40 0 65 -46l338 -623l335 618q28 51 67 51q63 0 63 -49q0 -23 -20 -60l-377 -705v-531q0 -75 -68 -75t-68 75v539z" />
    <glyph glyph-name="Z" unicode="Z" 
d="M848 1235h-661q-92 0 -92 65q0 66 92 66h748q89 0 89 -56q0 -30 -31 -76l-749 -1102h715q92 0 92 -68q0 -42 -27 -55q-17 -9 -65 -9h-803q-88 0 -88 53q0 39 37 93z" />
    <glyph glyph-name="bracketleft" unicode="[" 
d="M458 -286h322q67 0 67 -64q0 -62 -76 -62h-372q-71 0 -71 62v1651q0 65 71 65h374q74 0 74 -65q0 -66 -74 -66h-315v-1521z" />
    <glyph glyph-name="backslash" unicode="\" 
d="M123 1340q0 53 57 53q45 0 65 -35l739 -1281q14 -24 14 -43q0 -55 -65 -55q-37 0 -55 31l-741 1283q-14 24 -14 47z" />
    <glyph glyph-name="bracketright" unicode="]" 
d="M662 1241h-322q-67 0 -67 60q0 65 76 65h372q71 0 71 -65v-1639q0 -74 -71 -74h-374q-74 0 -74 66t74 66h315v1521z" />
    <glyph glyph-name="asciicircum" unicode="^" 
d="M560 1234l-335 -564q-25 -42 -60 -42q-56 0 -56 57q0 26 28 72l348 566q43 70 77 70q32 0 77 -74l348 -567q24 -41 24 -66q0 -58 -58 -58q-37 0 -63 44z" />
    <glyph glyph-name="underscore" unicode="_" 
d="M-6 -303h1132q77 0 77 -64q0 -66 -76 -66h-1129q-78 0 -78 66q0 64 74 64z" />
    <glyph glyph-name="grave" unicode="`" 
d="M375 1367q0 87 77 87q46 0 87 -45l169 -185q36 -39 36 -59q0 -48 -48 -48q-23 0 -70 32l-185 125q-66 45 -66 93z" />
    <glyph glyph-name="a" unicode="a" 
d="M833 101q-99 -72 -150 -93q-69 -28 -174 -28q-162 0 -266 69q-120 80 -120 235t125 244q110 78 273 78q132 0 305 -62v158q0 111 -106 160q-74 33 -181 33q-250 0 -276 -139q-12 -63 -14 -69q-14 -32 -55 -32q-71 0 -71 74q0 100 79 186q99 108 347 108q197 0 293 -66
q114 -79 114 -267v-457q0 -80 34 -109q5 -5 62 -28q34 -14 34 -62q0 -54 -59 -54q-14 0 -57 14q-77 25 -88 32q-40 23 -49 75zM826 238v191q-151 49 -284 49q-289 0 -289 -187q0 -97 87 -145q69 -38 174 -38q93 0 168 35q58 26 144 95z" />
    <glyph glyph-name="b" unicode="b" 
d="M253 104q-7 -53 -18 -80q-15 -44 -55 -44q-57 0 -57 70v1312q0 92 68 92q62 0 62 -92v-468q144 129 348 129q167 0 280 -79q129 -90 129 -259v-375q0 -331 -404 -330q-121 0 -188 22q-76 25 -165 102zM253 258q158 -151 346 -151q282 -1 282 205v362q0 116 -97 173
q-80 48 -203 48q-168 0 -328 -127v-510z" />
    <glyph glyph-name="c" unicode="c" 
d="M123 320v364q0 339 449 339q167 0 289 -69q149 -85 149 -241q0 -58 -56 -58q-39 0 -70 62q-41 84 -79 116q-75 62 -223 62q-329 0 -329 -220v-355q0 -126 105 -178q75 -35 243 -35q119 0 199 40q46 23 96 73q39 40 61 40q54 0 54 -56q0 -57 -66 -120q-110 -104 -364 -104
q-458 0 -458 340z" />
    <glyph glyph-name="d" unicode="d" 
d="M874 100q-94 -69 -161 -93q-73 -27 -183 -27q-181 0 -292 75q-129 87 -129 260v378q0 166 126 254q109 76 282 76q115 0 189.5 -25t160.5 -96v460q0 92 62 92q67 0 67 -92v-1313q0 -69 -60 -69q-37 1 -50 43q-10 31 -12 77zM867 251v517q-95 69 -154 94q-78 33 -177 33
q-124 0 -202 -47q-95 -58 -95 -169v-353q0 -115 100 -171q80 -45 204 -45q103 0 178 34q66 31 146 107z" />
    <glyph glyph-name="e" unicode="e" 
d="M239 478v-142q0 -229 326 -228q118 -1 194 25q38 13 134 74q61 54 78 54q54 0 54 -56q0 -58 -80 -122q-129 -104 -386 -103q-450 -1 -450 356v359q0 123 92 212q123 116 368 116q441 0 441 -438q0 -107 -81 -107h-690zM239 606h641q0 289 -325 289q-120 0 -215 -53
q-101 -69 -101 -161v-75z" />
    <glyph glyph-name="f" unicode="f" 
d="M341 875h-142q-76 0 -76 65q0 63 76 63h142v125q0 326 333 326q134 0 224 -49q113 -70 113 -199q0 -84 -66 -84q-44 0 -68 50q-28 84 -48 104q-40 50 -156 50q-202 0 -202 -201v-122h263q85 0 85 -64t-85 -64h-263v-819q0 -76 -66 -76q-64 0 -64 76v819z" />
    <glyph glyph-name="g" unicode="g" 
d="M867 90q-143 -111 -347 -110q-411 -2 -411 335v371q0 336 428 336q115 0 178.5 -22.5t153.5 -94.5q23 117 72 117q55 0 55 -85v-983q0 -386 -450 -386q-112 0 -228 44q-152 58 -152 143q0 59 56 59q9 0 110.5 -59.5t224.5 -59.5q211 0 273 109q37 53 37 286zM867 227v523
q-108 145 -313 145q-315 0 -315 -203v-372q0 -213 287 -212q108 0 182 27q70 24 159 92z" />
    <glyph glyph-name="h" unicode="h" 
d="M253 920q99 62 168 82.5t186 20.5q403 0 403 -338v-616q0 -88 -64 -89q-65 -1 -65 89v616q0 210 -301 210q-172 0 -327 -129v-697q0 -88 -64 -89q-66 -1 -66 89v1297q0 88 65 88t65 -88v-446z" />
    <glyph glyph-name="i" unicode="i" 
d="M519 128v747h-217q-97 0 -97 67q0 61 97 61h257q90 0 90 -82v-793h244q91 0 91 -65q0 -63 -84 -63h-679q-84 0 -84 63q0 65 84 65h298zM556 1454q49 0 84 -36.5t35 -86.5q0 -51 -35.5 -87t-86.5 -36q-52 0 -87.5 35.5t-35.5 87.5t36.5 87.5t89.5 35.5z" />
    <glyph glyph-name="j" unicode="j" 
d="M696 875h-241q-87 0 -87 64t87 64h285q86 0 86 -84v-987q0 -185 -82 -273q-86 -91 -270 -91q-146 0 -278 102q-128 99 -128 197q0 93 67 92q21 0 53 -73q38 -86 88 -121q99 -70 201 -70q123 0 173 58q46 53 46 179v943zM676 1454q49 0 84 -36.5t35 -86.5q0 -51 -35.5 -87
t-86.5 -36q-52 0 -87.5 35.5t-35.5 87.5t36.5 87.5t89.5 35.5z" />
    <glyph glyph-name="k" unicode="k" 
d="M253 452l623 526q45 45 92 45q56 0 56 -62q0 -32 -35 -55l-404 -339l406 -462q33 -32 33 -59q0 -66 -46 -66q-50 0 -78 27l-414 484l-233 -196v-249q0 -67 -64 -66q-66 1 -66 66v1340q0 68 65 68t65 -68v-934z" />
    <glyph glyph-name="l" unicode="l" 
d="M519 128v1176h-198q-75 0 -75 63q0 67 75 67h263q65 0 65 -68v-1238h260q75 0 75 -65q0 -63 -75 -63h-689q-83 0 -83 65q0 63 83 63h299z" />
    <glyph glyph-name="m" unicode="m" 
d="M212 915q50 61 81 80q44 28 110 28q106 0 185 -111q56 64 97 86q48 25 127 25q233 0 233 -224v-730q0 -89 -67 -89q-63 0 -63 89v684q0 142 -114 142q-87 0 -166 -103v-722q0 -90 -66 -90q-63 0 -63 90v670q0 155 -124 155q-78 0 -156 -103v-722q0 -90 -67 -90
q-63 0 -63 90v888q0 65 53 65q29 0 45 -38q15 -33 18 -70z" />
    <glyph glyph-name="n" unicode="n" 
d="M253 900q99 72 170 96q68 27 183 27q404 0 404 -336v-617q0 -90 -66 -90q-63 0 -63 90v613q0 110 -66.5 161t-214.5 51q-108 0 -183 -38q-61 -27 -164 -104v-683q0 -90 -64 -90q-66 0 -66 90v876q0 77 62 77q34 0 50 -48q11 -38 18 -75z" />
    <glyph glyph-name="o" unicode="o" 
d="M109 317v368q0 338 451 338q450 0 450 -338v-368q0 -338 -444 -337q-457 -1 -457 337zM880 317v368q0 210 -327 210q-314 0 -314 -210v-368q0 -210 323 -209q318 -1 318 209z" />
    <glyph glyph-name="p" unicode="p" 
d="M253 915q152 108 349 108q408 0 408 -339v-371q0 -159 -115 -250q-104 -83 -280 -83q-208 0 -362 110v-424q0 -98 -64 -98q-66 0 -66 98v1261q0 96 52 96q29 0 51 -41q13 -34 27 -67zM253 234q139 -126 340 -126q121 0 197 47q91 56 91 158v374q0 116 -96 170
q-77 39 -201 39q-113 0 -183 -32q-62 -29 -148 -113v-517z" />
    <glyph glyph-name="q" unicode="q" 
d="M867 89q-87 -68 -159 -90q-63 -19 -178 -19q-421 0 -421 338v367q0 172 128 261q111 77 299 77q203 0 331 -115q25 115 72 115q57 0 57 -78v-1279q0 -98 -64 -98q-65 0 -65 98v423zM867 233v518q-123 144 -331 144q-121 0 -200 -46q-97 -56 -97 -161l-1 -370
q0 -107 103 -164q84 -47 206 -47q177 0 320 126z" />
    <glyph glyph-name="r" unicode="r" 
d="M382 128v747h-195q-78 0 -78 64q0 65 78 64h258q67 -1 67 -111q120 131 256 131q111 0 177 -69.5t66 -180.5q0 -77 -65 -77q-39 0 -55 51q-28 91 -31 96q-29 51 -101 51q-75 0 -141 -54q-36 -28 -106 -113v-599h243q78 0 78 -61q0 -67 -78 -67h-568q-78 0 -78 63
q0 65 78 65h195z" />
    <glyph glyph-name="s" unicode="s" 
d="M143 726q0 297 394 297q121 0 240 -41q159 -56 159 -152q0 -53 -53 -53q-16 0 -126 59t-221 59q-100 0 -172 -32q-91 -47 -91 -134q0 -104 197 -135l265 -42q268 -42 268 -257q0 -155 -131 -242q-112 -74 -285 -74q-220 0 -356 96q-115 81 -115 131q0 54 54 54
q22 0 81 -40q78 -52 127 -73q89 -40 185 -40q113 0 199 41q112 53 112 143q0 115 -190 147q-175 30 -351 60q-190 60 -190 228z" />
    <glyph glyph-name="t" unicode="t" 
d="M380 875h-184q-73 0 -73 64t73 64h184v350q0 101 65 101t65 -101v-350h345q74 0 74 -62q0 -66 -74 -66h-345v-573q0 -195 182 -195q96 0 184 59t103 59q59 0 59 -57q0 -69 -145 -143q-99 -45 -215 -45q-298 0 -298 322v573z" />
    <glyph glyph-name="u" unicode="u" 
d="M874 114q-100 -74 -172 -102q-84 -32 -198 -32q-187 0 -289 87q-106 92 -106 251v632q0 73 64 73q66 0 66 -73v-620q0 -119 74 -174q68 -50 217 -50q182 0 337 142v702q0 73 65 73q64 0 64 -73v-896q0 -74 -56 -74q-34 0 -50 53q-11 40 -16 81z" />
    <glyph glyph-name="v" unicode="v" 
d="M559 188l326 785q21 50 66 50q66 0 66 -57q0 -18 -15 -54l-363 -868q-27 -64 -79 -64t-79 64l-366 869q-13 31 -13 50q0 24 18.5 42t43.5 18q46 0 69 -56z" />
    <glyph glyph-name="w" unicode="w" 
d="M317 69l147 746q15 72 95 72q76 0 93 -72l182 -746l89 883q8 71 69 71q60 0 60 -69q0 -14 -10 -105l-97 -802q-18 -67 -120 -67q-89 0 -105 62l-164 714l-132 -709q-11 -67 -102 -67q-106 0 -120 80l-120 787q-14 98 -14 107q0 69 60 69q56 0 65 -66z" />
    <glyph glyph-name="x" unicode="x" 
d="M474 502l-318 407q-19 24 -19 52q0 62 63 62q31 0 56 -32l302 -384l305 385q25 31 55 31q25 0 45 -17.5t20 -41.5q0 -20 -20 -46l-322 -416l334 -406q22 -27 22 -54q0 -62 -59 -62q-41 0 -79 44l-301 374l-287 -368q-40 -50 -87 -50q-61 0 -61 52q0 30 29 66z" />
    <glyph glyph-name="y" unicode="y" 
d="M487 36l-363 868q-15 36 -15 57q0 62 66 62q40 0 61 -49l327 -767l304 737q28 79 81 79q62 0 62 -53q0 -23 -17 -64l-495 -1190q-62 -148 -212 -148q-63 0 -111 19q-66 27 -66 80q0 61 62 61q14 0 48 -16t65 -16q68 0 104 91z" />
    <glyph glyph-name="z" unicode="z" 
d="M760 875h-504q-79 0 -79 66q0 62 79 62h649q64 0 64 -49q0 -29 -23 -57l-630 -769h610q84 0 84 -64t-84 -64h-745q-72 0 -72 57q0 28 33 68z" />
    <glyph glyph-name="braceleft" unicode="{" 
d="M424 477q177 -19 177 -195v-391q0 -124 25 -151q20 -21 46 -21h95q66 0 66 -65t-73 -65h-121q-78 0 -123 55q-45 48 -45 208v431q0 84 -48 112q-8 5 -88 19q-48 8 -48 62q0 55 48 64q82 15 88 19q48 28 48 131v397q0 236 122 268q24 10 66 10h101q73 0 73 -64t-69 -64
h-92q-36 0 -49 -27q-22 -24 -22 -166v-373q0 -175 -177 -194z" />
    <glyph glyph-name="bar" unicode="|" 
d="M629 1391v-1764q0 -59 -71 -59q-66 0 -66 59v1764q0 63 69 63q68 0 68 -63z" />
    <glyph glyph-name="braceright" unicode="}" 
d="M699 477q-177 -19 -177 -195v-391q0 -124 -25 -151q-20 -21 -46 -21h-95q-66 0 -66 -65t73 -65h121q78 0 123 55q45 48 45 208v431q0 84 48 112q8 5 88 19q48 8 48 62q0 55 -48 64q-82 15 -88 19q-48 28 -48 131v397q0 236 -122 268q-24 10 -66 10h-101q-73 0 -73 -64
t69 -64h92q36 0 49 -27q22 -24 22 -166v-373q0 -175 177 -194z" />
    <glyph glyph-name="asciitilde" unicode="~" 
d="M716 873q52 0 104 75t75 75q48 0 48 -50q0 -58 -84 -145t-146 -87q-45 0 -172 75t-154 75q-31 0 -83.5 -75t-79.5 -75q-47 0 -47 50q0 46 74 139t118 93q49 0 172.5 -75t174.5 -75z" />
    <glyph glyph-name="Adieresis" unicode="&#xc4;" 
d="M828 396h-542l-77 -383q-8 -40 -59 -40q-71 0 -67 56q3 39 103 539q92 456 125 597q47 228 250 228t250 -228l124 -586q105 -500 105 -539q0 -68 -71 -68q-56 0 -66 49zM309 528h493l-111 563q-33 170 -137 170q-62 0 -94 -47q-26 -39 -44 -133zM399 1723q52 0 86 -36.5
t34 -88.5t-35 -86.5t-87 -34.5q-53 0 -88.5 35t-35.5 88q0 52 37 87.5t89 35.5zM727 1723q51 0 85 -36.5t34 -88.5t-34.5 -86.5t-86.5 -34.5q-53 0 -88.5 35t-35.5 88q0 52 37 87.5t89 35.5z" />
    <glyph glyph-name="Aring" unicode="&#xc5;" 
d="M1038 48q0 -76 -67 -76q-60 0 -70 63l-75 361h-542l-77 -383q-8 -40 -70 -40q-55 0 -55 66l205 1077q35 187 126 244q-68 64 -68 149q0 93 61.5 155t154.5 62q92 0 153 -59.5t61 -150.5q0 -101 -81 -166q85 -38 115 -185zM307 528h493l-113 588q-22 145 -138 145
q-105 0 -139 -180zM565 1393q49 0 81 34.5t32 83.5q0 52 -34 85t-86 33q-48 0 -82 -33.5t-34 -81.5q0 -52 35.5 -86.5t87.5 -34.5z" />
    <glyph glyph-name="Ccedilla" unicode="&#xc7;" 
d="M546 -26l-18 -105q35 16 70 16q84 0 138 -68q50 -63 50 -149q0 -103 -64.5 -163t-168.5 -60q-178 0 -178 74q0 54 54 54q21 0 61.5 -13t62.5 -13q103 0 103 121q0 107 -81 107q-25 0 -61 -22.5t-55 -22.5q-45 0 -45 53q0 17 31 204q-322 67 -322 408v560q0 438 465 438
q178 0 299 -83q137 -104 137 -276q0 -83 -67 -83q-50 0 -68 72q-17 81 -67 147q-57 91 -244 91q-173 0 -248 -87q-70 -81 -70 -255v-467q0 -176 74 -260q78 -88 252 -88q261 0 302 184q17 108 69 108q67 0 67 -83q0 -180 -150 -277q-137 -68 -328 -62z" />
    <glyph glyph-name="Eacute" unicode="&#xc9;" 
d="M246 1235v-462h478q95 0 95 -61q0 -70 -95 -70h-478v-510h669q95 0 95 -62q0 -70 -95 -70h-721q-85 0 -85 83v1205q0 34 25 56t60 22h720q96 0 96 -61q0 -70 -96 -70h-668zM744 1697q0 -41 -73 -93l-176 -125q-45 -32 -72 -32q-48 0 -48 48q0 25 41 69l153 163
q53 57 98 57q77 0 77 -87z" />
    <glyph glyph-name="Ntilde" unicode="&#xd1;" 
d="M888 259v1040q0 94 66 94q70 0 70 -94v-1255q0 -71 -68 -71q-47 0 -73 43l-650 1090v-1056q0 -77 -72 -77q-65 0 -65 77v1249q0 94 66 94q41 0 72 -52zM470 1559q-16 0 -49.5 -41t-68.5 -41q-52 0 -52 45q0 31 50 114q52 87 80 87q39 0 139.5 -41t130.5 -41q23 0 55.5 41
t67.5 41q53 0 53 -44q0 -34 -48 -115q-51 -87 -83 -87q-44 0 -140 41t-135 41z" />
    <glyph glyph-name="Odieresis" unicode="&#xd6;" 
d="M96 391v566q0 217 133 330q124 106 345 106q212 0 330 -111q120 -114 120 -325v-566q0 -205 -131 -315q-122 -103 -331 -103t-333 103q-133 110 -133 315zM888 401v545q0 315 -339 315q-147 0 -231.5 -81t-84.5 -228v-551q0 -144 94 -223q87 -74 234 -74q327 0 327 297z
M399 1723q52 0 86 -36.5t34 -88.5t-35 -86.5t-87 -34.5q-53 0 -88.5 35t-35.5 88q0 52 37 87.5t89 35.5zM727 1723q51 0 85 -36.5t34 -88.5t-34.5 -86.5t-86.5 -34.5q-53 0 -88.5 35t-35.5 88q0 52 37 87.5t89 35.5z" />
    <glyph glyph-name="Udieresis" unicode="&#xdc;" 
d="M102 397v908q0 88 66 88q71 0 71 -88v-906q0 -146 99 -224q90 -71 240 -71q302 0 302 295v904q0 90 67 90q70 0 70 -90v-906q0 -207 -119 -317q-115 -107 -324 -107q-207 0 -335 107q-137 114 -137 317zM399 1723q52 0 86 -36.5t34 -88.5t-35 -86.5t-87 -34.5
q-53 0 -88.5 35t-35.5 88q0 52 37 87.5t89 35.5zM727 1723q51 0 85 -36.5t34 -88.5t-34.5 -86.5t-86.5 -34.5q-53 0 -88.5 35t-35.5 88q0 52 37 87.5t89 35.5z" />
    <glyph glyph-name="aacute" unicode="&#xe1;" 
d="M833 101q-99 -72 -150 -93q-69 -28 -174 -28q-162 0 -266 69q-120 80 -120 235t125 244q110 78 273 78q132 0 305 -62v158q0 111 -106 160q-74 33 -181 33q-250 0 -276 -139q-12 -63 -14 -69q-14 -32 -55 -32q-71 0 -71 74q0 100 79 186q99 108 347 108q197 0 293 -66
q114 -79 114 -267v-457q0 -80 34 -109q5 -5 62 -28q34 -14 34 -62q0 -54 -59 -54q-14 0 -57 14q-77 25 -88 32q-40 23 -49 75zM826 238v191q-151 49 -284 49q-289 0 -289 -187q0 -97 87 -145q69 -38 174 -38q93 0 168 35q58 26 144 95zM744 1367q0 -41 -73 -93l-176 -125
q-45 -32 -72 -32q-48 0 -48 48q0 25 41 69l153 163q53 57 98 57q77 0 77 -87z" />
    <glyph glyph-name="agrave" unicode="&#xe0;" 
d="M833 101q-99 -72 -150 -93q-69 -28 -174 -28q-162 0 -266 69q-120 80 -120 235t125 244q110 78 273 78q132 0 305 -62v158q0 111 -106 160q-74 33 -181 33q-250 0 -276 -139q-12 -63 -14 -69q-14 -32 -55 -32q-71 0 -71 74q0 100 79 186q99 108 347 108q197 0 293 -66
q114 -79 114 -267v-457q0 -80 34 -109q5 -5 62 -28q34 -14 34 -62q0 -54 -59 -54q-14 0 -57 14q-77 25 -88 32q-40 23 -49 75zM826 238v191q-151 49 -284 49q-289 0 -289 -187q0 -97 87 -145q69 -38 174 -38q93 0 168 35q58 26 144 95zM375 1367q0 87 77 87q46 0 87 -45
l169 -185q36 -39 36 -59q0 -48 -48 -48q-23 0 -70 32l-185 125q-66 45 -66 93z" />
    <glyph glyph-name="acircumflex" unicode="&#xe2;" 
d="M833 101q-99 -72 -150 -93q-69 -28 -174 -28q-162 0 -266 69q-120 80 -120 235t125 244q110 78 273 78q132 0 305 -62v158q0 111 -106 160q-74 33 -181 33q-250 0 -276 -139q-12 -63 -14 -69q-14 -32 -55 -32q-71 0 -71 74q0 100 79 186q99 108 347 108q197 0 293 -66
q114 -79 114 -267v-457q0 -80 34 -109q5 -5 62 -28q34 -14 34 -62q0 -54 -59 -54q-14 0 -57 14q-77 25 -88 32q-40 23 -49 75zM826 238v191q-151 49 -284 49q-289 0 -289 -187q0 -97 87 -145q69 -38 174 -38q93 0 168 35q58 26 144 95zM570 1283l-168 -133q-39 -31 -73 -31
q-46 0 -46 46q0 26 31 61l164 183q40 45 93 45q50 0 90 -45l164 -183q32 -36 32 -59q0 -48 -47 -48q-34 0 -73 31z" />
    <glyph glyph-name="adieresis" unicode="&#xe4;" 
d="M833 101q-99 -72 -150 -93q-69 -28 -174 -28q-162 0 -266 69q-120 80 -120 235t125 244q110 78 273 78q132 0 305 -62v158q0 111 -106 160q-74 33 -181 33q-250 0 -276 -139q-12 -63 -14 -69q-14 -32 -55 -32q-71 0 -71 74q0 100 79 186q99 108 347 108q197 0 293 -66
q114 -79 114 -267v-457q0 -80 34 -109q5 -5 62 -28q34 -14 34 -62q0 -54 -59 -54q-14 0 -57 14q-77 25 -88 32q-40 23 -49 75zM826 238v191q-151 49 -284 49q-289 0 -289 -187q0 -97 87 -145q69 -38 174 -38q93 0 168 35q58 26 144 95zM399 1393q52 0 86 -36.5t34 -88.5
t-35 -86.5t-87 -34.5q-53 0 -88.5 35t-35.5 88q0 52 37 87.5t89 35.5zM727 1393q51 0 85 -36.5t34 -88.5t-34.5 -86.5t-86.5 -34.5q-53 0 -88.5 35t-35.5 88q0 52 37 87.5t89 35.5z" />
    <glyph glyph-name="atilde" unicode="&#xe3;" 
d="M833 101q-99 -72 -150 -93q-69 -28 -174 -28q-162 0 -266 69q-120 80 -120 235t125 244q110 78 273 78q132 0 305 -62v158q0 111 -106 160q-74 33 -181 33q-250 0 -276 -139q-12 -63 -14 -69q-14 -32 -55 -32q-71 0 -71 74q0 100 79 186q99 108 347 108q197 0 293 -66
q114 -79 114 -267v-457q0 -80 34 -109q5 -5 62 -28q34 -14 34 -62q0 -54 -59 -54q-14 0 -57 14q-77 25 -88 32q-40 23 -49 75zM826 238v191q-151 49 -284 49q-289 0 -289 -187q0 -97 87 -145q69 -38 174 -38q93 0 168 35q58 26 144 95zM460 1229q-16 0 -49.5 -41t-68.5 -41
q-52 0 -52 45q0 31 50 114q52 87 80 87q39 0 139.5 -41t130.5 -41q23 0 55.5 41t67.5 41q53 0 53 -44q0 -34 -48 -115q-51 -87 -83 -87q-44 0 -140 41t-135 41z" />
    <glyph glyph-name="aring" unicode="&#xe5;" 
d="M833 101q-99 -72 -150 -93q-69 -28 -174 -28q-162 0 -266 69q-120 80 -120 235t125 244q110 78 273 78q132 0 305 -62v158q0 111 -106 160q-74 33 -181 33q-250 0 -276 -139q-12 -63 -14 -69q-14 -32 -55 -32q-71 0 -71 74q0 100 79 186q99 108 347 108q197 0 293 -66
q114 -79 114 -267v-457q0 -80 34 -109q5 -5 62 -28q34 -14 34 -62q0 -54 -59 -54q-14 0 -57 14q-77 25 -88 32q-40 23 -49 75zM826 238v191q-151 49 -284 49q-289 0 -289 -187q0 -97 87 -145q69 -38 174 -38q93 0 168 35q58 26 144 95zM563 1117q-89 0 -148.5 62.5
t-59.5 151.5q0 93 61.5 155t154.5 62q92 0 153 -59.5t61 -150.5q0 -95 -63 -158t-159 -63zM575 1215q49 0 81 34.5t32 83.5q0 52 -34 85t-86 33q-48 0 -82 -33.5t-34 -81.5q0 -52 35.5 -86.5t87.5 -34.5z" />
    <glyph glyph-name="ccedilla" unicode="&#xe7;" 
d="M526 -19l-18 -112q34 16 70 16q84 0 138 -68q50 -63 50 -149q0 -103 -64.5 -163t-168.5 -60q-178 0 -178 74q0 54 54 54q21 0 61.5 -13t62.5 -13q103 0 103 121q0 107 -81 107q-20 0 -66.5 -23t-58.5 -23q-37 0 -37 40q0 12 35 223q-305 52 -305 364v309q0 358 449 358
q167 0 289 -69q149 -85 149 -241q0 -58 -56 -58q-39 0 -70 62q-41 84 -79 116q-75 62 -223 62q-329 0 -329 -253v-286q0 -152 105 -208q76 -41 243 -41q120 0 199 40q46 23 96 73q39 40 61 40q54 0 54 -56q0 -58 -66 -120q-112 -105 -358 -105q-31 0 -61 2z" />
    <glyph glyph-name="eacute" unicode="&#xe9;" 
d="M239 478v-142q0 -229 326 -228q118 -1 194 25q38 13 134 74q61 54 78 54q54 0 54 -56q0 -58 -80 -122q-129 -104 -386 -103q-450 -1 -450 356v359q0 123 92 212q123 116 368 116q441 0 441 -438q0 -107 -81 -107h-690zM239 606h641q0 289 -325 289q-120 0 -215 -53
q-101 -69 -101 -161v-75zM744 1367q0 -41 -73 -93l-176 -125q-45 -32 -72 -32q-48 0 -48 48q0 25 41 69l153 163q53 57 98 57q77 0 77 -87z" />
    <glyph glyph-name="egrave" unicode="&#xe8;" 
d="M239 478v-142q0 -229 326 -228q118 -1 194 25q38 13 134 74q61 54 78 54q54 0 54 -56q0 -58 -80 -122q-129 -104 -386 -103q-450 -1 -450 356v359q0 123 92 212q123 116 368 116q441 0 441 -438q0 -107 -81 -107h-690zM239 606h641q0 289 -325 289q-120 0 -215 -53
q-101 -69 -101 -161v-75zM375 1367q0 87 77 87q46 0 87 -45l169 -185q36 -39 36 -59q0 -48 -48 -48q-23 0 -70 32l-185 125q-66 45 -66 93z" />
    <glyph glyph-name="ecircumflex" unicode="&#xea;" 
d="M239 478v-142q0 -229 326 -228q118 -1 194 25q38 13 134 74q61 54 78 54q54 0 54 -56q0 -58 -80 -122q-129 -104 -386 -103q-450 -1 -450 356v359q0 123 92 212q123 116 368 116q441 0 441 -438q0 -107 -81 -107h-690zM239 606h641q0 289 -325 289q-120 0 -215 -53
q-101 -69 -101 -161v-75zM560 1283l-168 -133q-39 -31 -73 -31q-46 0 -46 46q0 26 31 61l164 183q40 45 93 45q50 0 90 -45l164 -183q32 -36 32 -59q0 -48 -47 -48q-34 0 -73 31z" />
    <glyph glyph-name="edieresis" unicode="&#xeb;" 
d="M239 478v-142q0 -229 326 -228q118 -1 194 25q38 13 134 74q61 54 78 54q54 0 54 -56q0 -58 -80 -122q-129 -104 -386 -103q-450 -1 -450 356v359q0 123 92 212q123 116 368 116q441 0 441 -438q0 -107 -81 -107h-690zM239 606h641q0 289 -325 289q-120 0 -215 -53
q-101 -69 -101 -161v-75zM409 1393q52 0 86 -36.5t34 -88.5t-35 -86.5t-87 -34.5q-53 0 -88.5 35t-35.5 88q0 52 37 87.5t89 35.5zM737 1393q51 0 85 -36.5t34 -88.5t-34.5 -86.5t-86.5 -34.5q-53 0 -88.5 35t-35.5 88q0 52 37 87.5t89 35.5z" />
    <glyph glyph-name="iacute" unicode="&#xed;" 
d="M519 128v747h-217q-97 0 -97 67q0 61 97 61h257q90 0 90 -82v-793h244q91 0 91 -65q0 -63 -84 -63h-679q-84 0 -84 63q0 65 84 65h298zM854 1367q0 -41 -73 -93l-176 -125q-45 -32 -72 -32q-48 0 -48 48q0 25 41 69l153 163q53 57 98 57q77 0 77 -87z" />
    <glyph glyph-name="igrave" unicode="&#xec;" 
d="M519 128v747h-217q-97 0 -97 67q0 61 97 61h257q90 0 90 -82v-793h244q91 0 91 -65q0 -63 -84 -63h-679q-84 0 -84 63q0 65 84 65h298zM195 1367q0 87 77 87q46 0 87 -45l169 -185q36 -39 36 -59q0 -48 -48 -48q-23 0 -70 32l-185 125q-66 45 -66 93z" />
    <glyph glyph-name="icircumflex" unicode="&#xee;" 
d="M519 128v747h-217q-97 0 -97 67q0 61 97 61h257q90 0 90 -82v-793h244q91 0 91 -65q0 -63 -84 -63h-679q-84 0 -84 63q0 65 84 65h298zM570 1283l-168 -133q-39 -31 -73 -31q-46 0 -46 46q0 26 31 61l164 183q40 45 93 45q50 0 90 -45l164 -183q32 -36 32 -59
q0 -48 -47 -48q-34 0 -73 31z" />
    <glyph glyph-name="idieresis" unicode="&#xef;" 
d="M519 128v747h-217q-97 0 -97 67q0 61 97 61h257q90 0 90 -82v-793h244q91 0 91 -65q0 -63 -84 -63h-679q-84 0 -84 63q0 65 84 65h298zM409 1393q52 0 86 -36.5t34 -88.5t-35 -86.5t-87 -34.5q-53 0 -88.5 35t-35.5 88q0 52 37 87.5t89 35.5zM737 1393q51 0 85 -36.5
t34 -88.5t-34.5 -86.5t-86.5 -34.5q-53 0 -88.5 35t-35.5 88q0 52 37 87.5t89 35.5z" />
    <glyph glyph-name="ntilde" unicode="&#xf1;" 
d="M253 900q99 72 170 96q68 27 183 27q404 0 404 -336v-617q0 -90 -66 -90q-63 0 -63 90v613q0 110 -66.5 161t-214.5 51q-108 0 -183 -38q-61 -27 -164 -104v-683q0 -90 -64 -90q-66 0 -66 90v876q0 77 62 77q34 0 50 -48q11 -38 18 -75zM470 1229q-16 0 -49.5 -41
t-68.5 -41q-52 0 -52 45q0 31 50 114q52 87 80 87q39 0 139.5 -41t130.5 -41q23 0 55.5 41t67.5 41q53 0 53 -44q0 -34 -48 -115q-51 -87 -83 -87q-44 0 -140 41t-135 41z" />
    <glyph glyph-name="oacute" unicode="&#xf3;" 
d="M109 317v368q0 338 451 338q450 0 450 -338v-368q0 -338 -444 -337q-457 -1 -457 337zM880 317v368q0 210 -327 210q-314 0 -314 -210v-368q0 -210 323 -209q318 -1 318 209zM744 1367q0 -41 -73 -93l-176 -125q-45 -32 -72 -32q-48 0 -48 48q0 25 41 69l153 163
q53 57 98 57q77 0 77 -87z" />
    <glyph glyph-name="ograve" unicode="&#xf2;" 
d="M109 317v368q0 338 451 338q450 0 450 -338v-368q0 -338 -444 -337q-457 -1 -457 337zM880 317v368q0 210 -327 210q-314 0 -314 -210v-368q0 -210 323 -209q318 -1 318 209zM375 1367q0 87 77 87q46 0 87 -45l169 -185q36 -39 36 -59q0 -48 -48 -48q-23 0 -70 32
l-185 125q-66 45 -66 93z" />
    <glyph glyph-name="ocircumflex" unicode="&#xf4;" 
d="M109 317v368q0 338 451 338q450 0 450 -338v-368q0 -338 -444 -337q-457 -1 -457 337zM880 317v368q0 210 -327 210q-314 0 -314 -210v-368q0 -210 323 -209q318 -1 318 209zM560 1283l-168 -133q-39 -31 -73 -31q-46 0 -46 46q0 26 31 61l164 183q40 45 93 45
q50 0 90 -45l164 -183q32 -36 32 -59q0 -48 -47 -48q-34 0 -73 31z" />
    <glyph glyph-name="odieresis" unicode="&#xf6;" 
d="M109 317v368q0 338 451 338q450 0 450 -338v-368q0 -338 -444 -337q-457 -1 -457 337zM880 317v368q0 210 -327 210q-314 0 -314 -210v-368q0 -210 323 -209q318 -1 318 209zM399 1393q52 0 86 -36.5t34 -88.5t-35 -86.5t-87 -34.5q-53 0 -88.5 35t-35.5 88q0 52 37 87.5
t89 35.5zM727 1393q51 0 85 -36.5t34 -88.5t-34.5 -86.5t-86.5 -34.5q-53 0 -88.5 35t-35.5 88q0 52 37 87.5t89 35.5z" />
    <glyph glyph-name="otilde" unicode="&#xf5;" 
d="M109 317v368q0 338 451 338q450 0 450 -338v-368q0 -338 -444 -337q-457 -1 -457 337zM880 317v368q0 210 -327 210q-314 0 -314 -210v-368q0 -210 323 -209q318 -1 318 209zM460 1229q-16 0 -49.5 -41t-68.5 -41q-52 0 -52 45q0 31 50 114q52 87 80 87q39 0 139.5 -41
t130.5 -41q23 0 55.5 41t67.5 41q53 0 53 -44q0 -34 -48 -115q-51 -87 -83 -87q-44 0 -140 41t-135 41z" />
    <glyph glyph-name="uacute" unicode="&#xfa;" 
d="M874 114q-100 -74 -172 -102q-84 -32 -198 -32q-187 0 -289 87q-106 92 -106 251v632q0 73 64 73q66 0 66 -73v-620q0 -119 74 -174q68 -50 217 -50q182 0 337 142v702q0 73 65 73q64 0 64 -73v-896q0 -74 -56 -74q-34 0 -50 53q-11 40 -16 81zM744 1367q0 -41 -73 -93
l-176 -125q-45 -32 -72 -32q-48 0 -48 48q0 25 41 69l153 163q53 57 98 57q77 0 77 -87z" />
    <glyph glyph-name="ugrave" unicode="&#xf9;" 
d="M874 114q-100 -74 -172 -102q-84 -32 -198 -32q-187 0 -289 87q-106 92 -106 251v632q0 73 64 73q66 0 66 -73v-620q0 -119 74 -174q68 -50 217 -50q182 0 337 142v702q0 73 65 73q64 0 64 -73v-896q0 -74 -56 -74q-34 0 -50 53q-11 40 -16 81zM375 1367q0 87 77 87
q46 0 87 -45l169 -185q36 -39 36 -59q0 -48 -48 -48q-23 0 -70 32l-185 125q-66 45 -66 93z" />
    <glyph glyph-name="ucircumflex" unicode="&#xfb;" 
d="M874 114q-100 -74 -172 -102q-84 -32 -198 -32q-187 0 -289 87q-106 92 -106 251v632q0 73 64 73q66 0 66 -73v-620q0 -119 74 -174q68 -50 217 -50q182 0 337 142v702q0 73 65 73q64 0 64 -73v-896q0 -74 -56 -74q-34 0 -50 53q-11 40 -16 81zM560 1283l-168 -133
q-39 -31 -73 -31q-46 0 -46 46q0 26 31 61l164 183q40 45 93 45q50 0 90 -45l164 -183q32 -36 32 -59q0 -48 -47 -48q-34 0 -73 31z" />
    <glyph glyph-name="udieresis" unicode="&#xfc;" 
d="M874 114q-100 -74 -172 -102q-84 -32 -198 -32q-187 0 -289 87q-106 92 -106 251v632q0 73 64 73q66 0 66 -73v-620q0 -119 74 -174q68 -50 217 -50q182 0 337 142v702q0 73 65 73q64 0 64 -73v-896q0 -74 -56 -74q-34 0 -50 53q-11 40 -16 81zM399 1393q52 0 86 -36.5
t34 -88.5t-35 -86.5t-87 -34.5q-53 0 -88.5 35t-35.5 88q0 52 37 87.5t89 35.5zM727 1393q51 0 85 -36.5t34 -88.5t-34.5 -86.5t-86.5 -34.5q-53 0 -88.5 35t-35.5 88q0 52 37 87.5t89 35.5z" />
    <glyph glyph-name="dagger" unicode="&#x2020;" 
d="M628 847h314q68 0 68 -66q0 -64 -68 -64h-314v-1066q0 -83 -68 -83q-69 0 -69 83v1066h-314q-68 0 -68 62q0 68 68 68h314v447q0 99 65 99q72 0 72 -99v-447z" />
    <glyph glyph-name="degree" unicode="&#xb0;" 
d="M552 915q-99 0 -165 69t-66 168q0 105 68 173t172 68q102 0 170 -66t68 -167q0 -106 -70.5 -175.5t-176.5 -69.5zM565 1023q54 0 90 38.5t36 93.5q0 56 -38.5 93t-94.5 37q-53 0 -91 -37t-38 -90q0 -57 39.5 -96t96.5 -39z" />
    <glyph glyph-name="cent" unicode="&#xa2;" 
d="M506 -27q-202 15 -282 90q-87 82 -87 248v374q0 307 369 338v175q0 85 72 85q64 0 64 -85v-175q129 -17 228 -92q114 -87 114 -208q0 -68 -63 -68q-41 0 -68 51q-46 87 -60 104q-53 61 -151 78v-785q102 6 141 25q23 11 72 69q41 49 70 49q59 0 59 -60q0 -70 -96 -144
q-81 -62 -246 -69v-181q0 -79 -70 -79q-66 0 -66 79v181zM506 104v785q-122 -13 -172 -55q-60 -50 -60 -156v-368q0 -95 54 -146q50 -48 178 -60z" />
    <glyph glyph-name="sterling" unicode="&#xa3;" 
d="M569 125q-38 -80 -80 -113q-50 -39 -132 -39q-106 0 -170 61t-64 165q0 91 59 155.5t150 64.5q33 0 74 -16l-74 284h-131q-78 0 -78 66t73 66h104q-22 78 -44 157q-24 94 -24 160q0 129 104 198q89 59 224 59q228 0 316 -126q66 -94 66 -181q0 -63 -67 -63q-40 0 -64 62
q-34 87 -60 114q-59 62 -182 62q-203 0 -203 -120q0 -68 26 -163q21 -80 43 -159h237q79 0 79 -67q0 -65 -79 -65h-202l97 -373q111 -114 125 -127q97 -86 153 -86q61 0 85.5 93t72.5 93q62 0 62 -66q0 -99 -53 -170q-59 -78 -155 -78q-144 0 -288 152zM449 194q0 39 -32 66
t-72 27q-39 0 -65.5 -27t-26.5 -66q0 -93 99 -93q42 0 69.5 26t27.5 67z" />
    <glyph glyph-name="section" unicode="&#xa7;" 
d="M819 21q83 -97 83 -192q0 -135 -107 -203q-90 -58 -233 -58q-139 0 -245 68q-122 80 -122 213q0 69 65 69q40 0 65 -58q34 -81 62 -107q60 -58 186 -58q74 0 130 29q70 36 70 103q0 68 -81 145l-497 472q-106 101 -106 215q0 97 66 169q42 46 149 111q-88 120 -88 189
q0 132 113 204q95 61 235 61q207 0 312 -145q47 -65 47 -126q0 -32 -17 -57q-20 -28 -51 -28q-40 0 -62 59q-32 83 -58 110q-56 59 -180 59q-79 0 -135 -26q-75 -35 -75 -104q0 -52 66 -115l520 -494q101 -96 101 -230q0 -93 -66 -165q-43 -47 -147 -110zM742 100
q77 48 108 79q52 53 52 119q0 74 -83 154l-428 410q-172 -92 -172 -196q0 -73 85 -153z" />
    <glyph glyph-name="bullet" unicode="&#x2022;" 
d="M328 702q0 103 65 164.5t169 61.5q100 0 165 -64.5t65 -164.5q0 -98 -67.5 -166.5t-165.5 -68.5q-105 0 -168 66t-63 172z" />
    <glyph glyph-name="paragraph" unicode="&#xb6;" 
d="M383 582q-160 13 -248 127q-80 106 -80 271q0 174 90 276q94 110 265 110h590q65 0 65 -69q0 -63 -65 -63h-98v-1184q0 -77 -69 -77q-68 0 -68 75v1186h-246v-1181q0 -80 -65 -80q-71 0 -71 82v527z" />
    <glyph glyph-name="germandbls" unicode="&#xdf;" 
d="M743 767q140 -50 201 -131q66 -85 66 -230q0 -186 -89 -300q-97 -126 -278 -126q-163 0 -249 110q-52 66 -52 121q0 67 64 67q38 0 64 -44q42 -71 53 -83q44 -44 125 -44q120 0 181 93q52 79 52 205q0 151 -92 221q-47 36 -180 69q-83 24 -83 64q0 47 84 65
q104 27 138 52q78 57 78 198q0 252 -289 252q-140 0 -207 -50q-77 -52 -77 -190v-1028q0 -79 -59 -79q-57 0 -57 79v1028q0 206 102 287q95 81 301 81q192 0 299 -87q117 -96 117 -283q0 -253 -213 -317z" />
    <glyph glyph-name="registered" unicode="&#xae;" 
d="M27 864q0 225 153.5 377t379.5 152q223 0 377 -148q155 -151 155 -373q0 -232 -146 -386q-148 -158 -379 -158q-240 0 -390 148t-150 388zM129 867q0 -193 119.5 -317t311.5 -124q188 0 309 125t121 314q0 183 -126.5 306t-310.5 123q-177 0 -300.5 -125t-123.5 -302z
M806 586q0 -38 -39 -38q-25 0 -42 29l-139 230h-155v-213q0 -46 -41 -46q-42 0 -42 46v532q0 45 42 45h227q170 0 170 -177q0 -72 -25 -109t-90 -60l125 -207q9 -15 9 -32zM704 994q0 96 -84 96h-189v-201h159q114 0 114 105z" />
    <glyph glyph-name="copyright" unicode="&#xa9;" 
d="M27 864q0 225 153.5 377t379.5 152q223 0 377 -148q155 -151 155 -373q0 -232 -146 -386q-148 -158 -379 -158q-240 0 -390 148t-150 388zM129 867q0 -193 119.5 -317t311.5 -124q188 0 309 125t121 314q0 183 -126.5 306t-310.5 123q-177 0 -300.5 -125t-123.5 -302z
M563 1184q84 0 142 -42q66 -48 66 -121q0 -48 -42 -48q-29 0 -40 36q-9 29 -17 48q-30 47 -117 47q-128 0 -128 -145v-183q0 -145 135 -145q109 0 125 74q13 57 42 57q42 0 42 -48q0 -81 -68 -126q-57 -39 -138 -39q-222 0 -222 201v225q0 209 220 209z" />
    <glyph glyph-name="trademark" unicode="&#x2122;" 
d="M9 1330q0 49 56 49h423q57 0 57 -48t-57 -48h-162v-577q0 -54 -49 -54q-50 0 -50 54v577h-167q-51 0 -51 47zM1043 1393q48 0 48 -60v-628q0 -53 -48 -53q-51 0 -51 62v417l-105 -245q-16 -39 -46 -39q-31 0 -48 38l-111 249v-429q0 -53 -50 -53t-50 57v623q0 61 52 61
q34 0 49 -36l159 -359l149 357q16 38 52 38z" />
    <glyph glyph-name="acute" unicode="&#xb4;" 
d="M744 1367q0 -41 -73 -93l-176 -125q-45 -32 -72 -32q-48 0 -48 48q0 25 41 69l153 163q53 57 98 57q77 0 77 -87z" />
    <glyph glyph-name="dieresis" unicode="&#xa8;" 
d="M399 1393q52 0 86 -36.5t34 -88.5t-35 -86.5t-87 -34.5q-53 0 -88.5 35t-35.5 88q0 52 37 87.5t89 35.5zM727 1393q51 0 85 -36.5t34 -88.5t-34.5 -86.5t-86.5 -34.5q-53 0 -88.5 35t-35.5 88q0 52 37 87.5t89 35.5z" />
    <glyph glyph-name="notequal" unicode="&#x2260;" 
d="M602 662h-415q-78 0 -78 65t74 65h492l123 176q38 55 76 55q54 0 54 -51q0 -35 -43 -95q-31 -44 -62 -85h114q73 0 73 -63q0 -30 -23.5 -48.5t-53.5 -18.5h-189l-180 -273h368q78 0 78 -63q0 -30 -23.5 -48.5t-53.5 -18.5h-455l-159 -230q-34 -49 -71 -49q-21 0 -39 16.5
t-18 37.5q0 28 63 114q39 59 79 111h-146q-78 0 -78 65t74 65h234z" />
    <glyph glyph-name="AE" unicode="&#xc6;" 
d="M251 369l-71 -339q-9 -58 -68 -58q-57 0 -57 71l200 1109q17 96 87 154t168 58h463q93 0 93 -64q0 -67 -88 -67h-294v-460h236q92 0 92 -62q0 -69 -98 -69h-230v-510h285q49 0 68 -9q29 -14 29 -57q0 -66 -96 -66h-351q-71 0 -71 72v297h-297zM270 500h278v733h-40
q-105 0 -128 -127z" />
    <glyph glyph-name="Oslash" unicode="&#xd8;" 
d="M881 1018l-587 -804q89 -110 267 -110q143 0 231 75q95 80 95 222v545q0 28 -6 72zM822 1154q-83 107 -276 107q-146 0 -230 -81.5t-84 -227.5v-551q0 -29 3 -60zM136 206q-41 79 -41 185v566q0 208 125 324q121 112 331 112q231 0 354 -123q27 37 55 75q41 48 73 48
q62 0 62 -54q0 -27 -47 -93q-33 -44 -67 -88q43 -76 43 -201v-566q0 -193 -136 -309q-128 -109 -324 -109q-213 0 -350 130l-52 -76q-37 -48 -72 -48q-63 0 -63 58q0 24 45 87z" />
    <glyph glyph-name="infinity" unicode="&#x221e;" 
d="M564 562q76 112 96 132q60 62 144 62q108 0 174 -85q60 -78 60 -189q0 -114 -56 -194q-63 -92 -172 -92q-84 0 -144 52q-39 34 -98 124q-110 -176 -241 -176q-112 0 -180 79q-65 74 -65 188q0 119 58 200q66 92 180 92q141 0 244 -193zM512 470q-57 93 -77 118
q-58 72 -111 72q-67 0 -103 -63q-30 -52 -30 -125t30 -122q35 -58 104 -58q103 0 187 178zM623 472q105 -180 184 -180q64 0 97 71q25 55 25 127q0 63 -26 113q-33 60 -91 60q-51 0 -110 -73q-16 -19 -79 -118z" />
    <glyph glyph-name="plusminus" unicode="&#xb1;" 
d="M495 751v308q0 78 64 78q65 0 65 -74v-312h308q78 0 78 -63q0 -30 -23.5 -48.5t-53.5 -18.5h-309v-308q0 -78 -62 -78q-30 0 -48.5 23.5t-18.5 53.5v309h-308q-78 0 -78 65t74 65h312zM183 130h749q78 0 78 -63q0 -30 -23.5 -48.5t-53.5 -18.5h-746q-78 0 -78 64
q0 66 74 66z" />
    <glyph glyph-name="lessequal" unicode="&#x2264;" 
d="M268 686l700 -335q44 -21 44 -60q0 -56 -50 -56q-22 0 -81 29l-703 348q-69 34 -69 77q0 40 74 77l703 347q49 24 72 24q55 0 55 -56q0 -43 -47 -65zM183 130h749q78 0 78 -63q0 -30 -23.5 -48.5t-53.5 -18.5h-746q-78 0 -78 64q0 66 74 66z" />
    <glyph glyph-name="greaterequal" unicode="&#x2265;" 
d="M854 686l-700 335q-42 20 -42 60q0 22 16 39t38 17q19 0 75 -28l703 -349q69 -34 69 -76q0 -41 -74 -78l-703 -347q-49 -24 -72 -24q-55 0 -55 57q0 42 47 64zM186 130h749q78 0 78 -63q0 -30 -23.5 -48.5t-53.5 -18.5h-746q-78 0 -78 64q0 66 74 66z" />
    <glyph glyph-name="yen" unicode="&#xa5;" 
d="M628 407h255q73 0 73 -64q0 -67 -78 -67h-250v-230q0 -73 -70 -73q-66 0 -66 73v230h-254q-74 0 -74 66q0 65 74 65h254v116h-254q-74 0 -74 66q0 65 74 65h234l-358 632q-18 32 -18 52q0 55 62 55q41 0 61 -37l321 -572l337 556q29 53 65 53q62 0 62 -59q0 -25 -17 -55
l-379 -625h275q73 0 73 -64q0 -67 -78 -67h-250v-116z" />
    <glyph glyph-name="partialdiff" unicode="&#x2202;" 
d="M494 852l-176 104q-80 53 -113 115q-41 75 -41 203q0 119 74 119q44 0 54 -61q1 -10 1 -95q0 -112 90 -187q31 -25 188 -111l123 -67q173 -87 216 -159q87 -98 87 -257q0 -211 -111 -339q-117 -137 -324 -137q-204 0 -321.5 120.5t-117.5 324.5q0 177 96 294
q101 123 275 133zM253 441q0 -153 77 -244q82 -96 232 -96q152 0 232 103q73 93 73 249q0 140 -78 225q-81 87 -220 87q-145 0 -230.5 -89.5t-85.5 -234.5z" />
    <glyph glyph-name="summation" unicode="&#x2211;" 
d="M322 1262l349 -545l-378 -585h648q71 0 71 -68q0 -64 -71 -64h-757q-75 0 -75 49q0 26 34 79l378 589l-350 549q-33 52 -33 69q0 31 33 31h725q62 0 62 -53q0 -51 -66 -51h-570z" />
    <glyph glyph-name="product" unicode="&#x220f;" 
d="M246 1262h-85q-52 9 -52 53q0 51 67 51h772q62 0 62 -52q0 -45 -51 -52q1 0 -85 0v-1221q0 -68 -68 -68q-69 0 -69 68v1221h-355v-1218q0 -71 -69 -71q-67 0 -67 71v1218z" />
    <glyph glyph-name="integral" unicode="&#x222b;" 
d="M810 1393q77 0 77 -61q0 -46 -89 -58q-102 -14 -132.5 -69.5t-30.5 -224.5v-979q0 -224 -52 -312q-66 -121 -275 -121q-76 0 -76 58q0 48 94 62q109 16 141 71.5t32 232.5v991q0 208 54 296q64 114 257 114z" />
    <glyph glyph-name="ordfeminine" unicode="&#xaa;" 
d="M304 1008q0 86 69 135q59 41 145 41q62 0 137 -24v74q0 64 -128 64q-112 0 -123 -57q-11 -63 -49 -63q-51 0 -51 53q0 56 43 103q55 59 185 59q219 0 219 -182v-229q0 -42 32.5 -52.5t32.5 -43.5q0 -46 -45 -46q-37 0 -80 25q-17 10 -25 26q-73 -51 -154 -51
q-85 0 -141 37q-67 45 -67 131zM529 1090q-129 0 -129 -79q0 -76 115 -76q68 0 140 57v77q-67 21 -126 21z" />
    <glyph glyph-name="ordmasculine" unicode="&#xba;" 
d="M560 1393q241 0 241 -184v-179q0 -190 -238 -190q-244 0 -244 190v179q0 184 241 184zM557 1298q-142 0 -142 -89v-179q0 -95 146 -95q144 0 144 95v179q0 89 -148 89z" />
    <glyph glyph-name="ae" unicode="&#xe6;" 
d="M492 438q-88 40 -164 40q-80 0 -123 -57q-40 -51 -40 -133q0 -74 34 -124q38 -57 109 -57q92 0 184 143v188zM545 126q-73 -79 -112 -104q-63 -43 -144 -43q-123 0 -192 94q-62 84 -62 212q0 138 69 226q75 97 209 97q96 0 179 -40v168q0 71 -41 115t-111 44
q-98 0 -141 -62q-17 -24 -44 -116q-19 -62 -57 -62q-64 0 -64 98q0 120 94 198q89 72 212 72q85 0 137 -31q47 -28 98 -102q47 72 87 100q49 33 127 33q284 0 284 -431q0 -114 -82 -114h-369v-130q0 -241 170 -241q73 0 141 77t100 77q54 0 54 -55q0 -48 -72 -124
q-98 -103 -228 -103q-150 0 -242 147zM622 606h321q0 289 -166 289q-155 0 -155 -236v-53z" />
    <glyph glyph-name="oslash" unicode="&#xf8;" 
d="M313 161q109 -54 257 -54q311 0 311 210v368q0 29 -6 52zM807 840q-100 55 -251 55q-317 0 -317 -210v-358q0 -36 13 -64zM223 68q-86 -89 -115 -89q-28 0 -40.5 11.5t-12.5 44.5q0 28 37 68l58 56q-40 71 -40 158v368q0 338 460 338q209 0 328 -90q71 90 124 90
q43 0 43 -54q0 -41 -88 -126q34 -60 34 -158v-368q0 -337 -446 -337q-230 0 -342 88z" />
    <glyph glyph-name="questiondown" unicode="&#xbf;" 
d="M265 -85q0 -102 109 -165q93 -54 203 -54q101 0 179 42q90 50 109 141l9 44q9 46 61 46q62 0 62 -64q0 -88 -77 -185q-121 -152 -354 -152q-176 0 -302 90q-141 101 -141 270q0 85 57 145q32 35 123 91t126 96q20 24 46 130q20 79 72 79q65 0 65 -81q0 -125 -90 -211
q-83 -61 -167 -122q-90 -65 -90 -140zM558 777q-55 0 -88 35.5t-33 91.5q0 119 120 119q126 0 126 -122q0 -56 -34.5 -90t-90.5 -34z" />
    <glyph glyph-name="exclamdown" unicode="&#xa1;" 
d="M669 -335q4 -97 -112 -97q-40 0 -71 22q-35 24 -35 62q0 5 2 33l49 625q5 63 57 63q48 0 54 -63zM558 777q-55 0 -88 35.5t-33 91.5q0 119 120 119q126 0 126 -122q0 -56 -34.5 -90t-90.5 -34z" />
    <glyph glyph-name="logicalnot" unicode="&#xac;" 
d="M880 457h-693q-78 0 -78 65t74 65h749q78 0 78 -63v-374q0 -78 -63 -78q-67 0 -67 76v309z" />
    <glyph glyph-name="radical" unicode="&#x221a;" 
d="M444 151l410 1228q18 55 74 55h208q52 0 52 -50q0 -51 -52 -51h-180l-446 -1333h-144l-211 617q-88 0 -80 -1q-48 7 -48 49q0 48 52 48h139q26 0 39 -36z" />
    <glyph glyph-name="florin" unicode="&#x192;" 
d="M491 655q55 313 55 296q41 205 115 307q98 135 260 135q60 0 104 -23q57 -28 57 -82q0 -60 -58 -60q-7 0 -46 18.5t-75 18.5q-177 0 -233 -347l-50 -263h188q79 0 79 -65q0 -64 -79 -64h-215l-86 -486q-34 -191 -120 -315q-110 -157 -280 -157q-107 0 -107 68q0 52 94 61
q121 13 158 43q88 72 131 321l81 465h-210q-64 0 -64 63q0 66 64 66h237z" />
    <glyph glyph-name="approxequal" unicode="&#x2248;" 
d="M716 723q52 0 104 75t75 75q48 0 48 -50q0 -58 -84 -145t-146 -87q-45 0 -172 75t-154 75q-31 0 -83.5 -75t-79.5 -75q-47 0 -47 50q0 46 74 139t118 93q49 0 172.5 -75t174.5 -75zM716 373q52 0 104 75t75 75q48 0 48 -50q0 -58 -84 -145t-146 -87q-45 0 -172 75
t-154 75q-31 0 -83.5 -75t-79.5 -75q-47 0 -47 50q0 46 74 139t118 93q49 0 172.5 -75t174.5 -75z" />
    <glyph glyph-name="approxequal" unicode="&#x22f2;" 
d="M716 723q52 0 104 75t75 75q48 0 48 -50q0 -58 -84 -145t-146 -87q-45 0 -172 75t-154 75q-31 0 -83.5 -75t-79.5 -75q-47 0 -47 50q0 46 74 139t118 93q49 0 172.5 -75t174.5 -75zM716 373q52 0 104 75t75 75q48 0 48 -50q0 -58 -84 -145t-146 -87q-45 0 -172 75
t-154 75q-31 0 -83.5 -75t-79.5 -75q-47 0 -47 50q0 46 74 139t118 93q49 0 172.5 -75t174.5 -75z" />
    <glyph glyph-name="Delta" unicode="&#x394;" 
d="M993 0h-884q-54 0 -54 66l440 1299q24 72 85 72q57 0 80 -74l406 -1297q0 -66 -73 -66zM192 132h706l-340 1123z" />
    <glyph glyph-name="Delta" unicode="&#x2206;" 
d="M993 0h-884q-54 0 -54 66l440 1299q24 72 85 72q57 0 80 -74l406 -1297q0 -66 -73 -66zM192 132h706l-340 1123z" />
    <glyph glyph-name="guillemotleft" unicode="&#xab;" 
d="M249 660l530 530q34 31 34 70q0 60 -54 60q-38 0 -76 -36l-564 -564q-36 -35 -36 -60t36 -60l564 -564q35 -36 76 -36q54 0 54 60q0 39 -34 70zM612 660l378 378q33 30 33 61q0 61 -60 61q-30 0 -64 -34l-406 -406q-36 -35 -36 -60t36 -60l406 -406q31 -34 64 -34
q60 0 60 51q0 38 -33 71z" />
    <glyph glyph-name="guillemotright" unicode="&#xbb;" 
d="M874 660l-530 530q-34 31 -34 70q0 60 54 60q38 0 76 -36l564 -564q36 -35 36 -60t-36 -60l-564 -564q-35 -36 -76 -36q-54 0 -54 60q0 39 34 70zM511 660l-378 378q-33 30 -33 61q0 61 60 61q30 0 64 -34l406 -406q36 -35 36 -60t-36 -60l-406 -406q-31 -34 -64 -34
q-60 0 -60 51q0 38 33 71z" />
    <glyph glyph-name="ellipsis" unicode="&#x2026;" 
d="M177 219q121 0 121 -123t-121 -123q-125 0 -125 123t125 123zM562 219q121 0 121 -123t-121 -123q-125 0 -125 123t125 123zM947 219q121 0 121 -123t-121 -123q-125 0 -125 123t125 123z" />
    <glyph glyph-name="nonbreakingspace" unicode="&#xa0;" 
 />
    <glyph glyph-name="Agrave" unicode="&#xc0;" 
d="M828 396h-542l-77 -383q-8 -40 -59 -40q-71 0 -67 56q3 39 103 539q92 456 125 597q47 228 250 228t250 -228l124 -586q105 -500 105 -539q0 -68 -71 -68q-56 0 -66 49zM309 528h493l-111 563q-33 170 -137 170q-62 0 -94 -47q-26 -39 -44 -133zM275 1697q0 87 77 87
q46 0 87 -45l169 -185q36 -39 36 -59q0 -48 -48 -48q-23 0 -70 32l-185 125q-66 45 -66 93z" />
    <glyph glyph-name="Atilde" unicode="&#xc3;" 
d="M828 396h-542l-77 -383q-8 -40 -59 -40q-71 0 -67 56q3 39 103 539q92 456 125 597q47 228 250 228t250 -228l124 -586q105 -500 105 -539q0 -68 -71 -68q-56 0 -66 49zM309 528h493l-111 563q-33 170 -137 170q-62 0 -94 -47q-26 -39 -44 -133zM460 1559
q-16 0 -49.5 -41t-68.5 -41q-52 0 -52 45q0 31 50 114q52 87 80 87q39 0 139.5 -41t130.5 -41q23 0 55.5 41t67.5 41q53 0 53 -44q0 -34 -48 -115q-51 -87 -83 -87q-44 0 -140 41t-135 41z" />
    <glyph glyph-name="Otilde" unicode="&#xd5;" 
d="M96 391v566q0 217 133 330q124 106 345 106q212 0 330 -111q120 -114 120 -325v-566q0 -205 -131 -315q-122 -103 -331 -103t-333 103q-133 110 -133 315zM888 401v545q0 315 -339 315q-147 0 -231.5 -81t-84.5 -228v-551q0 -144 94 -223q87 -74 234 -74q327 0 327 297z
M470 1559q-16 0 -49.5 -41t-68.5 -41q-52 0 -52 45q0 31 50 114q52 87 80 87q39 0 139.5 -41t130.5 -41q23 0 55.5 41t67.5 41q53 0 53 -44q0 -34 -48 -115q-51 -87 -83 -87q-44 0 -140 41t-135 41z" />
    <glyph glyph-name="OE" unicode="&#x152;" 
d="M1065 1302q0 -67 -88 -67h-280v-462h222q92 0 92 -62q0 -69 -98 -69h-216v-510h271q97 0 97 -66t-96 -66h-409q-22 0 -67.5 -7t-68.5 -7q-328 0 -328 405v566q0 204 54 298q72 124 261 124q25 0 75 -6.5t74 -6.5h412q93 0 93 -64zM560 1235q-79 12 -132 12
q-107 0 -148 -53q-47 -43 -47 -242v-551q0 -283 198 -283q48 0 129 14v1103z" />
    <glyph glyph-name="oe" unicode="&#x153;" 
d="M563 90q-53 -61 -101 -84q-57 -26 -138 -26q-297 0 -297 347v358q0 338 301 338q91 0 148 -30t87 -105q89 135 230 135q286 0 286 -431q0 -114 -82 -114h-369v-130q0 -241 170 -241q75 0 141 77t100 77q54 0 54 -55q0 -48 -73 -124q-99 -102 -230 -102q-130 0 -227 110z
M498 327v358q0 210 -177 210q-164 0 -164 -210v-358q0 -220 180 -220q161 0 161 220zM628 606h321q0 289 -166 289q-155 0 -155 -236v-53z" />
    <glyph glyph-name="endash" unicode="&#x2013;" 
d="M238 587h640q78 0 78 -64q0 -66 -77 -66h-636q-79 0 -79 66q0 64 74 64z" />
    <glyph glyph-name="emdash" unicode="&#x2014;" 
d="M-8 587h1132q77 0 77 -64q0 -66 -76 -66h-1129q-78 0 -78 66q0 64 74 64z" />
    <glyph glyph-name="quotedblleft" unicode="&#x201c;" 
d="M493 1084q0 -45 -34.5 -73t-81.5 -28q-62 0 -96 41t-34 104q0 77 65 168q68 97 138 97q43 0 43 -41q0 -17 -51.5 -60.5t-51.5 -77.5q0 -20 51.5 -55t51.5 -75zM873 1084q0 -45 -34.5 -73t-81.5 -28q-62 0 -96 41t-34 104q0 77 65 168q68 97 138 97q43 0 43 -41
q0 -17 -51.5 -60.5t-51.5 -77.5q0 -20 51.5 -55t51.5 -75z" />
    <glyph glyph-name="quotedblright" unicode="&#x201d;" 
d="M248 1291q0 46 34.5 74t81.5 28q62 0 96 -41t34 -104q0 -96 -61 -179q-64 -86 -142 -86q-43 0 -43 41q0 18 51.5 61.5t51.5 76.5q0 20 -51.5 55t-51.5 74zM626 1291q0 46 34.5 74t81.5 28q62 0 96 -41t34 -104q0 -96 -61 -179q-64 -86 -142 -86q-43 0 -43 41
q0 18 51.5 61.5t51.5 76.5q0 20 -51.5 55t-51.5 74z" />
    <glyph glyph-name="quoteleft" unicode="&#x2018;" 
d="M683 1084q0 -45 -34.5 -73t-81.5 -28q-62 0 -96 41t-34 104q0 77 65 168q68 97 138 97q43 0 43 -41q0 -17 -51.5 -60.5t-51.5 -77.5q0 -20 51.5 -55t51.5 -75z" />
    <glyph glyph-name="quoteright" unicode="&#x2019;" 
d="M437 1291q0 46 34.5 74t81.5 28q62 0 96 -41t34 -104q0 -96 -61 -179q-64 -86 -142 -86q-43 0 -43 41q0 18 51.5 61.5t51.5 76.5q0 20 -51.5 55t-51.5 74z" />
    <glyph glyph-name="divide" unicode="&#xf7;" 
d="M183 587h749q78 0 78 -63q0 -30 -23.5 -48.5t-53.5 -18.5h-746q-78 0 -78 65t74 65zM561 973q54 0 87.5 -33.5t33.5 -88.5q0 -118 -120 -118q-125 0 -125 123q0 117 124 117zM561 311q54 0 87.5 -33.5t33.5 -87.5q0 -118 -120 -118q-125 0 -125 122q0 117 124 117z" />
    <glyph glyph-name="lozenge" unicode="&#x25ca;" 
d="M27 698q0 23 16 44l479 620q24 31 39 31t34 -25l487 -628q10 -13 10 -43t-10 -43l-487 -653q-21 -28 -38 -28q-13 0 -24 15l-490 664q-16 22 -16 46zM559 1221l-401 -524l401 -554l405 554z" />
    <glyph glyph-name="ydieresis" unicode="&#xff;" 
d="M487 36l-363 868q-15 36 -15 57q0 62 66 62q40 0 61 -49l327 -767l304 737q28 79 81 79q62 0 62 -53q0 -23 -17 -64l-495 -1190q-62 -148 -212 -148q-63 0 -111 19q-66 27 -66 80q0 61 62 61q14 0 48 -16t65 -16q68 0 104 91zM399 1393q52 0 86 -36.5t34 -88.5t-35 -86.5
t-87 -34.5q-53 0 -88.5 35t-35.5 88q0 52 37 87.5t89 35.5zM727 1393q51 0 85 -36.5t34 -88.5t-34.5 -86.5t-86.5 -34.5q-53 0 -88.5 35t-35.5 88q0 52 37 87.5t89 35.5z" />
    <glyph glyph-name="Ydieresis" unicode="&#x178;" 
d="M492 587l-379 693q-17 31 -17 54q0 59 61 59q40 0 65 -46l338 -623l335 618q28 51 67 51q63 0 63 -49q0 -23 -20 -60l-377 -705v-531q0 -75 -68 -75t-68 75v539zM399 1723q52 0 86 -36.5t34 -88.5t-35 -86.5t-87 -34.5q-53 0 -88.5 35t-35.5 88q0 52 37 87.5t89 35.5z
M727 1723q51 0 85 -36.5t34 -88.5t-34.5 -86.5t-86.5 -34.5q-53 0 -88.5 35t-35.5 88q0 52 37 87.5t89 35.5z" />
    <glyph glyph-name="fraction" unicode="&#x2044;" 
d="M989 1393q49 0 49 -50q0 -29 -34 -82l-795 -1239q-28 -49 -74 -49q-52 0 -53 52q0 26 25 64l791 1233q36 71 91 71z" />
    <glyph glyph-name="currency" unicode="&#xa4;" horiz-adv-x="1120" 
d="M572 367q95 0 151 61t56 157q0 98 -61.5 158.5t-159.5 60.5q-92 0 -154 -59t-62 -151q0 -101 64.5 -164t165.5 -63zM261 785l-104 114q-33 36 -33 70q0 54 55 54q35 0 60 -28l108 -123q96 69 214 69q108 0 196 -57l117 106q36 33 70 33q55 0 55 -55q0 -34 -29 -60
l-121 -107q67 -96 67 -218q0 -106 -57 -193l106 -117q33 -36 33 -70q0 -55 -55 -55q-34 0 -60 29l-107 120q-97 -66 -218 -66q-105 0 -197 54l-113 -103q-36 -33 -70 -33q-55 0 -55 55q0 34 29 60l122 108q-68 90 -68 215q0 103 55 198z" />
    <glyph glyph-name="guilsinglleft" unicode="&#x2039;" 
d="M361 660l530 530q34 31 34 70q0 60 -54 60q-38 0 -76 -36l-564 -564q-36 -35 -36 -60t36 -60l564 -564q35 -36 76 -36q54 0 54 60q0 39 -34 70z" />
    <glyph glyph-name="guilsinglright" unicode="&#x203a;" 
d="M762 660l-530 530q-34 31 -34 70q0 60 54 60q38 0 76 -36l564 -564q36 -35 36 -60t-36 -60l-564 -564q-35 -36 -76 -36q-54 0 -54 60q0 39 34 70z" />
    <glyph glyph-name="fi" unicode="&#xf001;" 
d="M362 875v-820q0 -75 -65 -75t-65 75v820h-142q-76 0 -76 65q0 63 76 63h142v116q0 335 333 335q134 0 224 -51q113 -62 113 -198q0 -84 -66 -84q-46 0 -62 50q-25 73 -46 106q-50 50 -177 50q-189 0 -189 -225v-99h466q74 0 74 -66v-809h115q89 0 89 -64t-84 -64h-412
q-84 0 -84 62q0 66 84 66h162v747h-410z" />
    <glyph glyph-name="fl" unicode="&#xf002;" 
d="M902 128h130q74 0 74 -65q0 -63 -74 -63h-423q-83 0 -83 63q0 65 83 65h163v993q0 205 -208 205q-202 0 -202 -220v-103h193q85 0 85 -62q0 -66 -85 -66h-193v-820q0 -75 -65 -75t-65 75v820h-142q-76 0 -76 65q0 63 76 63h142v113q0 338 331 338q339 0 339 -320v-1006z
" />
    <glyph glyph-name="daggerdbl" unicode="&#x2021;" 
d="M628 257h314q68 0 68 -65q0 -64 -68 -64h-314v-477q0 -83 -68 -83q-69 0 -69 83v477h-314q-68 0 -68 62q0 67 68 67h314v460h-314q-68 0 -68 62q0 68 68 68h314v447q0 99 65 99q72 0 72 -99v-447h314q68 0 68 -66q0 -64 -68 -64h-314v-460z" />
    <glyph glyph-name="periodcentered" unicode="&#xb7;" 
d="M562 719q121 0 121 -123t-121 -123q-125 0 -125 123t125 123z" />
    <glyph glyph-name="periodcentered" unicode="&#x2219;" 
d="M562 719q121 0 121 -123t-121 -123q-125 0 -125 123t125 123z" />
    <glyph glyph-name="quotesinglbase" unicode="&#x201a;" 
d="M396 116q0 46 34.5 74t81.5 28q62 0 96 -41t34 -104q0 -96 -61 -179q-64 -86 -142 -86q-43 0 -43 41q0 18 51.5 61.5t51.5 76.5q0 20 -51.5 55t-51.5 74z" />
    <glyph glyph-name="quotedblbase" unicode="&#x201e;" 
d="M248 116q0 46 34.5 74t81.5 28q62 0 96 -41t34 -104q0 -96 -61 -179q-64 -86 -142 -86q-43 0 -43 41q0 18 51.5 61.5t51.5 76.5q0 20 -51.5 55t-51.5 74zM626 116q0 46 34.5 74t81.5 28q62 0 96 -41t34 -104q0 -96 -61 -179q-64 -86 -142 -86q-43 0 -43 41
q0 18 51.5 61.5t51.5 76.5q0 20 -51.5 55t-51.5 74z" />
    <glyph glyph-name="perthousand" unicode="&#x2030;" 
d="M1008 880q25 0 44.5 -17.5t19.5 -42.5q0 -51 -95 -68l-827 -152q-33 -6 -42 -6q-24 0 -42 17.5t-18 41.5q0 51 78 65l819 151q60 11 63 11zM529 1158v-132q0 -228 -238 -228q-112 0 -176 59t-64 169v132q0 110 64 172.5t176 62.5t175 -63t63 -172zM151 1158v-132
q0 -56 41 -93.5t100 -37.5q60 0 98.5 36t38.5 95v132q0 59 -41.5 98t-101.5 39t-97.5 -37.5t-37.5 -99.5zM529 333v-132q0 -228 -238 -228q-112 0 -176 59t-64 169v132q0 110 64 172.5t176 62.5t175 -63t63 -172zM151 333v-132q0 -57 41 -94t100 -37q60 0 98.5 35.5
t38.5 95.5v132q0 59 -41.5 98t-101.5 39t-97.5 -37.5t-37.5 -99.5zM1069 333v-132q0 -228 -238 -228q-112 0 -176 59t-64 169v132q0 110 64 172.5t176 62.5t175 -63t63 -172zM691 333v-132q0 -57 41 -94t100 -37q60 0 98.5 35.5t38.5 95.5v132q0 59 -41.5 98t-101.5 39
t-97.5 -37.5t-37.5 -99.5z" />
    <glyph glyph-name="Acircumflex" unicode="&#xc2;" 
d="M828 396h-542l-77 -383q-8 -40 -59 -40q-71 0 -67 56q3 39 103 539q92 456 125 597q47 228 250 228t250 -228l124 -586q105 -500 105 -539q0 -68 -71 -68q-56 0 -66 49zM309 528h493l-111 563q-33 170 -137 170q-62 0 -94 -47q-26 -39 -44 -133zM560 1613l-168 -133
q-39 -31 -73 -31q-46 0 -46 46q0 26 31 61l164 183q40 45 93 45q50 0 90 -45l164 -183q32 -36 32 -59q0 -48 -47 -48q-34 0 -73 31z" />
    <glyph glyph-name="Ecircumflex" unicode="&#xca;" 
d="M246 1235v-462h478q95 0 95 -61q0 -70 -95 -70h-478v-510h669q95 0 95 -62q0 -70 -95 -70h-721q-85 0 -85 83v1205q0 34 25 56t60 22h720q96 0 96 -61q0 -70 -96 -70h-668zM570 1613l-168 -133q-39 -31 -73 -31q-46 0 -46 46q0 26 31 61l164 183q40 45 93 45q50 0 90 -45
l164 -183q32 -36 32 -59q0 -48 -47 -48q-34 0 -73 31z" />
    <glyph glyph-name="Aacute" unicode="&#xc1;" 
d="M828 396h-542l-77 -383q-8 -40 -59 -40q-71 0 -67 56q3 39 103 539q92 456 125 597q47 228 250 228t250 -228l124 -586q105 -500 105 -539q0 -68 -71 -68q-56 0 -66 49zM309 528h493l-111 563q-33 170 -137 170q-62 0 -94 -47q-26 -39 -44 -133zM844 1697q0 -41 -73 -93
l-176 -125q-45 -32 -72 -32q-48 0 -48 48q0 25 41 69l153 163q53 57 98 57q77 0 77 -87z" />
    <glyph glyph-name="Edieresis" unicode="&#xcb;" 
d="M246 1235v-462h478q95 0 95 -61q0 -70 -95 -70h-478v-510h669q95 0 95 -62q0 -70 -95 -70h-721q-85 0 -85 83v1205q0 34 25 56t60 22h720q96 0 96 -61q0 -70 -96 -70h-668zM399 1723q52 0 86 -36.5t34 -88.5t-35 -86.5t-87 -34.5q-53 0 -88.5 35t-35.5 88q0 52 37 87.5
t89 35.5zM727 1723q51 0 85 -36.5t34 -88.5t-34.5 -86.5t-86.5 -34.5q-53 0 -88.5 35t-35.5 88q0 52 37 87.5t89 35.5z" />
    <glyph glyph-name="Egrave" unicode="&#xc8;" 
d="M246 1235v-462h478q95 0 95 -61q0 -70 -95 -70h-478v-510h669q95 0 95 -62q0 -70 -95 -70h-721q-85 0 -85 83v1205q0 34 25 56t60 22h720q96 0 96 -61q0 -70 -96 -70h-668zM375 1697q0 87 77 87q46 0 87 -45l169 -185q36 -39 36 -59q0 -48 -48 -48q-23 0 -70 32l-185 125
q-66 45 -66 93z" />
    <glyph glyph-name="Iacute" unicode="&#xcd;" 
d="M493 132v1102h-242q-86 0 -86 66t77 66h635q80 0 80 -63q0 -69 -80 -69h-248v-1102h237q91 0 91 -66t-91 -66h-626q-75 0 -75 63q0 69 75 69h253zM884 1697q0 -41 -73 -93l-176 -125q-45 -32 -72 -32q-48 0 -48 48q0 25 41 69l153 163q53 57 98 57q77 0 77 -87z" />
    <glyph glyph-name="Icircumflex" unicode="&#xce;" 
d="M493 132v1102h-242q-86 0 -86 66t77 66h635q80 0 80 -63q0 -69 -80 -69h-248v-1102h237q91 0 91 -66t-91 -66h-626q-75 0 -75 63q0 69 75 69h253zM560 1613l-168 -133q-39 -31 -73 -31q-46 0 -46 46q0 26 31 61l164 183q40 45 93 45q50 0 90 -45l164 -183q32 -36 32 -59
q0 -48 -47 -48q-34 0 -73 31z" />
    <glyph glyph-name="Idieresis" unicode="&#xcf;" 
d="M493 132v1102h-242q-86 0 -86 66t77 66h635q80 0 80 -63q0 -69 -80 -69h-248v-1102h237q91 0 91 -66t-91 -66h-626q-75 0 -75 63q0 69 75 69h253zM399 1723q52 0 86 -36.5t34 -88.5t-35 -86.5t-87 -34.5q-53 0 -88.5 35t-35.5 88q0 52 37 87.5t89 35.5zM727 1723
q51 0 85 -36.5t34 -88.5t-34.5 -86.5t-86.5 -34.5q-53 0 -88.5 35t-35.5 88q0 52 37 87.5t89 35.5z" />
    <glyph glyph-name="Igrave" unicode="&#xcc;" 
d="M493 132v1102h-242q-86 0 -86 66t77 66h635q80 0 80 -63q0 -69 -80 -69h-248v-1102h237q91 0 91 -66t-91 -66h-626q-75 0 -75 63q0 69 75 69h253zM275 1697q0 87 77 87q46 0 87 -45l169 -185q36 -39 36 -59q0 -48 -48 -48q-23 0 -70 32l-185 125q-66 45 -66 93z" />
    <glyph glyph-name="Oacute" unicode="&#xd3;" 
d="M96 391v566q0 217 133 330q124 106 345 106q212 0 330 -111q120 -114 120 -325v-566q0 -205 -131 -315q-122 -103 -331 -103t-333 103q-133 110 -133 315zM888 401v545q0 315 -339 315q-147 0 -231.5 -81t-84.5 -228v-551q0 -144 94 -223q87 -74 234 -74q327 0 327 297z
M784 1697q0 -41 -73 -93l-176 -125q-45 -32 -72 -32q-48 0 -48 48q0 25 41 69l153 163q53 57 98 57q77 0 77 -87z" />
    <glyph glyph-name="Ocircumflex" unicode="&#xd4;" 
d="M96 391v566q0 217 133 330q124 106 345 106q212 0 330 -111q120 -114 120 -325v-566q0 -205 -131 -315q-122 -103 -331 -103t-333 103q-133 110 -133 315zM888 401v545q0 315 -339 315q-147 0 -231.5 -81t-84.5 -228v-551q0 -144 94 -223q87 -74 234 -74q327 0 327 297z
M560 1613l-168 -133q-39 -31 -73 -31q-46 0 -46 46q0 26 31 61l164 183q40 45 93 45q50 0 90 -45l164 -183q32 -36 32 -59q0 -48 -47 -48q-34 0 -73 31z" />
    <glyph glyph-name="Ograve" unicode="&#xd2;" 
d="M96 391v566q0 217 133 330q124 106 345 106q212 0 330 -111q120 -114 120 -325v-566q0 -205 -131 -315q-122 -103 -331 -103t-333 103q-133 110 -133 315zM888 401v545q0 315 -339 315q-147 0 -231.5 -81t-84.5 -228v-551q0 -144 94 -223q87 -74 234 -74q327 0 327 297z
M375 1697q0 87 77 87q46 0 87 -45l169 -185q36 -39 36 -59q0 -48 -48 -48q-23 0 -70 32l-185 125q-66 45 -66 93z" />
    <glyph glyph-name="Uacute" unicode="&#xda;" 
d="M102 397v908q0 88 66 88q71 0 71 -88v-906q0 -146 99 -224q90 -71 240 -71q302 0 302 295v904q0 90 67 90q70 0 70 -90v-906q0 -207 -119 -317q-115 -107 -324 -107q-207 0 -335 107q-137 114 -137 317zM774 1697q0 -41 -73 -93l-176 -125q-45 -32 -72 -32q-48 0 -48 48
q0 25 41 69l153 163q53 57 98 57q77 0 77 -87z" />
    <glyph glyph-name="Ucircumflex" unicode="&#xdb;" 
d="M102 397v908q0 88 66 88q71 0 71 -88v-906q0 -146 99 -224q90 -71 240 -71q302 0 302 295v904q0 90 67 90q70 0 70 -90v-906q0 -207 -119 -317q-115 -107 -324 -107q-207 0 -335 107q-137 114 -137 317zM560 1613l-168 -133q-39 -31 -73 -31q-46 0 -46 46q0 26 31 61
l164 183q40 45 93 45q50 0 90 -45l164 -183q32 -36 32 -59q0 -48 -47 -48q-34 0 -73 31z" />
    <glyph glyph-name="Ugrave" unicode="&#xd9;" 
d="M102 397v908q0 88 66 88q71 0 71 -88v-906q0 -146 99 -224q90 -71 240 -71q302 0 302 295v904q0 90 67 90q70 0 70 -90v-906q0 -207 -119 -317q-115 -107 -324 -107q-207 0 -335 107q-137 114 -137 317zM375 1697q0 87 77 87q46 0 87 -45l169 -185q36 -39 36 -59
q0 -48 -48 -48q-23 0 -70 32l-185 125q-66 45 -66 93z" />
    <glyph glyph-name="dotlessi" unicode="&#x131;" 
d="M519 128v747h-217q-97 0 -97 67q0 61 97 61h257q90 0 90 -82v-793h244q91 0 91 -65q0 -63 -84 -63h-679q-84 0 -84 63q0 65 84 65h298z" />
    <glyph glyph-name="circumflex" unicode="&#x2c6;" 
d="M560 1283l-168 -133q-39 -31 -73 -31q-46 0 -46 46q0 26 31 61l164 183q40 45 93 45q50 0 90 -45l164 -183q32 -36 32 -59q0 -48 -47 -48q-34 0 -73 31z" />
    <glyph glyph-name="tilde" unicode="&#x2dc;" 
d="M470 1229q-16 0 -49.5 -41t-68.5 -41q-52 0 -52 45q0 31 50 114q52 87 80 87q39 0 139.5 -41t130.5 -41q23 0 55.5 41t67.5 41q53 0 53 -44q0 -34 -48 -115q-51 -87 -83 -87q-44 0 -140 41t-135 41z" />
    <glyph glyph-name="macron" unicode="&#xaf;" 
d="M320 1341h476q78 0 78 -63q0 -30 -23.5 -48.5t-53.5 -18.5h-477q-74 0 -74 65t74 65z" />
    <glyph glyph-name="macron" unicode="&#x2c9;" 
d="M320 1341h476q78 0 78 -63q0 -30 -23.5 -48.5t-53.5 -18.5h-477q-74 0 -74 65t74 65z" />
    <glyph glyph-name="breve" unicode="&#x2d8;" 
d="M785 1454q61 0 61 -79q0 -99 -89 -167q-82 -61 -185 -61q-104 0 -195 59q-104 66 -104 164q0 84 63 84q32 0 59 -46q36 -71 51 -86q46 -46 126 -46q65 0 103 46q5 6 54 86q21 46 56 46z" />
    <glyph glyph-name="dotaccent" unicode="&#x2d9;" 
d="M556 1454q49 0 84 -36.5t35 -86.5q0 -51 -35.5 -87t-86.5 -36q-52 0 -87.5 35.5t-35.5 87.5t36.5 87.5t89.5 35.5z" />
    <glyph glyph-name="ring" unicode="&#x2da;" 
d="M553 1117q-89 0 -148.5 62.5t-59.5 151.5q0 93 61.5 155t154.5 62q92 0 153 -59.5t61 -150.5q0 -95 -63 -158t-159 -63zM565 1215q49 0 81 34.5t32 83.5q0 52 -34 85t-86 33q-48 0 -82 -33.5t-34 -81.5q0 -52 35.5 -86.5t87.5 -34.5z" />
    <glyph glyph-name="cedilla" unicode="&#xb8;" 
d="M508 -131q38 16 70 16q84 0 138 -68q50 -63 50 -149q0 -103 -64.5 -163t-168.5 -60q-178 0 -178 74q0 54 54 54q21 0 61.5 -13t62.5 -13q103 0 103 121q0 107 -81 115q-25 0 -61 -22.5t-55 -22.5q-45 0 -45 53q0 19 24 154q9 55 60 55t51 -44q0 -19 -21 -87z" />
    <glyph glyph-name="hungarumlaut" unicode="&#x2dd;" 
d="M554 1367q0 -41 -73 -93l-176 -125q-45 -32 -72 -32q-48 0 -48 48q0 25 41 69l153 163q53 57 98 57q77 0 77 -87zM934 1367q0 -41 -73 -93l-176 -125q-45 -32 -72 -32q-48 0 -48 48q0 25 41 69l153 163q53 57 98 57q77 0 77 -87z" />
    <glyph glyph-name="ogonek" unicode="&#x2db;" 
d="M613 -81q0 84 1 87q9 44 60 44q62 0 62 -78v-113q0 -71 -61 -71q-21 0 -55.5 18.5t-54.5 18.5q-81 0 -81 -107q0 -121 110 -121q20 0 58 13t58 13q56 0 56 -52q0 -76 -170 -76q-108 0 -173 57q-68 59 -68 166q0 86 50 149q54 68 138 68q32 0 70 -16z" />
    <glyph glyph-name="caron" unicode="&#x2c7;" 
d="M560 1283l167 140q37 31 72 31q48 0 48 -47q0 -24 -32 -60l-164 -182q-41 -45 -92 -45q-50 0 -91 45l-164 182q-31 34 -31 60q0 47 46 47q36 0 73 -31z" />
    <glyph glyph-name="Lslash" unicode="&#x141;" 
d="M260 132h719q86 0 86 -68q0 -64 -86 -64h-784q-72 0 -72 69v318q-62 -60 -92 -60q-58 0 -58 55q0 35 65 100q42 38 85 77v741q0 93 70 93q45 0 59 -29q8 -18 8 -70v-595l221 241q39 42 72 42q57 0 57 -53q0 -29 -38 -69l-312 -329v-399z" />
    <glyph glyph-name="lslash" unicode="&#x142;" 
d="M649 128h260q75 0 75 -65q0 -63 -75 -63h-693q-79 0 -79 63q0 65 79 65h303v365l-82 -78q-58 -54 -97 -54q-54 5 -54 48q0 35 45 73l188 157v667h-198q-75 0 -75 65q0 63 75 63h263q65 0 65 -65v-623q47 39 93 78q82 64 113 64q54 0 54 -50q0 -29 -49 -69l-211 -172v-469
z" />
    <glyph glyph-name="Scaron" unicode="&#x160;" 
d="M90 1027q0 187 136 283q118 83 313 83q302 0 432 -148q34 -39 34 -71q0 -56 -59 -56q-24 0 -72.5 33t-110.5 62q-106 48 -235 48q-126 0 -206 -51q-96 -60 -96 -179q0 -141 212 -206l384 -120q223 -98 223 -346q0 -192 -158 -302q-133 -85 -345 -85q-130 0 -275 44
q-192 59 -192 156q0 57 58 57q28 0 130 -56q126 -69 290 -69q142 0 240 62q116 73 116 207q0 188 -224 244l-290 92q-305 81 -305 318zM560 1613l167 140q37 31 72 31q48 0 48 -47q0 -24 -32 -60l-164 -182q-41 -45 -92 -45q-50 0 -91 45l-164 182q-31 34 -31 60q0 47 46 47
q36 0 73 -31z" />
    <glyph glyph-name="scaron" unicode="&#x161;" 
d="M143 726q0 297 394 297q121 0 240 -41q159 -56 159 -152q0 -53 -53 -53q-16 0 -126 59t-221 59q-100 0 -172 -32q-91 -47 -91 -134q0 -104 197 -135l265 -42q268 -42 268 -257q0 -155 -131 -242q-112 -74 -285 -74q-220 0 -356 96q-115 81 -115 131q0 54 54 54
q22 0 81 -40q78 -52 127 -73q89 -40 185 -40q113 0 199 41q112 53 112 143q0 115 -190 147q-175 30 -351 60q-190 60 -190 228zM574 1283l167 140q37 31 72 31q48 0 48 -47q0 -24 -32 -60l-164 -182q-41 -45 -92 -45q-50 0 -91 45l-164 182q-31 34 -31 60q0 47 46 47
q36 0 73 -31z" />
    <glyph glyph-name="Zcaron" unicode="&#x17d;" 
d="M848 1235h-661q-92 0 -92 65q0 66 92 66h748q89 0 89 -56q0 -30 -31 -76l-749 -1102h715q92 0 92 -68q0 -42 -27 -55q-17 -9 -65 -9h-803q-88 0 -88 53q0 39 37 93zM560 1613l167 140q37 31 72 31q48 0 48 -47q0 -24 -32 -60l-164 -182q-41 -45 -92 -45q-50 0 -91 45
l-164 182q-31 34 -31 60q0 47 46 47q36 0 73 -31z" />
    <glyph glyph-name="zcaron" unicode="&#x17e;" 
d="M760 875h-504q-79 0 -79 66q0 62 79 62h649q64 0 64 -49q0 -29 -23 -57l-630 -769h610q84 0 84 -64t-84 -64h-745q-72 0 -72 57q0 28 33 68zM560 1283l167 140q37 31 72 31q48 0 48 -47q0 -24 -32 -60l-164 -182q-41 -45 -92 -45q-50 0 -91 45l-164 182q-31 34 -31 60
q0 47 46 47q36 0 73 -31z" />
    <glyph glyph-name="brokenbar" unicode="&#xa6;" 
d="M629 191v-564q0 -59 -71 -59q-66 0 -66 59v564q0 63 69 63q68 0 68 -63zM629 1391v-564q0 -59 -71 -59q-66 0 -66 59v564q0 63 69 63q68 0 68 -63z" />
    <glyph glyph-name="Eth" unicode="&#xd0;" 
d="M109 642q-77 0 -93 3q-57 11 -57 58q0 53 54 65q19 5 96 5v511q0 50 22 67q19 15 69 15h335q231 0 362 -143q127 -139 127 -373v-353q0 -497 -500 -497h-324q-91 0 -91 70v572zM246 132h278q363 0 363 367v351q0 182 -90 281q-93 104 -273 104h-278v-462h232q95 0 95 -61
q0 -70 -95 -70h-232v-510z" />
    <glyph glyph-name="eth" unicode="&#xf0;" 
d="M239 685v-368q0 -210 335 -210q306 0 306 210v368q0 210 -330 210q-125 0 -206 -42q-105 -54 -105 -168zM871 1197q-168 -99 -198 -99q-52 0 -52 48q0 39 75 80q58 30 115 58q-23 20 -97 20h-230q-75 0 -75 67q0 63 75 63h226q153 0 224 -68q130 88 165 88q50 0 50 -50
q0 -37 -61 -82q-46 -28 -93 -54q15 -57 15 -127v-824q0 -337 -445 -337q-456 0 -456 337v368q0 180 146 267q119 71 312 71q107 0 166 -16q76 -20 147 -82v214q0 28 -9 58z" />
    <glyph glyph-name="Yacute" unicode="&#xdd;" 
d="M492 587l-379 693q-17 31 -17 54q0 59 61 59q40 0 65 -46l338 -623l335 618q28 51 67 51q63 0 63 -49q0 -23 -20 -60l-377 -705v-531q0 -75 -68 -75t-68 75v539zM784 1697q0 -41 -73 -93l-176 -125q-45 -32 -72 -32q-48 0 -48 48q0 25 41 69l153 163q53 57 98 57
q77 0 77 -87z" />
    <glyph glyph-name="Thorn" unicode="&#xde;" 
d="M246 314v-264q0 -77 -68 -77q-69 0 -69 77v1260q0 83 71 83q66 0 66 -90v-211h395q397 0 397 -370q0 -216 -104 -314q-100 -94 -317 -94h-371zM246 446h363q292 0 292 269q0 139 -74 196q-65 50 -209 50h-372v-515z" />
    <glyph glyph-name="minus" unicode="&#x2212;" 
d="M932 587q78 0 78 -63q0 -67 -77 -67h-746q-78 0 -78 65t74 65h749z" />
    <glyph glyph-name="multiply" unicode="&#xd7;" 
d="M470 527l-215 218q-33 33 -33 56q0 24 17.5 45t39.5 21q36 0 64 -28l219 -221l218 222q27 27 61 27q57 0 57 -62q0 -31 -25 -57l-220 -222l217 -222q28 -28 28 -59q0 -58 -62 -58q-31 0 -55 25l-219 223l-217 -218q-30 -30 -58 -30q-23 0 -44 21t-21 45q0 26 28 54z" />
    <glyph glyph-name="onesuperior" unicode="&#xb9;" 
d="M437 1283q-53 0 -53 48t53 48h130q53 0 53 -48v-569h89q54 0 54 -50q0 -46 -54 -46h-298q-54 0 -54 48t54 48h110v521h-84z" />
    <glyph glyph-name="twosuperior" unicode="&#xb2;" 
d="M787 714q0 -48 -54 -48h-348q-52 0 -52 44q0 19 17 40l295 356q43 52 43 95q0 95 -122 95q-66 0 -100 -43q-9 -13 -39 -81q-19 -44 -49 -44q-45 0 -45 51q0 45 28 96q66 118 209 118q88 0 149 -46q68 -51 68 -140q0 -75 -73 -164l-234 -281h244q63 0 63 -48z" />
    <glyph glyph-name="threesuperior" unicode="&#xb3;" 
d="M638 1140q70 -2 111.5 -47.5t41.5 -116.5q0 -135 -137 -234q-124 -90 -260 -90q-65 0 -65 45t57 45q72 0 130 26q69 30 118 82q58 59 58 120q0 74 -68 74q-24 0 -63.5 -17t-54.5 -17q-39 0 -39 44q0 21 15 40l154 189h-227q-59 0 -59 49q0 47 59 47h320q55 0 55 -42
q0 -19 -13 -35z" />
    <glyph glyph-name="onehalf" unicode="&#xbd;" horiz-adv-x="1232" 
d="M113 1283q-53 0 -53 48t53 48h130q53 0 53 -48v-569h89q54 0 54 -50q0 -46 -54 -46h-298q-54 0 -54 48t54 48h110v521h-84zM1019 1393q49 0 49 -50q0 -29 -34 -82l-795 -1239q-28 -49 -74 -49q-52 0 -53 52q0 26 25 64l791 1233q36 71 91 71zM1147 35q0 -48 -54 -48h-348
q-52 0 -52 44q0 19 17 40l295 356q43 52 43 95q0 95 -122 95q-66 0 -100 -43q-9 -13 -39 -81q-19 -44 -49 -44q-45 0 -45 51q0 45 28 96q66 118 209 118q88 0 149 -46q68 -51 68 -140q0 -75 -73 -164l-234 -281h244q63 0 63 -48z" />
    <glyph glyph-name="onequarter" unicode="&#xbc;" horiz-adv-x="1232" 
d="M113 1283q-53 0 -53 48t53 48h130q53 0 53 -48v-569h89q54 0 54 -50q0 -46 -54 -46h-298q-54 0 -54 48t54 48h110v521h-84zM1039 1393q49 0 49 -50q0 -29 -34 -82l-795 -1239q-28 -49 -74 -49q-52 0 -53 52q0 26 25 64l791 1233q36 71 91 71zM693 138q0 14 12 52l153 466
q13 41 47 41q46 0 46 -45q0 -9 -5 -28l-136 -428h143v262q0 54 50 54q48 0 48 -54v-262h57q53 0 53 -48q0 -49 -53 -49h-57v-89q0 -54 -49 -54t-49 54v89h-207q-53 0 -53 39z" />
    <glyph glyph-name="threequarters" unicode="&#xbe;" horiz-adv-x="1232" 
d="M430 1140q70 -2 111.5 -47.5t41.5 -116.5q0 -135 -137 -234q-124 -90 -260 -90q-65 0 -65 45t57 45q72 0 130 26q69 30 118 82q58 59 58 120q0 74 -68 74q-24 0 -63.5 -17t-54.5 -17q-39 0 -39 44q0 21 15 40l154 189h-227q-59 0 -59 49q0 47 59 47h320q55 0 55 -42
q0 -19 -13 -35zM1039 1393q49 0 49 -50q0 -29 -34 -82l-795 -1239q-28 -49 -74 -49q-52 0 -53 52q0 26 25 64l791 1233q36 71 91 71zM713 138q0 14 12 52l153 466q13 41 47 41q46 0 46 -45q0 -9 -5 -28l-136 -428h143v262q0 54 50 54q48 0 48 -54v-262h57q53 0 53 -48
q0 -49 -53 -49h-57v-89q0 -54 -49 -54t-49 54v89h-207q-53 0 -53 39z" />
    <glyph glyph-name="franc" unicode="&#x20a3;" horiz-adv-x="1120" 
d="M237 287h-92q-72 0 -72 67q0 64 72 64h92v867q0 80 74 80h668q86 0 86 -64q0 -67 -91 -67h-601v-461h424q82 0 82 -64q0 -67 -82 -67h-424v-224h192q81 0 81 -64q0 -67 -81 -67h-192v-228q0 -86 -67 -86q-69 0 -69 86v228z" />
    <glyph glyph-name="Gbreve" unicode="&#x11e;" 
d="M891 464h-184q-82 0 -82 65q0 67 82 67h249q68 0 68 -82v-469q0 -72 -62 -72q-64 0 -64 52v106q-127 -158 -347 -158q-199 0 -324 109q-131 115 -131 311v561q0 439 443 439q320 0 436 -227q36 -71 36 -135q0 -74 -70 -74q-43 0 -71 79q-38 106 -78 146q-78 79 -242 79
q-317 0 -317 -307v-561q0 -145 99 -221q89 -68 238 -68q145 0 230 71q91 75 91 218v71zM785 1754q61 0 61 -79q0 -99 -89 -167q-82 -61 -185 -61q-104 0 -195 59q-104 66 -104 164q0 84 63 84q32 0 59 -46q36 -71 51 -86q46 -46 126 -46q65 0 103 46q5 6 54 86q21 46 56 46z
" />
    <glyph glyph-name="gbreve" unicode="&#x11f;" 
d="M867 90q-143 -111 -347 -110q-411 -2 -411 335v371q0 336 428 336q115 0 178.5 -22.5t153.5 -94.5q23 117 72 117q55 0 55 -85v-983q0 -386 -450 -386q-112 0 -228 44q-152 58 -152 143q0 59 56 59q9 0 110.5 -59.5t224.5 -59.5q211 0 273 109q37 53 37 286zM867 227v523
q-108 145 -313 145q-315 0 -315 -203v-372q0 -213 287 -212q108 0 182 27q70 24 159 92zM761 1454q61 0 61 -79q0 -99 -89 -167q-82 -61 -185 -61q-104 0 -195 59q-104 66 -104 164q0 84 63 84q32 0 59 -46q36 -71 51 -86q46 -46 126 -46q65 0 103 46q5 6 54 86q21 46 56 46
z" />
    <glyph glyph-name="Idotaccent" unicode="&#x130;" 
d="M493 132v1102h-242q-86 0 -86 66t77 66h635q80 0 80 -63q0 -69 -80 -69h-248v-1102h237q91 0 91 -66t-91 -66h-626q-75 0 -75 63q0 69 75 69h253zM556 1724q49 0 84 -36.5t35 -86.5q0 -51 -35.5 -87t-86.5 -36q-52 0 -87.5 35.5t-35.5 87.5t36.5 87.5t89.5 35.5z" />
    <glyph glyph-name="Scedilla" unicode="&#x15e;" 
d="M90 1027q0 187 136 283q118 83 313 83q302 0 432 -148q34 -39 34 -71q0 -56 -59 -56q-24 0 -72.5 33t-110.5 62q-106 48 -235 48q-126 0 -206 -51q-96 -60 -96 -179q0 -141 212 -206l384 -120q223 -98 223 -346q0 -192 -158 -302q-133 -85 -345 -85q-130 0 -275 44
q-192 59 -192 156q0 57 58 57q28 0 130 -56q126 -69 290 -69q142 0 240 62q116 73 116 207q0 188 -224 244l-290 92q-305 81 -305 318zM446 -219q0 46 34.5 74t81.5 28q62 0 96 -41t34 -104q0 -96 -61 -179q-64 -86 -142 -86q-43 0 -43 41q0 18 51.5 61.5t51.5 76.5
q0 20 -51.5 55t-51.5 74z" />
    <glyph glyph-name="scedilla" unicode="&#x15f;" 
d="M143 726q0 297 394 297q121 0 240 -41q159 -56 159 -152q0 -53 -53 -53q-16 0 -126 59t-221 59q-100 0 -172 -32q-91 -47 -91 -134q0 -104 197 -135l265 -42q268 -42 268 -257q0 -155 -131 -242q-112 -74 -285 -74q-220 0 -356 96q-115 81 -115 131q0 54 54 54
q22 0 81 -40q78 -52 127 -73q89 -40 185 -40q113 0 199 41q112 53 112 143q0 115 -190 147q-175 30 -351 60q-190 60 -190 228zM499 -219q0 46 34.5 74t81.5 28q62 0 96 -41t34 -104q0 -96 -61 -179q-64 -86 -142 -86q-43 0 -43 41q0 18 51.5 61.5t51.5 76.5q0 20 -51.5 55
t-51.5 74z" />
    <glyph glyph-name="Cacute" unicode="&#x106;" 
d="M123 395v560q0 438 465 438q189 0 304 -84q132 -103 132 -275q0 -83 -67 -83q-48 0 -69 78q-13 67 -50 127q-58 105 -260 105q-173 0 -248 -87q-70 -78 -70 -255v-467q0 -182 74 -260q79 -88 252 -88q261 0 302 184q15 68 16 70q15 38 53 38q67 0 67 -83
q0 -165 -139 -266q-112 -74 -293 -74q-215 0 -337 102q-132 109 -132 320zM794 1697q0 -41 -73 -93l-176 -125q-45 -32 -72 -32q-48 0 -48 48q0 25 41 69l153 163q53 57 98 57q77 0 77 -87z" />
    <glyph glyph-name="cacute" unicode="&#x107;" 
d="M123 320v364q0 339 449 339q167 0 289 -69q149 -85 149 -241q0 -58 -56 -58q-39 0 -70 62q-41 84 -79 116q-75 62 -223 62q-329 0 -329 -220v-355q0 -126 105 -178q75 -35 243 -35q119 0 199 40q46 23 96 73q39 40 61 40q54 0 54 -56q0 -57 -66 -120q-110 -104 -364 -104
q-458 0 -458 340zM801 1367q0 -41 -73 -93l-176 -125q-45 -32 -72 -32q-48 0 -48 48q0 25 41 69l153 163q53 57 98 57q77 0 77 -87z" />
    <glyph glyph-name="Ccaron" unicode="&#x10c;" 
d="M123 395v560q0 438 465 438q189 0 304 -84q132 -103 132 -275q0 -83 -67 -83q-48 0 -69 78q-13 67 -50 127q-58 105 -260 105q-173 0 -248 -87q-70 -78 -70 -255v-467q0 -182 74 -260q79 -88 252 -88q261 0 302 184q15 68 16 70q15 38 53 38q67 0 67 -83
q0 -165 -139 -266q-112 -74 -293 -74q-215 0 -337 102q-132 109 -132 320zM580 1613l167 140q37 31 72 31q48 0 48 -47q0 -24 -32 -60l-164 -182q-41 -45 -92 -45q-50 0 -91 45l-164 182q-31 34 -31 60q0 47 46 47q36 0 73 -31z" />
    <glyph glyph-name="ccaron" unicode="&#x10d;" 
d="M123 320v364q0 339 449 339q167 0 289 -69q149 -85 149 -241q0 -58 -56 -58q-39 0 -70 62q-41 84 -79 116q-75 62 -223 62q-329 0 -329 -220v-355q0 -126 105 -178q75 -35 243 -35q119 0 199 40q46 23 96 73q39 40 61 40q54 0 54 -56q0 -57 -66 -120q-110 -104 -364 -104
q-458 0 -458 340zM585 1283l167 140q37 31 72 31q48 0 48 -47q0 -24 -32 -60l-164 -182q-41 -45 -92 -45q-50 0 -91 45l-164 182q-31 34 -31 60q0 47 46 47q36 0 73 -31z" />
    <glyph glyph-name="dcroat" unicode="&#x111;" 
d="M874 105q-115 -81 -168 -100q-66 -25 -194 -25q-172 0 -281 80q-122 89 -122 254v375q0 167 125 256q110 78 280 78q116 0 190 -28q70 -26 163 -101v265h-273q-75 0 -75 67q0 61 79 61h269v93q0 74 66 74q63 0 63 -74v-93h76q75 0 75 -68q0 -61 -73 -60h-78v-1110
q0 -69 -57 -69q-37 0 -51 43q-11 38 -14 82zM867 259v490q-158 146 -347 146q-281 0 -281 -211v-359q0 -215 298 -215q210 0 330 149z" />
    <glyph glyph-name="mu1" unicode="&#xb5;" 
d="M799 248v702q0 73 65 73q64 0 64 -73v-896q0 -74 -55 -74q-35 0 -50 50q-13 39 -18 84q-87 -69 -134 -94q-74 -40 -157 -40q-81 0 -146 47q-45 31 -109 110q3 -52 33 -147q29 -91 29 -154v-196q0 -72 -64 -72q-66 0 -66 72v1310q0 73 64 73q66 0 66 -73v-585
q0 -258 217 -257q74 0 143 44q39 24 118 96z" />
    <glyph glyph-name="mu1" unicode="&#x3bc;" 
d="M799 248v702q0 73 65 73q64 0 64 -73v-896q0 -74 -55 -74q-35 0 -50 50q-13 39 -18 84q-87 -69 -134 -94q-74 -40 -157 -40q-81 0 -146 47q-45 31 -109 110q3 -52 33 -147q29 -91 29 -154v-196q0 -72 -64 -72q-66 0 -66 72v1310q0 73 64 73q66 0 66 -73v-585
q0 -258 217 -257q74 0 143 44q39 24 118 96z" />
    <glyph glyph-name="pi1" 
d="M771 875h-300v-875h-130v870q-46 -5 -111 -33q-61 -31 -69 -31q-52 0 -52 52q0 76 107 116q82 29 172 29h622v-128h-109v-875h-130v875z" />
    <glyph glyph-name="Ohm" unicode="&#x3a9;" 
d="M245 971v-187q0 -75 11 -114q12 -42 55 -104l144 -210q36 -52 36 -201q0 -83 -5 -101q-13 -54 -70 -54h-206q-46 0 -73 33q-20 24 -44.5 83.5t-24.5 87.5q0 60 61 60q29 0 49 -48q26 -62 33 -69q15 -15 113 -15q30 0 30 51q0 101 -64 188q-58 78 -117 157q-64 99 -64 214
v234q0 203 124 313q118 104 324 104q453 0 453 -417v-234q0 -115 -64 -214q-58 -79 -117 -157q-64 -92 -64 -190q0 -44 32 -50q-7 1 72 1q40 0 72 81q18 51 49 51q61 0 61 -60q0 -28 -24.5 -87.5t-44.5 -83.5q-27 -33 -73 -33h-206q-53 0 -68 46q-7 23 -7 91q0 105 8.5 147
t35.5 82l136 200q43 64 55 105q11 36 11 113v187q0 150 -72.5 220t-255.5 70q-301 0 -301 -290z" />
    <glyph glyph-name="Ohm" unicode="&#x2126;" 
d="M245 971v-187q0 -75 11 -114q12 -42 55 -104l144 -210q36 -52 36 -201q0 -83 -5 -101q-13 -54 -70 -54h-206q-46 0 -73 33q-20 24 -44.5 83.5t-24.5 87.5q0 60 61 60q29 0 49 -48q26 -62 33 -69q15 -15 113 -15q30 0 30 51q0 101 -64 188q-58 78 -117 157q-64 99 -64 214
v234q0 203 124 313q118 104 324 104q453 0 453 -417v-234q0 -115 -64 -214q-58 -79 -117 -157q-64 -92 -64 -190q0 -44 32 -50q-7 1 72 1q40 0 72 81q18 51 49 51q61 0 61 -60q0 -28 -24.5 -87.5t-44.5 -83.5q-27 -33 -73 -33h-206q-53 0 -68 46q-7 23 -7 91q0 105 8.5 147
t35.5 82l136 200q43 64 55 105q11 36 11 113v187q0 150 -72.5 220t-255.5 70q-301 0 -301 -290z" />
    <glyph glyph-name="sfthyphen" unicode="&#xad;" 
d="M402 587h312q78 0 78 -64q0 -66 -77 -66h-309q-78 0 -78 66q0 64 74 64z" />
    <glyph glyph-name="overscore" 
d="M-8 1697h1132q77 0 77 -64q0 -66 -76 -66h-1129q-78 0 -78 66q0 64 74 64z" />
    <glyph glyph-name="foursuperior" unicode="&#x2074;" 
d="M326 834q0 14 12 52l153 466q13 41 47 41q46 0 46 -45q0 -9 -5 -28l-136 -428h143v262q0 54 50 54q48 0 48 -54v-262h57q53 0 53 -48q0 -49 -53 -49h-57v-89q0 -54 -49 -54t-49 54v89h-207q-53 0 -53 39z" />
    <glyph glyph-name="commaaccent" unicode="&#xf004;" 
d="M526 -219q0 46 34.5 74t81.5 28q62 0 96 -41t34 -104q0 -96 -61 -179q-64 -86 -142 -86q-43 0 -43 41q0 18 51.5 61.5t51.5 76.5q0 20 -51.5 55t-51.5 74z" />
    <glyph glyph-name="Amacron" unicode="&#x100;" 
d="M828 396h-542l-77 -383q-8 -40 -59 -40q-71 0 -67 56q3 39 103 539q92 456 125 597q47 228 250 228t250 -228l124 -586q105 -500 105 -539q0 -68 -71 -68q-56 0 -66 49zM309 528h493l-111 563q-33 170 -137 170q-62 0 -94 -47q-26 -39 -44 -133zM320 1671h476
q78 0 78 -63q0 -30 -23.5 -48.5t-53.5 -18.5h-477q-74 0 -74 65t74 65z" />
    <glyph glyph-name="amacron" unicode="&#x101;" 
d="M833 101q-99 -72 -150 -93q-69 -28 -174 -28q-162 0 -266 69q-120 80 -120 235t125 244q110 78 273 78q132 0 305 -62v158q0 111 -106 160q-74 33 -181 33q-250 0 -276 -139q-12 -63 -14 -69q-14 -32 -55 -32q-71 0 -71 74q0 100 79 186q99 108 347 108q197 0 293 -66
q114 -79 114 -267v-457q0 -80 34 -109q5 -5 62 -28q34 -14 34 -62q0 -54 -59 -54q-14 0 -57 14q-77 25 -88 32q-40 23 -49 75zM826 238v191q-151 49 -284 49q-289 0 -289 -187q0 -97 87 -145q69 -38 174 -38q93 0 168 35q58 26 144 95zM326 1281h476q78 0 78 -63
q0 -30 -23.5 -48.5t-53.5 -18.5h-477q-74 0 -74 65t74 65z" />
    <glyph glyph-name="Abreve" unicode="&#x102;" 
d="M828 396h-542l-77 -383q-8 -40 -59 -40q-71 0 -67 56q3 39 103 539q92 456 125 597q47 228 250 228t250 -228l124 -586q105 -500 105 -539q0 -68 -71 -68q-56 0 -66 49zM309 528h493l-111 563q-33 170 -137 170q-62 0 -94 -47q-26 -39 -44 -133zM785 1784q61 0 61 -79
q0 -99 -89 -167q-82 -61 -185 -61q-104 0 -195 59q-104 66 -104 164q0 84 63 84q32 0 59 -46q36 -71 51 -86q46 -46 126 -46q65 0 103 46q5 6 54 86q21 46 56 46z" />
    <glyph glyph-name="abreve" unicode="&#x103;" 
d="M833 101q-99 -72 -150 -93q-69 -28 -174 -28q-162 0 -266 69q-120 80 -120 235t125 244q110 78 273 78q132 0 305 -62v158q0 111 -106 160q-74 33 -181 33q-250 0 -276 -139q-12 -63 -14 -69q-14 -32 -55 -32q-71 0 -71 74q0 100 79 186q99 108 347 108q197 0 293 -66
q114 -79 114 -267v-457q0 -80 34 -109q5 -5 62 -28q34 -14 34 -62q0 -54 -59 -54q-14 0 -57 14q-77 25 -88 32q-40 23 -49 75zM826 238v191q-151 49 -284 49q-289 0 -289 -187q0 -97 87 -145q69 -38 174 -38q93 0 168 35q58 26 144 95zM788 1424q61 0 61 -79q0 -99 -89 -167
q-82 -61 -185 -61q-104 0 -195 59q-104 66 -104 164q0 84 63 84q32 0 59 -46q36 -71 51 -86q46 -46 126 -46q65 0 103 46q5 6 54 86q21 46 56 46z" />
    <glyph glyph-name="Aogonek" unicode="&#x104;" 
d="M906 21l-80 375h-542l-70 -355q-15 -68 -66 -68q-66 0 -66 56q0 7 2 18l203 1069q27 141 77 201q63 76 195 76q203 0 250 -228l227 -1110v-196q0 -71 -61 -71q-21 0 -55.5 18.5t-54.5 18.5q-81 0 -81 -107q0 -121 110 -121q20 0 58 13t58 13q56 0 56 -52q0 -76 -170 -76
q-108 0 -173 57q-68 59 -68 166q0 86 50 149q54 68 138 68q32 0 70 -16v55q0 37 -7 47zM307 528h493l-113 588q-28 145 -135 145q-71 0 -105 -58q-21 -36 -37 -122z" />
    <glyph glyph-name="aogonek" unicode="&#x105;" 
d="M996 -11v-100q1 -71 -61 -71q-21 0 -55.5 18.5t-54.5 18.5q-81 0 -81 -107q0 -121 110 -121q20 0 58 13t58 13q56 0 56 -52q0 -76 -170 -76q-108 0 -173 57q-68 59 -68 166q0 86 50 149q54 68 138 68q32 0 70 -16v84q-13 14 -26 29q-10 12 -14 38q-100 -72 -150 -93
q-69 -28 -174 -28q-162 0 -265 69q-121 80 -121 235q0 156 125 245q110 78 273 78q132 0 305 -62v192q0 89 -106 130q-74 29 -181 29q-251 0 -276 -139q-12 -63 -14 -69q-14 -32 -55 -32q-71 0 -71 74q0 157 143 234q113 60 283 60q197 0 293 -66q114 -79 114 -267v-458
q0 -80 34 -109q5 -5 62 -37q34 -18 34 -56q0 -50 -46 -50q-30 0 -44 9zM826 237v192q-151 49 -284 49q-289 0 -289 -188q0 -97 87 -145q69 -38 174 -38q93 0 168 35q58 26 144 95z" />
    <glyph glyph-name="Ccircumflex" unicode="&#x108;" 
d="M123 395v560q0 438 465 438q189 0 304 -84q132 -103 132 -275q0 -83 -67 -83q-48 0 -69 78q-13 67 -50 127q-58 105 -260 105q-173 0 -248 -87q-70 -78 -70 -255v-467q0 -182 74 -260q79 -88 252 -88q261 0 302 184q15 68 16 70q15 38 53 38q67 0 67 -83
q0 -165 -139 -266q-112 -74 -293 -74q-215 0 -337 102q-132 109 -132 320zM590 1613l-168 -133q-39 -31 -73 -31q-46 0 -46 46q0 26 31 61l164 183q40 45 93 45q50 0 90 -45l164 -183q32 -36 32 -59q0 -48 -47 -48q-34 0 -73 31z" />
    <glyph glyph-name="ccircumflex" unicode="&#x109;" 
d="M123 320v364q0 339 449 339q167 0 289 -69q149 -85 149 -241q0 -58 -56 -58q-39 0 -70 62q-41 84 -79 116q-75 62 -223 62q-329 0 -329 -220v-355q0 -126 105 -178q75 -35 243 -35q119 0 199 40q46 23 96 73q39 40 61 40q54 0 54 -56q0 -57 -66 -120q-110 -104 -364 -104
q-458 0 -458 340zM570 1283l-168 -133q-39 -31 -73 -31q-46 0 -46 46q0 26 31 61l164 183q40 45 93 45q50 0 90 -45l164 -183q32 -36 32 -59q0 -48 -47 -48q-34 0 -73 31z" />
    <glyph glyph-name="Cdot" unicode="&#x10a;" 
d="M123 395v560q0 438 465 438q189 0 304 -84q132 -103 132 -275q0 -83 -67 -83q-48 0 -69 78q-13 67 -50 127q-58 105 -260 105q-173 0 -248 -87q-70 -78 -70 -255v-467q0 -182 74 -260q79 -88 252 -88q261 0 302 184q15 68 16 70q15 38 53 38q67 0 67 -83
q0 -165 -139 -266q-112 -74 -293 -74q-215 0 -337 102q-132 109 -132 320zM596 1724q49 0 84 -36.5t35 -86.5q0 -51 -35.5 -87t-86.5 -36q-52 0 -87.5 35.5t-35.5 87.5t36.5 87.5t89.5 35.5z" />
    <glyph glyph-name="cdot" unicode="&#x10b;" 
d="M123 320v364q0 339 449 339q167 0 289 -69q149 -85 149 -241q0 -58 -56 -58q-39 0 -70 62q-41 84 -79 116q-75 62 -223 62q-329 0 -329 -220v-355q0 -126 105 -178q75 -35 243 -35q119 0 199 40q46 23 96 73q39 40 61 40q54 0 54 -56q0 -57 -66 -120q-110 -104 -364 -104
q-458 0 -458 340zM583 1454q49 0 84 -36.5t35 -86.5q0 -51 -35.5 -87t-86.5 -36q-52 0 -87.5 35.5t-35.5 87.5t36.5 87.5t89.5 35.5z" />
    <glyph glyph-name="Dcaron" unicode="&#x10e;" 
d="M110 70v1214q0 82 68 82h357q241 0 368 -122q121 -133 121 -338v-447q0 -459 -500 -459h-346q-68 0 -68 70zM246 132h278q189 0 276 82t87 247v445q0 329 -363 329h-278v-1103zM550 1613l167 140q37 31 72 31q48 0 48 -47q0 -24 -32 -60l-164 -182q-41 -45 -92 -45
q-50 0 -91 45l-164 182q-31 34 -31 60q0 47 46 47q36 0 73 -31z" />
    <glyph glyph-name="dcaron" unicode="&#x10f;" 
d="M854 100q-94 -69 -161 -93q-73 -27 -183 -27q-181 0 -292 75q-129 87 -129 260v378q0 166 126 254q109 76 282 76q115 0 189.5 -25t160.5 -96v460q0 92 62 92q67 0 67 -92v-1313q0 -69 -60 -69q-37 1 -50 43q-10 31 -12 77zM847 251v517q-95 69 -154 94q-78 33 -177 33
q-124 0 -202 -47q-95 -58 -95 -169v-353q0 -115 100 -171q80 -45 204 -45q103 0 178 34q66 31 146 107zM1067 1291q0 46 34.5 74t81.5 28q62 0 96 -41t34 -104q0 -96 -61 -179q-64 -86 -142 -86q-43 0 -43 41q0 18 51.5 61.5t51.5 76.5q0 20 -51.5 55t-51.5 74z" />
    <glyph glyph-name="Dslash" unicode="&#x110;" 
d="M109 642q-77 0 -93 3q-57 11 -57 58q0 53 54 65q19 5 96 5v511q0 50 22 67q19 15 69 15h335q231 0 362 -143q127 -139 127 -373v-353q0 -497 -500 -497h-324q-91 0 -91 70v572zM246 132h278q363 0 363 367v351q0 182 -90 281q-93 104 -273 104h-278v-462h232q95 0 95 -61
q0 -70 -95 -70h-232v-510z" />
    <glyph glyph-name="Emacron" unicode="&#x112;" 
d="M246 1235v-462h478q95 0 95 -61q0 -70 -95 -70h-478v-510h669q95 0 95 -62q0 -70 -95 -70h-721q-85 0 -85 83v1205q0 34 25 56t60 22h720q96 0 96 -61q0 -70 -96 -70h-668zM320 1641h476q78 0 78 -63q0 -30 -23.5 -48.5t-53.5 -18.5h-477q-74 0 -74 65t74 65z" />
    <glyph glyph-name="emacron" unicode="&#x113;" 
d="M239 478v-142q0 -229 326 -228q118 -1 194 25q38 13 134 74q61 54 78 54q54 0 54 -56q0 -58 -80 -122q-129 -104 -386 -103q-450 -1 -450 356v359q0 123 92 212q123 116 368 116q441 0 441 -438q0 -107 -81 -107h-690zM239 606h641q0 289 -325 289q-120 0 -215 -53
q-101 -69 -101 -161v-75zM328 1281h476q78 0 78 -63q0 -30 -23.5 -48.5t-53.5 -18.5h-477q-74 0 -74 65t74 65z" />
    <glyph glyph-name="Ebreve" unicode="&#x114;" 
d="M246 1235v-462h478q95 0 95 -61q0 -70 -95 -70h-478v-510h669q95 0 95 -62q0 -70 -95 -70h-721q-85 0 -85 83v1205q0 34 25 56t60 22h720q96 0 96 -61q0 -70 -96 -70h-668zM785 1754q61 0 61 -79q0 -99 -89 -167q-82 -61 -185 -61q-104 0 -195 59q-104 66 -104 164
q0 84 63 84q32 0 59 -46q36 -71 51 -86q46 -46 126 -46q65 0 103 46q5 6 54 86q21 46 56 46z" />
    <glyph glyph-name="ebreve" unicode="&#x115;" 
d="M239 478v-142q0 -229 326 -228q118 -1 194 25q38 13 134 74q61 54 78 54q54 0 54 -56q0 -58 -80 -122q-129 -104 -386 -103q-450 -1 -450 356v359q0 123 92 212q123 116 368 116q441 0 441 -438q0 -107 -81 -107h-690zM239 606h641q0 289 -325 289q-120 0 -215 -53
q-101 -69 -101 -161v-75zM781 1454q61 0 61 -79q0 -99 -89 -167q-82 -61 -185 -61q-104 0 -195 59q-104 66 -104 164q0 84 63 84q32 0 59 -46q36 -71 51 -86q46 -46 126 -46q65 0 103 46q5 6 54 86q21 46 56 46z" />
    <glyph glyph-name="Edot" unicode="&#x116;" 
d="M246 1235v-462h478q95 0 95 -61q0 -70 -95 -70h-478v-510h669q95 0 95 -62q0 -70 -95 -70h-721q-85 0 -85 83v1205q0 34 25 56t60 22h720q96 0 96 -61q0 -70 -96 -70h-668zM576 1724q49 0 84 -36.5t35 -86.5q0 -51 -35.5 -87t-86.5 -36q-52 0 -87.5 35.5t-35.5 87.5
t36.5 87.5t89.5 35.5z" />
    <glyph glyph-name="edot" unicode="&#x117;" 
d="M239 478v-142q0 -229 326 -228q118 -1 194 25q38 13 134 74q61 54 78 54q54 0 54 -56q0 -58 -80 -122q-129 -104 -386 -103q-450 -1 -450 356v359q0 123 92 212q123 116 368 116q441 0 441 -438q0 -107 -81 -107h-690zM239 606h641q0 289 -325 289q-120 0 -215 -53
q-101 -69 -101 -161v-75zM556 1454q49 0 84 -36.5t35 -86.5q0 -51 -35.5 -87t-86.5 -36q-52 0 -87.5 35.5t-35.5 87.5t36.5 87.5t89.5 35.5z" />
    <glyph glyph-name="Eogonek" unicode="&#x118;" 
d="M946 0v-141q0 -71 -61 -71q-21 0 -55.5 18.5t-54.5 18.5q-81 0 -81 -107q0 -121 110 -121q20 0 58 13t58 13q56 0 56 -52q0 -76 -170 -76q-108 0 -173 57q-68 59 -68 166q0 86 50 149q54 68 138 68q32 0 70 -16v81h-649q-65 0 -65 66v1234q0 66 65 66h740q96 0 96 -62
q0 -70 -96 -70h-668v-461h478q95 0 95 -61q0 -70 -95 -70h-478v-510h699q65 0 65 -66q0 -46 -36 -59q-17 -7 -28 -7z" />
    <glyph glyph-name="eogonek" unicode="&#x119;" 
d="M1025 205q0 -15 -26 -70v-276q0 -71 -61 -71q-21 0 -55.5 18.5t-54.5 18.5q-81 0 -81 -107q0 -121 110 -121q20 0 58 13t58 13q56 0 56 -52q0 -76 -170 -76q-108 0 -173 57q-68 59 -68 166q0 86 50 149q54 68 138 68q22 0 70 -16v128q-85 -68 -317 -68q-450 0 -450 339
v367q0 162 146 256q127 82 314 82q441 0 441 -438q0 -107 -81 -107h-690v-160q0 -211 326 -211q118 0 194 26q38 13 121 74q74 54 91 54q54 0 54 -56zM239 606h641q0 289 -325 289q-132 0 -215 -51q-101 -61 -101 -159v-79z" />
    <glyph glyph-name="Ecaron" unicode="&#x11a;" 
d="M246 1235v-462h478q95 0 95 -61q0 -70 -95 -70h-478v-510h669q95 0 95 -62q0 -70 -95 -70h-721q-85 0 -85 83v1205q0 34 25 56t60 22h720q96 0 96 -61q0 -70 -96 -70h-668zM560 1613l167 140q37 31 72 31q48 0 48 -47q0 -24 -32 -60l-164 -182q-41 -45 -92 -45
q-50 0 -91 45l-164 182q-31 34 -31 60q0 47 46 47q36 0 73 -31z" />
    <glyph glyph-name="ecaron" unicode="&#x11b;" 
d="M239 478v-142q0 -229 326 -228q118 -1 194 25q38 13 134 74q61 54 78 54q54 0 54 -56q0 -58 -80 -122q-129 -104 -386 -103q-450 -1 -450 356v359q0 123 92 212q123 116 368 116q441 0 441 -438q0 -107 -81 -107h-690zM239 606h641q0 289 -325 289q-120 0 -215 -53
q-101 -69 -101 -161v-75zM576 1283l167 140q37 31 72 31q48 0 48 -47q0 -24 -32 -60l-164 -182q-41 -45 -92 -45q-50 0 -91 45l-164 182q-31 34 -31 60q0 47 46 47q36 0 73 -31z" />
    <glyph glyph-name="Gcircumflex" unicode="&#x11c;" 
d="M891 464h-184q-82 0 -82 65q0 67 82 67h249q68 0 68 -82v-469q0 -72 -62 -72q-64 0 -64 52v106q-127 -158 -347 -158q-199 0 -324 109q-131 115 -131 311v561q0 439 443 439q320 0 436 -227q36 -71 36 -135q0 -74 -70 -74q-43 0 -71 79q-38 106 -78 146q-78 79 -242 79
q-317 0 -317 -307v-561q0 -145 99 -221q89 -68 238 -68q145 0 230 71q91 75 91 218v71zM570 1613l-168 -133q-39 -31 -73 -31q-46 0 -46 46q0 26 31 61l164 183q40 45 93 45q50 0 90 -45l164 -183q32 -36 32 -59q0 -48 -47 -48q-34 0 -73 31z" />
    <glyph glyph-name="gcircumflex" unicode="&#x11d;" 
d="M867 90q-143 -111 -347 -110q-411 -2 -411 335v371q0 336 428 336q115 0 178.5 -22.5t153.5 -94.5q23 117 72 117q55 0 55 -85v-983q0 -386 -450 -386q-112 0 -228 44q-152 58 -152 143q0 59 56 59q9 0 110.5 -59.5t224.5 -59.5q211 0 273 109q37 53 37 286zM867 227v523
q-108 145 -313 145q-315 0 -315 -203v-372q0 -213 287 -212q108 0 182 27q70 24 159 92zM556 1283l-168 -133q-39 -31 -73 -31q-46 0 -46 46q0 26 31 61l164 183q40 45 93 45q50 0 90 -45l164 -183q32 -36 32 -59q0 -48 -47 -48q-34 0 -73 31z" />
    <glyph glyph-name="Gdot" unicode="&#x120;" 
d="M891 464h-184q-82 0 -82 65q0 67 82 67h249q68 0 68 -82v-469q0 -72 -62 -72q-64 0 -64 52v106q-127 -158 -347 -158q-199 0 -324 109q-131 115 -131 311v561q0 439 443 439q320 0 436 -227q36 -71 36 -135q0 -74 -70 -74q-43 0 -71 79q-38 106 -78 146q-78 79 -242 79
q-317 0 -317 -307v-561q0 -145 99 -221q89 -68 238 -68q145 0 230 71q91 75 91 218v71zM566 1724q49 0 84 -36.5t35 -86.5q0 -51 -35.5 -87t-86.5 -36q-52 0 -87.5 35.5t-35.5 87.5t36.5 87.5t89.5 35.5z" />
    <glyph glyph-name="gdot" unicode="&#x121;" 
d="M867 90q-143 -111 -347 -110q-411 -2 -411 335v371q0 336 428 336q115 0 178.5 -22.5t153.5 -94.5q23 117 72 117q55 0 55 -85v-983q0 -386 -450 -386q-112 0 -228 44q-152 58 -152 143q0 59 56 59q9 0 110.5 -59.5t224.5 -59.5q211 0 273 109q37 53 37 286zM867 227v523
q-108 145 -313 145q-315 0 -315 -203v-372q0 -213 287 -212q108 0 182 27q70 24 159 92zM572 1454q49 0 84 -36.5t35 -86.5q0 -51 -35.5 -87t-86.5 -36q-52 0 -87.5 35.5t-35.5 87.5t36.5 87.5t89.5 35.5z" />
    <glyph glyph-name="Gcedilla" unicode="&#x122;" 
d="M891 464h-184q-82 0 -82 65q0 67 82 67h249q68 0 68 -82v-469q0 -72 -62 -72q-64 0 -64 52v106q-127 -158 -347 -158q-199 0 -324 109q-131 115 -131 311v561q0 439 443 439q320 0 436 -227q36 -71 36 -135q0 -74 -70 -74q-43 0 -71 79q-38 106 -78 146q-78 79 -242 79
q-317 0 -317 -307v-561q0 -145 99 -221q89 -68 238 -68q145 0 230 71q91 75 91 218v71zM446 -219q0 46 34.5 74t81.5 28q62 0 96 -41t34 -104q0 -96 -61 -179q-64 -86 -142 -86q-43 0 -43 41q0 18 51.5 61.5t51.5 76.5q0 20 -51.5 55t-51.5 74z" />
    <glyph glyph-name="gcedilla" unicode="&#x123;" 
d="M867 90q-143 -111 -347 -110q-411 -2 -411 335v371q0 336 428 336q115 0 178.5 -22.5t153.5 -94.5q23 117 72 117q55 0 55 -85v-983q0 -386 -450 -386q-112 0 -228 44q-152 58 -152 143q0 59 56 59q9 0 110.5 -59.5t224.5 -59.5q211 0 273 109q37 53 37 286zM867 227v523
q-108 145 -313 145q-315 0 -315 -203v-372q0 -213 287 -212q108 0 182 27q70 24 159 92zM683 1418q0 -34 -51.5 -71t-51.5 -55q0 -33 51.5 -77t51.5 -61q0 -41 -43 -41q-69 0 -138 99q-65 93 -65 167q0 62 34 103t95 41q49 0 82 -27q35 -30 35 -78z" />
    <glyph glyph-name="Hcircumflex" unicode="&#x124;" 
d="M248 773h628v521q0 99 69 99q67 0 67 -99v-1250q0 -71 -68 -71t-68 71v598h-628v-591q0 -78 -68 -78q-69 0 -69 78v1225q0 117 69 117q68 0 68 -111v-509zM560 1613l-168 -133q-39 -31 -73 -31q-46 0 -46 46q0 26 31 61l164 183q40 45 93 45q50 0 90 -45l164 -183
q32 -36 32 -59q0 -48 -47 -48q-34 0 -73 31z" />
    <glyph glyph-name="hcircumflex" unicode="&#x125;" 
d="M253 920q99 62 168 82.5t186 20.5q403 0 403 -338v-616q0 -88 -64 -89q-65 -1 -65 89v616q0 210 -301 210q-172 0 -327 -129v-697q0 -88 -64 -89q-66 -1 -66 89v1297q0 88 65 88t65 -88v-446zM560 1663l-168 -133q-39 -31 -73 -31q-46 0 -46 46q0 26 31 61l164 183
q40 45 93 45q50 0 90 -45l164 -183q32 -36 32 -59q0 -48 -47 -48q-34 0 -73 31z" />
    <glyph glyph-name="Hbar" unicode="&#x126;" 
d="M1011 1134q73 0 88 -4q49 -11 49 -60q0 -52 -48 -64q-16 -4 -89 -4v-956q0 -73 -68 -73t-68 73v596h-628v-596q0 -73 -68 -73q-69 0 -69 73v956q-73 0 -89 4q-48 12 -48 64q0 49 49 60q15 4 88 4v177q0 82 69 82q68 0 68 -81v-178h628v182q0 77 69 77q67 0 67 -77v-182z
M875 1002h-628v-229h628v229z" />
    <glyph glyph-name="hbar" unicode="&#x127;" 
d="M253 920q154 103 353 103q404 0 404 -355v-599q0 -90 -64 -90q-65 0 -65 90v599q0 227 -304 227q-101 0 -175 -32q-60 -26 -149 -97v-697q0 -89 -64 -89q-66 0 -66 89v1078h-97q-67 0 -67 67q0 63 67 63h97v109q0 68 65 68t65 -68v-109h198q82 0 82 -63q0 -67 -82 -67
h-198v-227z" />
    <glyph glyph-name="Itilde" unicode="&#x128;" 
d="M493 132v1102h-242q-86 0 -86 66t77 66h635q80 0 80 -63q0 -69 -80 -69h-248v-1102h237q91 0 91 -66t-91 -66h-626q-75 0 -75 63q0 69 75 69h253zM450 1559q-16 0 -49.5 -41t-68.5 -41q-52 0 -52 45q0 31 50 114q52 87 80 87q39 0 139.5 -41t130.5 -41q23 0 55.5 41
t67.5 41q53 0 53 -44q0 -34 -48 -115q-51 -87 -83 -87q-44 0 -140 41t-135 41z" />
    <glyph glyph-name="itilde" unicode="&#x129;" 
d="M519 128v747h-217q-97 0 -97 67q0 61 97 61h257q90 0 90 -82v-793h244q91 0 91 -65q0 -63 -84 -63h-679q-84 0 -84 63q0 65 84 65h298zM440 1229q-16 0 -49.5 -41t-68.5 -41q-52 0 -52 45q0 31 50 114q52 87 80 87q39 0 139.5 -41t130.5 -41q23 0 55.5 41t67.5 41
q53 0 53 -44q0 -34 -48 -115q-51 -87 -83 -87q-44 0 -140 41t-135 41z" />
    <glyph glyph-name="Imacron" unicode="&#x12a;" 
d="M493 132v1102h-242q-86 0 -86 66t77 66h635q80 0 80 -63q0 -69 -80 -69h-248v-1102h237q91 0 91 -66t-91 -66h-626q-75 0 -75 63q0 69 75 69h253zM320 1641h476q78 0 78 -63q0 -30 -23.5 -48.5t-53.5 -18.5h-477q-74 0 -74 65t74 65z" />
    <glyph glyph-name="imacron" unicode="&#x12b;" 
d="M519 128v747h-217q-97 0 -97 67q0 61 97 61h257q90 0 90 -82v-793h244q91 0 91 -65q0 -63 -84 -63h-679q-84 0 -84 63q0 65 84 65h298zM312 1281h476q78 0 78 -63q0 -30 -23.5 -48.5t-53.5 -18.5h-477q-74 0 -74 65t74 65z" />
    <glyph glyph-name="Ibreve" unicode="&#x12c;" 
d="M493 132v1102h-242q-86 0 -86 66t77 66h635q80 0 80 -63q0 -69 -80 -69h-248v-1102h237q91 0 91 -66t-91 -66h-626q-75 0 -75 63q0 69 75 69h253zM785 1754q61 0 61 -79q0 -99 -89 -167q-82 -61 -185 -61q-104 0 -195 59q-104 66 -104 164q0 84 63 84q32 0 59 -46
q36 -71 51 -86q46 -46 126 -46q65 0 103 46q5 6 54 86q21 46 56 46z" />
    <glyph glyph-name="ibreve" unicode="&#x12d;" 
d="M519 128v747h-217q-97 0 -97 67q0 61 97 61h257q90 0 90 -82v-793h244q91 0 91 -65q0 -63 -84 -63h-679q-84 0 -84 63q0 65 84 65h298zM825 1454q61 0 61 -79q0 -99 -89 -167q-82 -61 -185 -61q-104 0 -195 59q-104 66 -104 164q0 84 63 84q32 0 59 -46q36 -71 51 -86
q46 -46 126 -46q65 0 103 46q5 6 54 86q21 46 56 46z" />
    <glyph glyph-name="Iogonek" unicode="&#x12e;" 
d="M865 0v-141q0 -71 -61 -71q-21 0 -55.5 18.5t-54.5 18.5q-81 0 -81 -107q0 -121 110 -121q20 0 58 13t58 13q56 0 56 -52q0 -76 -170 -76q-108 0 -173 57q-68 59 -68 166q0 86 50 149q54 68 138 68q32 0 70 -16v81h-503q-75 0 -75 63q0 69 75 69h253v1102h-242
q-86 0 -86 66t77 66h635q80 0 80 -63q0 -69 -80 -69h-248v-1102h237q91 0 91 -66t-91 -66z" />
    <glyph glyph-name="iogonek" unicode="&#x12f;" 
d="M556 1454q50 0 85 -36.5t35 -86.5q0 -51 -35.5 -87t-86.5 -36q-52 0 -87.5 35.5t-35.5 87.5t36.5 87.5t88.5 35.5zM930 -141q0 -71 -61 -71q-21 0 -55.5 18.5t-54.5 18.5q-81 0 -81 -107q0 -121 110 -121q20 0 58 13t58 13q56 0 56 -52q0 -76 -170 -76q-108 0 -173 57
q-68 59 -68 166q0 86 50 149q54 68 138 68q32 0 70 -16v81h-586q-84 0 -84 63q0 65 84 65h298v747h-248q-66 0 -66 64t66 64h313q65 0 65 -64v-811h269q66 0 66 -65q0 -63 -54 -63v-141z" />
    <glyph glyph-name="IJ" unicode="&#x132;" 
d="M204 132v1104h-103q-74 0 -74 64q0 66 74 66h338q80 0 80 -63q0 -67 -80 -67h-98v-1104h78q80 0 80 -66t-80 -66h-318q-74 0 -74 63q0 69 74 69h103zM914 1236h-284q-71 0 -71 64q0 66 71 66h352q69 0 69 -66v-990q0 -338 -299 -338q-126 0 -207 97q-68 90 -68 184
q0 88 68 88q44 0 62 -71q22 -86 37 -110q37 -56 124 -56q146 0 146 206v926z" />
    <glyph glyph-name="ij" unicode="&#x133;" 
d="M342 128v747h-152q-94 0 -94 64t97 64h212q66 0 66 -64v-811h134q65 0 65 -65q0 -63 -65 -63h-445q-64 0 -64 63q0 65 64 65h182zM861 875h-184q-67 0 -67 64t67 64h248q65 0 65 -64v-1037q0 -334 -316 -334q-168 0 -267 115q-66 80 -66 149q0 72 63 72q35 0 62 -54
q39 -78 60 -100q51 -54 145 -54q190 0 190 206v973zM371 1454q50 0 85.5 -36.5t35.5 -86.5q0 -51 -36 -87t-87 -36t-87 36t-36 87q0 52 36.5 87.5t88.5 35.5zM870 1454q50 0 85 -36.5t35 -86.5q0 -51 -35.5 -87t-86.5 -36q-52 0 -87.5 35.5t-35.5 87.5t36.5 87.5t88.5 35.5z
" />
    <glyph glyph-name="Jcircumflex" unicode="&#x134;" 
d="M861 1234h-421q-71 0 -71 65q0 67 71 67h493q64 0 64 -84v-888q0 -201 -129 -314q-123 -107 -327 -107q-238 0 -366 169q-79 105 -79 185q0 77 72 77q39 0 51 -38l15 -49q31 -101 116 -158q81 -55 190 -55q142 0 229 73q92 77 92 217v840zM570 1613l-168 -133
q-39 -31 -73 -31q-46 0 -46 46q0 26 31 61l164 183q40 45 93 45q50 0 90 -45l164 -183q32 -36 32 -59q0 -48 -47 -48q-34 0 -73 31z" />
    <glyph glyph-name="jcircumflex" unicode="&#x135;" 
d="M696 875h-241q-87 0 -87 64t87 64h285q86 0 86 -84v-987q0 -185 -82 -273q-86 -91 -270 -91q-146 0 -278 102q-128 99 -128 197q0 93 67 92q21 0 53 -73q38 -86 88 -121q99 -70 201 -70q123 0 173 58q46 53 46 179v943zM550 1283l-168 -133q-39 -31 -73 -31q-46 0 -46 46
q0 26 31 61l164 183q40 45 93 45q50 0 90 -45l164 -183q32 -36 32 -59q0 -48 -47 -48q-34 0 -73 31z" />
    <glyph glyph-name="Kcedilla" unicode="&#x136;" 
d="M246 386v-337q0 -76 -70 -76q-67 0 -67 76v1275q0 69 69 69q68 0 68 -74v-737l641 775q30 36 64 36q60 0 60 -57q0 -29 -22 -56l-436 -538l497 -660q15 -20 15 -45q0 -26 -19 -45t-45 -19q-35 0 -60 33l-484 636zM436 -219q0 46 34.5 74t81.5 28q62 0 96 -41t34 -104
q0 -96 -61 -179q-64 -86 -142 -86q-43 0 -43 41q0 18 51.5 61.5t51.5 76.5q0 20 -51.5 55t-51.5 74z" />
    <glyph glyph-name="kcedilla" unicode="&#x137;" 
d="M253 452l623 526q45 45 92 45q56 0 56 -62q0 -32 -35 -55l-404 -339l406 -462q33 -32 33 -59q0 -66 -46 -66q-50 0 -78 27l-414 484l-233 -196v-249q0 -67 -64 -66q-66 1 -66 66v1340q0 68 65 68t65 -68v-934zM440 -219q0 46 34.5 74t81.5 28q62 0 96 -41t34 -104
q0 -96 -61 -179q-64 -86 -142 -86q-43 0 -43 41q0 18 51.5 61.5t51.5 76.5q0 20 -51.5 55t-51.5 74z" />
    <glyph glyph-name="kgreenlandic" unicode="&#x138;" 
d="M570 575l421 -470q33 -37 33 -71q0 -54 -55 -54q-35 0 -60 28l-430 484l-226 -197v-238q0 -77 -65 -77t-65 77v877q0 89 65 89t65 -89v-482l529 489q89 82 163 82q79 0 79 -57q0 -44 -37.5 -51.5t-73.5 -21.5q-26 -13 -62 -48z" />
    <glyph glyph-name="Lacute" unicode="&#x139;" 
d="M260 132h719q86 0 86 -67q0 -65 -86 -65h-784q-27 0 -49 16.5t-22 52.5v1231q0 93 68 93t68 -99v-1162zM804 1697q0 -41 -73 -93l-176 -125q-45 -32 -72 -32q-48 0 -48 48q0 25 41 69l153 163q53 57 98 57q77 0 77 -87z" />
    <glyph glyph-name="lacute" unicode="&#x13a;" 
d="M519 128v1176h-198q-75 0 -75 63q0 67 75 67h263q65 0 65 -68v-1238h260q75 0 75 -65q0 -63 -75 -63h-689q-83 0 -83 65q0 63 83 63h299zM744 1747q0 -41 -73 -93l-176 -125q-45 -32 -72 -32q-48 0 -48 48q0 25 41 69l153 163q53 57 98 57q77 0 77 -87z" />
    <glyph glyph-name="Lcedilla" unicode="&#x13b;" 
d="M260 132h719q86 0 86 -67q0 -65 -86 -65h-784q-27 0 -49 16.5t-22 52.5v1231q0 93 68 93t68 -99v-1162zM426 -219q0 46 34.5 74t81.5 28q62 0 96 -41t34 -104q0 -96 -61 -179q-64 -86 -142 -86q-43 0 -43 41q0 18 51.5 61.5t51.5 76.5q0 20 -51.5 55t-51.5 74z" />
    <glyph glyph-name="lcedilla" unicode="&#x13c;" 
d="M519 128v1176h-198q-75 0 -75 63q0 67 75 67h263q65 0 65 -68v-1238h260q75 0 75 -65q0 -63 -75 -63h-689q-83 0 -83 65q0 63 83 63h299zM448 -219q0 46 34.5 74t81.5 28q62 0 96 -41t34 -104q0 -96 -61 -179q-64 -86 -142 -86q-43 0 -43 41q0 18 51.5 61.5t51.5 76.5
q0 20 -51.5 55t-51.5 74z" />
    <glyph glyph-name="Lcaron" unicode="&#x13d;" 
d="M260 132h719q86 0 86 -67q0 -65 -86 -65h-784q-27 0 -49 16.5t-22 52.5v1231q0 93 68 93t68 -99v-1162zM777 1291q0 46 34.5 74t81.5 28q62 0 96 -41t34 -104q0 -96 -61 -179q-64 -86 -142 -86q-43 0 -43 41q0 18 51.5 61.5t51.5 76.5q0 20 -51.5 55t-51.5 74z" />
    <glyph glyph-name="lcaron" unicode="&#x13e;" 
d="M519 128v1176h-198q-75 0 -75 63q0 67 75 67h263q65 0 65 -68v-1238h260q75 0 75 -65q0 -63 -75 -63h-689q-83 0 -83 65q0 63 83 63h299zM876 1354q0 46 34.5 74t81.5 28q62 0 96 -41t34 -104q0 -96 -61 -179q-64 -86 -142 -86q-43 0 -43 41q0 18 51.5 61.5t51.5 76.5
q0 20 -51.5 55t-51.5 74z" />
    <glyph glyph-name="Ldot" unicode="&#x13f;" 
d="M260 132h719q86 0 86 -67q0 -65 -86 -65h-784q-27 0 -49 16.5t-22 52.5v1231q0 93 68 93t68 -99v-1162zM751 914q49 0 84 -36.5t35 -86.5q0 -51 -35.5 -87t-86.5 -36q-52 0 -87.5 35.5t-35.5 87.5t36.5 87.5t89.5 35.5z" />
    <glyph glyph-name="ldot" unicode="&#x140;" 
d="M519 128v1176h-198q-75 0 -75 63q0 67 75 67h263q65 0 65 -68v-1238h260q75 0 75 -65q0 -63 -75 -63h-689q-83 0 -83 65q0 63 83 63h299zM1016 894q49 0 84 -36.5t35 -86.5q0 -51 -35.5 -87t-86.5 -36q-52 0 -87.5 35.5t-35.5 87.5t36.5 87.5t89.5 35.5z" />
    <glyph glyph-name="Nacute" unicode="&#x143;" 
d="M888 259v1040q0 94 66 94q70 0 70 -94v-1255q0 -71 -68 -71q-47 0 -73 43l-650 1090v-1056q0 -77 -72 -77q-65 0 -65 77v1249q0 94 66 94q41 0 72 -52zM764 1697q0 -41 -73 -93l-176 -125q-45 -32 -72 -32q-48 0 -48 48q0 25 41 69l153 163q53 57 98 57q77 0 77 -87z" />
    <glyph glyph-name="nacute" unicode="&#x144;" 
d="M253 900q99 72 170 96q68 27 183 27q404 0 404 -336v-617q0 -90 -66 -90q-63 0 -63 90v613q0 110 -66.5 161t-214.5 51q-108 0 -183 -38q-61 -27 -164 -104v-683q0 -90 -64 -90q-66 0 -66 90v876q0 77 62 77q34 0 50 -48q11 -38 18 -75zM774 1367q0 -41 -73 -93
l-176 -125q-45 -32 -72 -32q-48 0 -48 48q0 25 41 69l153 163q53 57 98 57q77 0 77 -87z" />
    <glyph glyph-name="Ncedilla" unicode="&#x145;" 
d="M888 259v1040q0 94 66 94q70 0 70 -94v-1255q0 -71 -68 -71q-47 0 -73 43l-650 1090v-1056q0 -77 -72 -77q-65 0 -65 77v1249q0 94 66 94q41 0 72 -52zM446 -219q0 46 34.5 74t81.5 28q62 0 96 -41t34 -104q0 -96 -61 -179q-64 -86 -142 -86q-43 0 -43 41q0 18 51.5 61.5
t51.5 76.5q0 20 -51.5 55t-51.5 74z" />
    <glyph glyph-name="ncedilla" unicode="&#x146;" 
d="M253 900q99 72 170 96q68 27 183 27q404 0 404 -336v-617q0 -90 -66 -90q-63 0 -63 90v613q0 110 -66.5 161t-214.5 51q-108 0 -183 -38q-61 -27 -164 -104v-683q0 -90 -64 -90q-66 0 -66 90v876q0 77 62 77q34 0 50 -48q11 -38 18 -75zM478 -219q0 46 34.5 74t81.5 28
q62 0 96 -41t34 -104q0 -96 -61 -179q-64 -86 -142 -86q-43 0 -43 41q0 18 51.5 61.5t51.5 76.5q0 20 -51.5 55t-51.5 74z" />
    <glyph glyph-name="Ncaron" unicode="&#x147;" 
d="M888 259v1040q0 94 66 94q70 0 70 -94v-1255q0 -71 -68 -71q-47 0 -73 43l-650 1090v-1056q0 -77 -72 -77q-65 0 -65 77v1249q0 94 66 94q41 0 72 -52zM570 1613l167 140q37 31 72 31q48 0 48 -47q0 -24 -32 -60l-164 -182q-41 -45 -92 -45q-50 0 -91 45l-164 182
q-31 34 -31 60q0 47 46 47q36 0 73 -31z" />
    <glyph glyph-name="ncaron" unicode="&#x148;" 
d="M253 900q99 72 170 96q68 27 183 27q404 0 404 -336v-617q0 -90 -66 -90q-63 0 -63 90v613q0 110 -66.5 161t-214.5 51q-108 0 -183 -38q-61 -27 -164 -104v-683q0 -90 -64 -90q-66 0 -66 90v876q0 77 62 77q34 0 50 -48q11 -38 18 -75zM550 1283l167 140q37 31 72 31
q48 0 48 -47q0 -24 -32 -60l-164 -182q-41 -45 -92 -45q-50 0 -91 45l-164 182q-31 34 -31 60q0 47 46 47q36 0 73 -31z" />
    <glyph glyph-name="napostrophe" unicode="&#x149;" 
d="M283 900q99 72 170 96q68 27 183 27q404 0 404 -336v-617q0 -90 -66 -90q-63 0 -63 90v613q0 110 -66.5 161t-214.5 51q-108 0 -183 -38q-61 -27 -164 -104v-683q0 -90 -64 -90q-66 0 -66 90v876q0 77 62 77q34 0 50 -48q11 -38 18 -75zM-73 1291q0 46 34.5 74t81.5 28
q62 0 96 -41t34 -104q0 -96 -61 -179q-64 -86 -142 -86q-43 0 -43 41q0 18 51.5 61.5t51.5 76.5q0 20 -51.5 55t-51.5 74z" />
    <glyph glyph-name="Eng" unicode="&#x14a;" 
d="M888 0l-655 1106v-1056q0 -77 -72 -77q-65 0 -65 77v1249q0 94 66 94q41 0 72 -52l654 -1082v1040q0 94 66 94q70 0 70 -94v-1359q0 -372 -450 -372q-204 0 -319 92q-61 49 -61 95q0 59 56 59q9 0 114.5 -59.5t221.5 -59.5q129 0 207 50q95 61 95 191v64z" />
    <glyph glyph-name="eng" unicode="&#x14b;" 
d="M253 753v-683q0 -90 -64 -90q-66 0 -66 90v871q0 82 53 82q31 0 52 -45l25 -78q93 72 165.5 97.5t187.5 25.5q404 0 404 -338v-749q0 -368 -452 -368q-204 0 -319 94q-59 48 -59 93q0 59 55 59q9 0 113.5 -59.5t223.5 -59.5q309 0 309 241v739q0 118 -66 169t-214 51
q-104 0 -187 -37q-64 -29 -161 -105z" />
    <glyph glyph-name="Omacron" unicode="&#x14c;" 
d="M96 391v566q0 217 133 330q124 106 345 106q212 0 330 -111q120 -114 120 -325v-566q0 -205 -131 -315q-122 -103 -331 -103t-333 103q-133 110 -133 315zM888 401v545q0 315 -339 315q-147 0 -231.5 -81t-84.5 -228v-551q0 -144 94 -223q87 -74 234 -74q327 0 327 297z
M320 1641h476q78 0 78 -63q0 -30 -23.5 -48.5t-53.5 -18.5h-477q-74 0 -74 65t74 65z" />
    <glyph glyph-name="omacron" unicode="&#x14d;" 
d="M109 317v368q0 338 451 338q450 0 450 -338v-368q0 -338 -444 -337q-457 -1 -457 337zM880 317v368q0 210 -327 210q-314 0 -314 -210v-368q0 -210 323 -209q318 -1 318 209zM320 1281h476q78 0 78 -63q0 -30 -23.5 -48.5t-53.5 -18.5h-477q-74 0 -74 65t74 65z" />
    <glyph glyph-name="Obreve" unicode="&#x14e;" 
d="M96 391v566q0 217 133 330q124 106 345 106q212 0 330 -111q120 -114 120 -325v-566q0 -205 -131 -315q-122 -103 -331 -103t-333 103q-133 110 -133 315zM888 401v545q0 315 -339 315q-147 0 -231.5 -81t-84.5 -228v-551q0 -144 94 -223q87 -74 234 -74q327 0 327 297z
M785 1754q61 0 61 -79q0 -99 -89 -167q-82 -61 -185 -61q-104 0 -195 59q-104 66 -104 164q0 84 63 84q32 0 59 -46q36 -71 51 -86q46 -46 126 -46q65 0 103 46q5 6 54 86q21 46 56 46z" />
    <glyph glyph-name="obreve" unicode="&#x14f;" 
d="M109 317v368q0 338 451 338q450 0 450 -338v-368q0 -338 -444 -337q-457 -1 -457 337zM880 317v368q0 210 -327 210q-314 0 -314 -210v-368q0 -210 323 -209q318 -1 318 209zM785 1454q61 0 61 -79q0 -99 -89 -167q-82 -61 -185 -61q-104 0 -195 59q-104 66 -104 164
q0 84 63 84q32 0 59 -46q36 -71 51 -86q46 -46 126 -46q65 0 103 46q5 6 54 86q21 46 56 46z" />
    <glyph glyph-name="Odblacute" unicode="&#x150;" 
d="M96 391v566q0 217 133 330q124 106 345 106q212 0 330 -111q120 -114 120 -325v-566q0 -205 -131 -315q-122 -103 -331 -103t-333 103q-133 110 -133 315zM888 401v545q0 315 -339 315q-147 0 -231.5 -81t-84.5 -228v-551q0 -144 94 -223q87 -74 234 -74q327 0 327 297z
M644 1697q0 -41 -73 -93l-176 -125q-45 -32 -72 -32q-48 0 -48 48q0 25 41 69l153 163q53 57 98 57q77 0 77 -87zM1024 1697q0 -41 -73 -93l-176 -125q-45 -32 -72 -32q-48 0 -48 48q0 25 41 69l153 163q53 57 98 57q77 0 77 -87z" />
    <glyph glyph-name="odblacute" unicode="&#x151;" 
d="M109 317v368q0 338 451 338q450 0 450 -338v-368q0 -338 -444 -337q-457 -1 -457 337zM880 317v368q0 210 -327 210q-314 0 -314 -210v-368q0 -210 323 -209q318 -1 318 209zM609 1367q0 -41 -73 -93l-176 -125q-45 -32 -72 -32q-48 0 -48 48q0 25 41 69l153 163
q53 57 98 57q77 0 77 -87zM989 1367q0 -41 -73 -93l-176 -125q-45 -32 -72 -32q-48 0 -48 48q0 25 41 69l153 163q53 57 98 57q77 0 77 -87z" />
    <glyph glyph-name="Racute" unicode="&#x154;" 
d="M769 615l292 -524q18 -32 18 -60q0 -59 -62 -59q-44 0 -73 51l-316 564h-382v-537q0 -78 -68 -78q-69 0 -69 78v1242q0 42 14 58t56 16h503q173 0 267 -109q88 -103 88 -279q0 -160 -57.5 -239t-210.5 -124zM246 719h376q279 0 279 258q0 112 -49 180q-55 78 -163 78
h-443v-516zM744 1697q0 -41 -73 -93l-176 -125q-45 -32 -72 -32q-48 0 -48 48q0 25 41 69l153 163q53 57 98 57q77 0 77 -87z" />
    <glyph glyph-name="racute" unicode="&#x155;" 
d="M382 128v747h-195q-78 0 -78 64q0 65 78 64h258q67 -1 67 -111q120 131 256 131q111 0 177 -69.5t66 -180.5q0 -77 -65 -77q-39 0 -55 51q-28 91 -31 96q-29 51 -101 51q-75 0 -141 -54q-36 -28 -106 -113v-599h243q78 0 78 -61q0 -67 -78 -67h-568q-78 0 -78 63
q0 65 78 65h195zM784 1367q0 -41 -73 -93l-176 -125q-45 -32 -72 -32q-48 0 -48 48q0 25 41 69l153 163q53 57 98 57q77 0 77 -87z" />
    <glyph glyph-name="Rcedilla" unicode="&#x156;" 
d="M769 615l292 -524q18 -32 18 -60q0 -59 -62 -59q-44 0 -73 51l-316 564h-382v-537q0 -78 -68 -78q-69 0 -69 78v1242q0 42 14 58t56 16h503q173 0 267 -109q88 -103 88 -279q0 -160 -57.5 -239t-210.5 -124zM246 719h376q279 0 279 258q0 112 -49 180q-55 78 -163 78
h-443v-516zM456 -219q0 46 34.5 74t81.5 28q62 0 96 -41t34 -104q0 -96 -61 -179q-64 -86 -142 -86q-43 0 -43 41q0 18 51.5 61.5t51.5 76.5q0 20 -51.5 55t-51.5 74z" />
    <glyph glyph-name="rcedilla" unicode="&#x157;" 
d="M382 128v747h-195q-78 0 -78 64q0 65 78 64h258q67 -1 67 -111q120 131 256 131q111 0 177 -69.5t66 -180.5q0 -77 -65 -77q-39 0 -55 51q-28 91 -31 96q-29 51 -101 51q-75 0 -141 -54q-36 -28 -106 -113v-599h243q78 0 78 -61q0 -67 -78 -67h-568q-78 0 -78 63
q0 65 78 65h195zM520 -219q0 46 34.5 74t81.5 28q62 0 96 -41t34 -104q0 -96 -61 -179q-64 -86 -142 -86q-43 0 -43 41q0 18 51.5 61.5t51.5 76.5q0 20 -51.5 55t-51.5 74z" />
    <glyph glyph-name="Rcaron" unicode="&#x158;" 
d="M769 615l292 -524q18 -32 18 -60q0 -59 -62 -59q-44 0 -73 51l-316 564h-382v-537q0 -78 -68 -78q-69 0 -69 78v1242q0 42 14 58t56 16h503q173 0 267 -109q88 -103 88 -279q0 -160 -57.5 -239t-210.5 -124zM246 719h376q279 0 279 258q0 112 -49 180q-55 78 -163 78
h-443v-516zM560 1613l167 140q37 31 72 31q48 0 48 -47q0 -24 -32 -60l-164 -182q-41 -45 -92 -45q-50 0 -91 45l-164 182q-31 34 -31 60q0 47 46 47q36 0 73 -31z" />
    <glyph glyph-name="rcaron" unicode="&#x159;" 
d="M382 128v747h-195q-78 0 -78 64q0 65 78 64h258q67 -1 67 -111q120 131 256 131q111 0 177 -69.5t66 -180.5q0 -77 -65 -77q-39 0 -55 51q-28 91 -31 96q-29 51 -101 51q-75 0 -141 -54q-36 -28 -106 -113v-599h243q78 0 78 -61q0 -67 -78 -67h-568q-78 0 -78 63
q0 65 78 65h195zM603 1283l167 140q37 31 72 31q48 0 48 -47q0 -24 -32 -60l-164 -182q-41 -45 -92 -45q-50 0 -91 45l-164 182q-31 34 -31 60q0 47 46 47q36 0 73 -31z" />
    <glyph glyph-name="Sacute" unicode="&#x15a;" 
d="M90 1027q0 187 136 283q118 83 313 83q302 0 432 -148q34 -39 34 -71q0 -56 -59 -56q-24 0 -72.5 33t-110.5 62q-106 48 -235 48q-126 0 -206 -51q-96 -60 -96 -179q0 -141 212 -206l384 -120q223 -98 223 -346q0 -192 -158 -302q-133 -85 -345 -85q-130 0 -275 44
q-192 59 -192 156q0 57 58 57q28 0 130 -56q126 -69 290 -69q142 0 240 62q116 73 116 207q0 188 -224 244l-290 92q-305 81 -305 318zM764 1697q0 -41 -73 -93l-176 -125q-45 -32 -72 -32q-48 0 -48 48q0 25 41 69l153 163q53 57 98 57q77 0 77 -87z" />
    <glyph glyph-name="sacute" unicode="&#x15b;" 
d="M143 726q0 297 394 297q121 0 240 -41q159 -56 159 -152q0 -53 -53 -53q-16 0 -126 59t-221 59q-100 0 -172 -32q-91 -47 -91 -134q0 -104 197 -135l265 -42q268 -42 268 -257q0 -155 -131 -242q-112 -74 -285 -74q-220 0 -356 96q-115 81 -115 131q0 54 54 54
q22 0 81 -40q78 -52 127 -73q89 -40 185 -40q113 0 199 41q112 53 112 143q0 115 -190 147q-175 30 -351 60q-190 60 -190 228zM764 1367q0 -41 -73 -93l-176 -125q-45 -32 -72 -32q-48 0 -48 48q0 25 41 69l153 163q53 57 98 57q77 0 77 -87z" />
    <glyph glyph-name="Scircumflex" unicode="&#x15c;" 
d="M90 1027q0 187 136 283q118 83 313 83q302 0 432 -148q34 -39 34 -71q0 -56 -59 -56q-24 0 -72.5 33t-110.5 62q-106 48 -235 48q-126 0 -206 -51q-96 -60 -96 -179q0 -141 212 -206l384 -120q223 -98 223 -346q0 -192 -158 -302q-133 -85 -345 -85q-130 0 -275 44
q-192 59 -192 156q0 57 58 57q28 0 130 -56q126 -69 290 -69q142 0 240 62q116 73 116 207q0 188 -224 244l-290 92q-305 81 -305 318zM560 1613l-168 -133q-39 -31 -73 -31q-46 0 -46 46q0 26 31 61l164 183q40 45 93 45q50 0 90 -45l164 -183q32 -36 32 -59q0 -48 -47 -48
q-34 0 -73 31z" />
    <glyph glyph-name="scircumflex" unicode="&#x15d;" 
d="M143 726q0 297 394 297q121 0 240 -41q159 -56 159 -152q0 -53 -53 -53q-16 0 -126 59t-221 59q-100 0 -172 -32q-91 -47 -91 -134q0 -104 197 -135l265 -42q268 -42 268 -257q0 -155 -131 -242q-112 -74 -285 -74q-220 0 -356 96q-115 81 -115 131q0 54 54 54
q22 0 81 -40q78 -52 127 -73q89 -40 185 -40q113 0 199 41q112 53 112 143q0 115 -190 147q-175 30 -351 60q-190 60 -190 228zM560 1283l-168 -133q-39 -31 -73 -31q-46 0 -46 46q0 26 31 61l164 183q40 45 93 45q50 0 90 -45l164 -183q32 -36 32 -59q0 -48 -47 -48
q-34 0 -73 31z" />
    <glyph glyph-name="Tcedilla" unicode="&#x162;" 
d="M492 1235h-366q-71 0 -71 63q0 68 81 68h846q83 0 83 -65q0 -66 -83 -66h-354v-1185q0 -78 -67 -78q-69 0 -69 78v1185zM436 -219q0 46 34.5 74t81.5 28q62 0 96 -41t34 -104q0 -96 -61 -179q-64 -86 -142 -86q-43 0 -43 41q0 18 51.5 61.5t51.5 76.5q0 20 -51.5 55
t-51.5 74z" />
    <glyph glyph-name="tcedilla" unicode="&#x163;" 
d="M380 875h-184q-73 0 -73 64t73 64h184v350q0 101 65 101t65 -101v-350h345q74 0 74 -62q0 -66 -74 -66h-345v-573q0 -195 182 -195q96 0 184 59t103 59q59 0 59 -57q0 -69 -145 -143q-99 -45 -215 -45q-298 0 -298 322v573zM511 -219q0 46 34.5 74t81.5 28q62 0 96 -41
t34 -104q0 -96 -61 -179q-64 -86 -142 -86q-43 0 -43 41q0 18 51.5 61.5t51.5 76.5q0 20 -51.5 55t-51.5 74z" />
    <glyph glyph-name="Tcaron" unicode="&#x164;" 
d="M492 1235h-366q-71 0 -71 63q0 68 81 68h846q83 0 83 -65q0 -66 -83 -66h-354v-1185q0 -78 -67 -78q-69 0 -69 78v1185zM560 1613l167 140q37 31 72 31q48 0 48 -47q0 -24 -32 -60l-164 -182q-41 -45 -92 -45q-50 0 -91 45l-164 182q-31 34 -31 60q0 47 46 47
q36 0 73 -31z" />
    <glyph glyph-name="tcaron" unicode="&#x165;" 
d="M320 875h-184q-73 0 -73 64t73 64h184v350q0 101 65 101t65 -101v-350h345q74 0 74 -62q0 -66 -74 -66h-345v-573q0 -195 182 -195q96 0 184 59t103 59q59 0 59 -57q0 -69 -145 -143q-99 -45 -215 -45q-298 0 -298 322v573zM836 1352q0 46 34.5 74t81.5 28q62 0 96 -41
t34 -104q0 -96 -61 -179q-64 -86 -142 -86q-43 0 -43 41q0 18 51.5 61.5t51.5 76.5q0 20 -51.5 55t-51.5 74z" />
    <glyph glyph-name="Tbar" unicode="&#x166;" 
d="M628 787h192q82 0 82 -64q0 -68 -82 -68h-192v-605q0 -78 -67 -78q-69 0 -69 78v605h-191q-82 0 -82 68q0 64 82 64h191v448h-366q-71 0 -71 63q0 68 81 68h846q83 0 83 -65q0 -66 -83 -66h-354v-448z" />
    <glyph glyph-name="tbar" unicode="&#x167;" 
d="M510 614h176q81 0 81 -64q0 -68 -81 -68h-176v-169q0 -206 182 -206q116 0 190.5 59t96.5 59q59 0 59 -57q0 -75 -142 -143q-102 -45 -218 -45q-298 0 -298 338v164h-175q-82 0 -82 68q0 64 82 64h175v261h-184q-73 0 -73 64t73 64h184v350q0 101 65 101t65 -101v-350
h345q74 0 74 -62q0 -66 -74 -66h-345v-261z" />
    <glyph glyph-name="Utilde" unicode="&#x168;" 
d="M102 397v908q0 88 66 88q71 0 71 -88v-906q0 -146 99 -224q90 -71 240 -71q302 0 302 295v904q0 90 67 90q70 0 70 -90v-906q0 -207 -119 -317q-115 -107 -324 -107q-207 0 -335 107q-137 114 -137 317zM470 1559q-16 0 -49.5 -41t-68.5 -41q-52 0 -52 45q0 31 50 114
q52 87 80 87q39 0 139.5 -41t130.5 -41q23 0 55.5 41t67.5 41q53 0 53 -44q0 -34 -48 -115q-51 -87 -83 -87q-44 0 -140 41t-135 41z" />
    <glyph glyph-name="utilde" unicode="&#x169;" 
d="M874 114q-100 -74 -172 -102q-84 -32 -198 -32q-187 0 -289 87q-106 92 -106 251v632q0 73 64 73q66 0 66 -73v-620q0 -119 74 -174q68 -50 217 -50q182 0 337 142v702q0 73 65 73q64 0 64 -73v-896q0 -74 -56 -74q-34 0 -50 53q-11 40 -16 81zM450 1229q-16 0 -49.5 -41
t-68.5 -41q-52 0 -52 45q0 31 50 114q52 87 80 87q39 0 139.5 -41t130.5 -41q23 0 55.5 41t67.5 41q53 0 53 -44q0 -34 -48 -115q-51 -87 -83 -87q-44 0 -140 41t-135 41z" />
    <glyph glyph-name="Umacron" unicode="&#x16a;" 
d="M102 397v908q0 88 66 88q71 0 71 -88v-906q0 -146 99 -224q90 -71 240 -71q302 0 302 295v904q0 90 67 90q70 0 70 -90v-906q0 -207 -119 -317q-115 -107 -324 -107q-207 0 -335 107q-137 114 -137 317zM320 1641h476q78 0 78 -63q0 -30 -23.5 -48.5t-53.5 -18.5h-477
q-74 0 -74 65t74 65z" />
    <glyph glyph-name="umacron" unicode="&#x16b;" 
d="M874 114q-100 -74 -172 -102q-84 -32 -198 -32q-187 0 -289 87q-106 92 -106 251v632q0 73 64 73q66 0 66 -73v-620q0 -119 74 -174q68 -50 217 -50q182 0 337 142v702q0 73 65 73q64 0 64 -73v-896q0 -74 -56 -74q-34 0 -50 53q-11 40 -16 81zM320 1281h476q78 0 78 -63
q0 -30 -23.5 -48.5t-53.5 -18.5h-477q-74 0 -74 65t74 65z" />
    <glyph glyph-name="Ubreve" unicode="&#x16c;" 
d="M102 397v908q0 88 66 88q71 0 71 -88v-906q0 -146 99 -224q90 -71 240 -71q302 0 302 295v904q0 90 67 90q70 0 70 -90v-906q0 -207 -119 -317q-115 -107 -324 -107q-207 0 -335 107q-137 114 -137 317zM785 1784q61 0 61 -79q0 -99 -89 -167q-82 -61 -185 -61
q-104 0 -195 59q-104 66 -104 164q0 84 63 84q32 0 59 -46q36 -71 51 -86q46 -46 126 -46q65 0 103 46q5 6 54 86q21 46 56 46z" />
    <glyph glyph-name="ubreve" unicode="&#x16d;" 
d="M874 114q-100 -74 -172 -102q-84 -32 -198 -32q-187 0 -289 87q-106 92 -106 251v632q0 73 64 73q66 0 66 -73v-620q0 -119 74 -174q68 -50 217 -50q182 0 337 142v702q0 73 65 73q64 0 64 -73v-896q0 -74 -56 -74q-34 0 -50 53q-11 40 -16 81zM785 1454q61 0 61 -79
q0 -99 -89 -167q-82 -61 -185 -61q-104 0 -195 59q-104 66 -104 164q0 84 63 84q32 0 59 -46q36 -71 51 -86q46 -46 126 -46q65 0 103 46q5 6 54 86q21 46 56 46z" />
    <glyph glyph-name="Uring" unicode="&#x16e;" 
d="M102 397v908q0 88 66 88q71 0 71 -88v-906q0 -146 99 -224q90 -71 240 -71q302 0 302 295v904q0 90 67 90q70 0 70 -90v-906q0 -207 -119 -317q-115 -107 -324 -107q-207 0 -335 107q-137 114 -137 317zM553 1417q-89 0 -148.5 62.5t-59.5 151.5q0 93 61.5 155t154.5 62
q92 0 153 -59.5t61 -150.5q0 -95 -63 -158t-159 -63zM565 1515q49 0 81 34.5t32 83.5q0 52 -34 85t-86 33q-48 0 -82 -33.5t-34 -81.5q0 -52 35.5 -86.5t87.5 -34.5z" />
    <glyph glyph-name="uring" unicode="&#x16f;" 
d="M874 114q-100 -74 -172 -102q-84 -32 -198 -32q-187 0 -289 87q-106 92 -106 251v632q0 73 64 73q66 0 66 -73v-620q0 -119 74 -174q68 -50 217 -50q182 0 337 142v702q0 73 65 73q64 0 64 -73v-896q0 -74 -56 -74q-34 0 -50 53q-11 40 -16 81zM563 1117
q-89 0 -148.5 62.5t-59.5 151.5q0 93 61.5 155t154.5 62q92 0 153 -59.5t61 -150.5q0 -95 -63 -158t-159 -63zM575 1215q49 0 81 34.5t32 83.5q0 52 -34 85t-86 33q-48 0 -82 -33.5t-34 -81.5q0 -52 35.5 -86.5t87.5 -34.5z" />
    <glyph glyph-name="Udblacute" unicode="&#x170;" 
d="M102 397v908q0 88 66 88q71 0 71 -88v-906q0 -146 99 -224q90 -71 240 -71q302 0 302 295v904q0 90 67 90q70 0 70 -90v-906q0 -207 -119 -317q-115 -107 -324 -107q-207 0 -335 107q-137 114 -137 317zM644 1697q0 -41 -73 -93l-176 -125q-45 -32 -72 -32q-48 0 -48 48
q0 25 41 69l153 163q53 57 98 57q77 0 77 -87zM1044 1697q0 -41 -73 -93l-176 -125q-45 -32 -72 -32q-48 0 -48 48q0 25 41 69l153 163q53 57 98 57q77 0 77 -87z" />
    <glyph glyph-name="udblacute" unicode="&#x171;" 
d="M874 114q-100 -74 -172 -102q-84 -32 -198 -32q-187 0 -289 87q-106 92 -106 251v632q0 73 64 73q66 0 66 -73v-620q0 -119 74 -174q68 -50 217 -50q182 0 337 142v702q0 73 65 73q64 0 64 -73v-896q0 -74 -56 -74q-34 0 -50 53q-11 40 -16 81zM644 1367q0 -41 -73 -93
l-176 -125q-45 -32 -72 -32q-48 0 -48 48q0 25 41 69l153 163q53 57 98 57q77 0 77 -87zM1044 1367q0 -41 -73 -93l-176 -125q-45 -32 -72 -32q-48 0 -48 48q0 25 41 69l153 163q53 57 98 57q77 0 77 -87z" />
    <glyph glyph-name="Uogonek" unicode="&#x172;" 
d="M1017 -141q0 -71 -61 -71q-21 0 -55.5 18.5t-54.5 18.5q-81 0 -81 -107q0 -121 110 -121q20 0 58 13t58 13q56 0 56 -52q0 -76 -170 -76q-108 0 -173 57q-68 59 -68 166q0 86 50 149q54 68 138 68q32 0 70 -16v164q-43 -51 -149 -83q-91 -27 -171 -27q-207 0 -335 107
q-137 114 -137 317v908q0 88 66 88q71 0 71 -88v-906q0 -146 99 -224q90 -71 240 -71q302 0 302 295v904q0 90 67 90q70 0 70 -90v-1444z" />
    <glyph glyph-name="uogonek" unicode="&#x173;" 
d="M996 -141q0 -71 -61 -71q-21 0 -55.5 18.5t-54.5 18.5q-81 0 -81 -107q0 -121 110 -121q20 0 58 13t58 13q56 0 56 -52q0 -76 -170 -76q-108 0 -173 57q-68 59 -68 166q0 86 50 149q54 68 138 68q32 0 64 -16v195q-145 -134 -363 -134q-187 0 -289 92q-106 97 -106 281
v597q0 73 64 73q66 0 66 -73v-585q0 -144 74 -204q68 -55 217 -55q182 0 337 142v702q0 73 65 73q64 0 64 -73v-1091z" />
    <glyph glyph-name="Wcircumflex" unicode="&#x174;" 
d="M313 96l133 677q25 128 114 128q92 0 123 -137l149 -668l93 1225q5 72 64 72q64 0 62 -65l-1 -28l-86 -1181q-11 -146 -131 -146q-67 0 -99 40q-22 29 -39 104l-135 600l-111 -592q-28 -152 -139 -152q-118 0 -132 152l-108 1179q-2 22 -2 30q0 59 56 59q61 0 68 -73z
M560 1613l-168 -133q-39 -31 -73 -31q-46 0 -46 46q0 26 31 61l164 183q40 45 93 45q50 0 90 -45l164 -183q32 -36 32 -59q0 -48 -47 -48q-34 0 -73 31z" />
    <glyph glyph-name="wcircumflex" unicode="&#x175;" 
d="M317 69l147 746q15 72 95 72q76 0 93 -72l182 -746l89 883q8 71 69 71q60 0 60 -69q0 -14 -10 -105l-97 -802q-18 -67 -120 -67q-89 0 -105 62l-164 714l-132 -709q-11 -67 -102 -67q-106 0 -120 80l-120 787q-14 98 -14 107q0 69 60 69q56 0 65 -66zM560 1283l-168 -133
q-39 -31 -73 -31q-46 0 -46 46q0 26 31 61l164 183q40 45 93 45q50 0 90 -45l164 -183q32 -36 32 -59q0 -48 -47 -48q-34 0 -73 31z" />
    <glyph glyph-name="Ycircumflex" unicode="&#x176;" 
d="M492 587l-379 693q-17 31 -17 54q0 59 61 59q40 0 65 -46l338 -623l335 618q28 51 67 51q63 0 63 -49q0 -23 -20 -60l-377 -705v-531q0 -75 -68 -75t-68 75v539zM560 1613l-168 -133q-39 -31 -73 -31q-46 0 -46 46q0 26 31 61l164 183q40 45 93 45q50 0 90 -45l164 -183
q32 -36 32 -59q0 -48 -47 -48q-34 0 -73 31z" />
    <glyph glyph-name="ycircumflex" unicode="&#x177;" 
d="M487 36l-363 868q-15 36 -15 57q0 62 66 62q40 0 61 -49l327 -767l304 737q28 79 81 79q62 0 62 -53q0 -23 -17 -64l-495 -1190q-62 -148 -212 -148q-63 0 -111 19q-66 27 -66 80q0 61 62 61q14 0 48 -16t65 -16q68 0 104 91zM560 1283l-168 -133q-39 -31 -73 -31
q-46 0 -46 46q0 26 31 61l164 183q40 45 93 45q50 0 90 -45l164 -183q32 -36 32 -59q0 -48 -47 -48q-34 0 -73 31z" />
    <glyph glyph-name="Zacute" unicode="&#x179;" 
d="M848 1235h-661q-92 0 -92 65q0 66 92 66h748q89 0 89 -56q0 -30 -31 -76l-749 -1102h715q92 0 92 -68q0 -42 -27 -55q-17 -9 -65 -9h-803q-88 0 -88 53q0 39 37 93zM784 1697q0 -41 -73 -93l-176 -125q-45 -32 -72 -32q-48 0 -48 48q0 25 41 69l153 163q53 57 98 57
q77 0 77 -87z" />
    <glyph glyph-name="zacute" unicode="&#x17a;" 
d="M760 875h-504q-79 0 -79 66q0 62 79 62h649q64 0 64 -49q0 -29 -23 -57l-630 -769h610q84 0 84 -64t-84 -64h-745q-72 0 -72 57q0 28 33 68zM784 1367q0 -41 -73 -93l-176 -125q-45 -32 -72 -32q-48 0 -48 48q0 25 41 69l153 163q53 57 98 57q77 0 77 -87z" />
    <glyph glyph-name="Zdot" unicode="&#x17b;" 
d="M848 1235h-661q-92 0 -92 65q0 66 92 66h748q89 0 89 -56q0 -30 -31 -76l-749 -1102h715q92 0 92 -68q0 -42 -27 -55q-17 -9 -65 -9h-803q-88 0 -88 53q0 39 37 93zM556 1724q49 0 84 -36.5t35 -86.5q0 -51 -35.5 -87t-86.5 -36q-52 0 -87.5 35.5t-35.5 87.5t36.5 87.5
t89.5 35.5z" />
    <glyph glyph-name="zdot" unicode="&#x17c;" 
d="M760 875h-504q-79 0 -79 66q0 62 79 62h649q64 0 64 -49q0 -29 -23 -57l-630 -769h610q84 0 84 -64t-84 -64h-745q-72 0 -72 57q0 28 33 68zM566 1454q49 0 84 -36.5t35 -86.5q0 -51 -35.5 -87t-86.5 -36q-52 0 -87.5 35.5t-35.5 87.5t36.5 87.5t89.5 35.5z" />
    <glyph glyph-name="longs" unicode="&#x17f;" 
d="M341 875h-142q-76 0 -76 65q0 63 76 63h142v176q0 275 333 275q134 0 224 -51q113 -62 113 -186q0 -84 -66 -84q-44 0 -62 50q-28 73 -46 93q-48 50 -164 50q-202 0 -202 -164v-1106q0 -76 -66 -76q-64 0 -64 76v819z" />
    <glyph glyph-name="SF100000" unicode="&#x2500;" 
d="M0 571v142h1120v-142h-1120z" />
    <glyph glyph-name="SF110000" unicode="&#x2502;" 
d="M489 -407v2098h142v-2098h-142z" />
    <glyph glyph-name="SF010000" unicode="&#x250c;" 
d="M490 -407v1120h630v-142h-489v-978h-141z" />
    <glyph glyph-name="SF030000" unicode="&#x2510;" 
d="M489 -407v978h-489v142h630l1 -1120h-142z" />
    <glyph glyph-name="SF020000" unicode="&#x2514;" 
d="M490 571v1120h141v-978h489v-142h-630z" />
    <glyph glyph-name="SF040000" unicode="&#x2518;" 
d="M0 571v142h489v978h141v-1120h-630z" />
    <glyph glyph-name="SF080000" unicode="&#x251c;" 
d="M490 -407v2098h141v-978h489v-142h-489v-978h-141z" />
    <glyph glyph-name="SF090000" unicode="&#x2524;" 
d="M489 -407v978h-489v142h489v978h141v-2098h-141z" />
    <glyph glyph-name="SF060000" unicode="&#x252c;" 
d="M489 -407v978h-489v142h1120v-142h-490v-978h-141z" />
    <glyph glyph-name="SF070000" unicode="&#x2534;" 
d="M0 571v142h489v978h141v-978h490v-142h-1120z" />
    <glyph glyph-name="SF050000" unicode="&#x253c;" 
d="M489 -407v978h-489v142h489v978h141v-978h490v-142h-490v-978h-141z" />
    <glyph glyph-name="SF430000" unicode="&#x2550;" 
d="M0 571h1120v-142h-1120v142zM0 713v142h1120v-142h-1120z" />
    <glyph glyph-name="SF240000" unicode="&#x2551;" 
d="M489 -406h-141v2097h141v-2097zM631 1691h141v-2097h-141v2097z" />
    <glyph glyph-name="SF510000" unicode="&#x2552;" 
d="M490 -407v1262h630v-142h-489v-142h489v-142h-489v-836h-141z" />
    <glyph glyph-name="SF520000" unicode="&#x2553;" 
d="M490 -407h-141v1120h771v-142h-348v-978h-141v978h-141v-978z" />
    <glyph glyph-name="SF390000" unicode="&#x2554;" 
d="M490 -407h-141v1262h771v-142h-630v-1120zM631 -407v978h489v-142h-348v-836h-141z" />
    <glyph glyph-name="SF220000" unicode="&#x2555;" 
d="M489 -407v836h-489v142h489v142h-489v142h630v-1262h-141z" />
    <glyph glyph-name="SF210000" unicode="&#x2556;" 
d="M489 -407h-140l-1 978h-348v142h771v-1120h-141v978h-141v-978z" />
    <glyph glyph-name="SF250000" unicode="&#x2557;" 
d="M489 -407h-141v836h-348v142h489v-978zM630 -407v1120h-630v142h771v-1262h-141z" />
    <glyph glyph-name="SF500000" unicode="&#x2558;" 
d="M490 429v1262h142v-836h488v-142h-488v-142h488v-142h-630z" />
    <glyph glyph-name="SF490000" unicode="&#x2559;" 
d="M349 571v1120h141v-978h141v978h141v-978h348v-142h-771z" />
    <glyph glyph-name="SF380000" unicode="&#x255a;" 
d="M349 430v1261h141v-1120h630v-141h-771zM1120 713h-489v978h141v-837h348v-141z" />
    <glyph glyph-name="SF280000" unicode="&#x255b;" 
d="M0 571h489v142h-489v142h489v836h141v-1262h-630v142z" />
    <glyph glyph-name="SF270000" unicode="&#x255c;" 
d="M0 571v142h348v978h141v-978h141v978h141v-1120h-771z" />
    <glyph glyph-name="SF260000" unicode="&#x255d;" 
d="M0 571h630v1120h141v-1262h-771v142zM0 713v142h348v836h141v-978h-489z" />
    <glyph glyph-name="SF360000" unicode="&#x255e;" 
d="M490 -406v2097h141v-836h489v-142h-489v-142h489v-142h-489v-835h-141z" />
    <glyph glyph-name="SF370000" unicode="&#x255f;" 
d="M349 -407v2098h141v-2098h-141zM631 -407v2098h141v-978h348v-142h-348v-978h-141z" />
    <glyph glyph-name="SF420000" unicode="&#x2560;" 
d="M349 -407v2098h141v-2098h-141zM631 -407v978h489v-142h-348v-836h-141zM631 713v978h141v-836h348v-142h-489z" />
    <glyph glyph-name="SF190000" unicode="&#x2561;" 
d="M489 -407v836h-489v142h489v142h-489v142h489v836h141v-2098h-141z" />
    <glyph glyph-name="SF200000" unicode="&#x2562;" 
d="M348 -407v978h-348v142h348v978h141v-2098h-141zM630 -407v2098h141v-2098h-141z" />
    <glyph glyph-name="SF230000" unicode="&#x2563;" 
d="M348 -407v836h-348v142h489v-978h-141zM630 -407v2098h141v-2098h-141zM0 713v142h348v836h141v-978h-489z" />
    <glyph glyph-name="SF470000" unicode="&#x2564;" 
d="M0 571h1120v-142h-490v-836h-141v836h-489v142zM0 713v142h1120v-142h-1120z" />
    <glyph glyph-name="SF480000" unicode="&#x2565;" 
d="M0 571v142h1120v-142h-349v-978h-141v978h-141v-978h-141v978h-348z" />
    <glyph glyph-name="SF410000" unicode="&#x2566;" 
d="M0 571h489v-978h-141v836h-348v142zM0 713v142h1120v-142h-1120zM1120 571v-142h-349v-836h-141v978h490z" />
    <glyph glyph-name="SF450000" unicode="&#x2567;" 
d="M0 571h1120v-142h-1120v142zM0 713v142h489v836h141v-836h490v-142h-1120z" />
    <glyph glyph-name="SF460000" unicode="&#x2568;" 
d="M0 571v142h348v978h141v-978h141v978h141v-978h349v-142h-1120z" />
    <glyph glyph-name="SF400000" unicode="&#x2569;" 
d="M0 571h1120v-142h-1120v142zM0 713v142h348v836h141v-978h-489zM630 713v978h141v-836h349v-142h-490z" />
    <glyph glyph-name="SF540000" unicode="&#x256a;" 
d="M0 571h489v142h-489v142h489v836h141v-836h490v-142h-490v-142h490v-142h-490v-836h-141v836h-489v142z" />
    <glyph glyph-name="SF530000" unicode="&#x256b;" 
d="M0 571v142h348v978h141v-978h141v978h141v-978h349v-142h-349v-978h-141v978h-141v-978h-141v978h-348z" />
    <glyph glyph-name="SF440000" unicode="&#x256c;" 
d="M0 571h489v-978h-141v836h-348v142zM0 713v142h348v836h141v-978h-489zM630 713v978h141v-836h349v-142h-490zM1120 571v-142h-349v-836h-141v978h490z" />
    <glyph glyph-name="underscoredbl" unicode="&#x2017;" 
d="M238 -302h640q78 0 78 -64q0 -66 -77 -66h-636q-79 0 -79 66q0 64 74 64zM238 -97h640q78 0 78 -64q0 -66 -77 -66h-636q-79 0 -79 66q0 64 74 64z" />
    <glyph glyph-name="exclamdbl" unicode="&#x203c;" 
d="M234 1295q-4 98 112 98q40 0 71 -22q35 -24 35 -62q0 -7 -2 -34l-50 -625q-5 -63 -57 -63q-47 0 -53 63zM345 218q55 0 88 -35.5t33 -91.5q0 -118 -121 -118q-125 0 -125 122q0 55 34.5 89t90.5 34zM668 1295q-4 98 112 98q40 0 71 -22q35 -24 35 -62q0 -7 -2 -34
l-50 -625q-5 -63 -57 -63q-47 0 -53 63zM779 218q55 0 88 -35.5t33 -91.5q0 -118 -121 -118q-125 0 -125 122q0 55 34.5 89t90.5 34z" />
    <glyph glyph-name="nsuperior" unicode="&#x207f;" 
d="M412 1341q75 52 168 52q217 0 217 -196v-296q0 -60 -48 -60q-47 0 -47 60v271q0 126 -125 126q-74 0 -158 -63v-334q0 -60 -48 -60t-48 60v436q0 52 42 56q31 -4 47 -52z" />
    <glyph glyph-name="peseta" unicode="&#x20a7;" 
d="M164 669v-619q0 -77 -62 -77q-61 0 -61 77v1251q0 65 63 65h131q143 0 224 -100q74 -93 74 -239q0 -175 -97 -266.5t-272 -91.5zM164 787h20q222 0 222 244q0 217 -193 217h-49v-461zM753 15q-57 -42 -138 -42q-154 0 -154 213v316q-66 0 -70 1q-40 7 -40 46q0 38 40 45
q4 1 70 1v145q0 74 47 74t47 -74v-145q106 0 86 2q55 -6 55 -47q0 -44 -54 -50q17 2 -87 2v-316q0 -61 9 -84q16 -40 66 -40q35 0 65 23q-13 23 -13 36q0 37 33 37q13 0 59 -52t110 -52q53 0 88 29.5t35 81.5q0 60 -83 90q-76 25 -153 51q-83 42 -83 131q0 84 61 135
q57 48 143 48q61 0 115 -30q65 -36 65 -92q0 -40 -32 -40q-12 0 -51.5 41t-93.5 41q-122 0 -122 -98q0 -56 83 -83q76 -25 153 -50q83 -42 83 -134q0 -88 -59 -145t-147 -57q-78 0 -133 42z" />
    <glyph glyph-name="intersection" unicode="&#x2229;" 
d="M1017 973v-913q0 -87 -66 -87q-71 0 -71 87v911q0 142 -99 220q-90 70 -240 70q-302 0 -302 -290v-909q0 -90 -67 -90q-70 0 -70 90v911q0 203 119 313q115 107 323 107q207 0 335 -107q138 -114 138 -313z" />
    <glyph glyph-name="equivalence" unicode="&#x2261;" 
d="M932 628q78 0 78 -63q0 -67 -77 -67h-746q-78 0 -78 65t74 65h749zM932 1110q78 0 78 -63q0 -67 -77 -67h-746q-78 0 -78 65t74 65h749zM932 130q78 0 78 -63q0 -67 -77 -67h-746q-78 0 -78 65t74 65h749z" />
    <glyph glyph-name="house" unicode="&#x2302;" 
d="M1012 0h-905v672l450 389l455 -389v-672zM238 131h643v479l-324 277l-319 -277v-479z" />
    <glyph glyph-name="revlogicalnot" unicode="&#x2310;" 
d="M239 457v-309q0 -76 -67 -76q-63 0 -63 78v371q0 66 65 66h762q74 0 74 -65t-78 -65h-693z" />
    <glyph glyph-name="minute" unicode="&#x2045;" 
d="M664 1393q47 0 80.5 -28t33.5 -74q0 -49 -42 -92l-273 -282q-40 -41 -72 -41q-50 0 -50 41q0 21 18 53l200 353q40 70 105 70z" />
    <glyph glyph-name="second" unicode="&#x2048;" 
d="M444 1393q47 0 80.5 -28t33.5 -74q0 -49 -42 -92l-273 -282q-40 -41 -72 -41q-50 0 -50 41q0 21 18 53l200 353q40 70 105 70zM884 1393q47 0 80.5 -28t33.5 -74q0 -49 -42 -92l-273 -282q-40 -41 -72 -41q-50 0 -50 41q0 21 18 53l200 353q40 70 105 70z" />
    <glyph glyph-name="afii61248" unicode="&#x2105;" 
d="M323 1393q87 0 152 -37q82 -46 82 -133q0 -45 -43 -45q-28 0 -45 31q-24 46 -36 58q-34 31 -105 31q-150 0 -150 -111v-143q0 -69 50 -93q33 -16 109 -16q86 0 132 48l8 8q20 20 38 20q42 0 42 -43q0 -35 -37 -71q-60 -56 -193 -56q-244 0 -244 203v155q0 194 240 194z
M979 1393q49 0 49 -50q0 -29 -34 -82l-795 -1239q-28 -49 -74 -49q-52 0 -53 52q0 26 25 64l791 1233q36 71 91 71zM797 526q241 0 241 -184v-179q0 -190 -238 -190q-244 0 -244 190v179q0 184 241 184zM794 431q-142 0 -142 -89v-179q0 -95 146 -95q144 0 144 95v179
q0 89 -148 89z" />
    <glyph glyph-name="afii61289" unicode="&#x2113;" 
d="M630 338q50 -77 99 -154q77 -125 77 -161q0 -51 -52 -51q-51 0 -112 116q-67 130 -81 138l-121 -213q-23 -40 -66 -40q-60 0 -60 52q0 29 77 155q49 78 98 155q-18 24 -124 191q-51 81 -51 171v275q0 146 53 266q69 155 197 155t193 -150q49 -114 49 -261v-286
q0 -72 -66 -187q-55 -85 -110 -171zM559 442q40 65 80 129q37 66 37 141v262q0 291 -112 291q-65 0 -97 -115q-23 -80 -23 -173v-239q0 -94 28 -158q17 -36 87 -138z" />
    <glyph glyph-name="Aringacute" unicode="&#x1fa;" 
d="M1038 48q0 -76 -67 -76q-60 0 -70 63l-75 361h-542l-77 -383q-8 -40 -70 -40q-55 0 -55 66l205 1077q35 187 126 244q-68 64 -68 149q0 93 61.5 155t154.5 62q92 0 153 -59.5t61 -150.5q0 -101 -81 -166q85 -38 115 -185zM307 528h493l-113 588q-22 145 -138 145
q-105 0 -139 -180zM565 1393q49 0 81 34.5t32 83.5q0 52 -34 85t-86 33q-48 0 -82 -33.5t-34 -81.5q0 -52 35.5 -86.5t87.5 -34.5zM911 2021q0 -41 -73 -93l-176 -125q-45 -32 -72 -32q-48 0 -48 48q0 25 41 69l153 163q53 57 98 57q77 0 77 -87z" />
    <glyph glyph-name="aringacute" unicode="&#x1fb;" 
d="M833 101q-99 -72 -150 -93q-69 -28 -174 -28q-162 0 -266 69q-120 80 -120 235t125 244q110 78 273 78q132 0 305 -62v158q0 111 -106 160q-74 33 -181 33q-250 0 -276 -139q-12 -63 -14 -69q-14 -32 -55 -32q-71 0 -71 74q0 100 79 186q99 108 347 108q197 0 293 -66
q114 -79 114 -267v-457q0 -80 34 -109q5 -5 62 -28q34 -14 34 -62q0 -54 -59 -54q-14 0 -57 14q-77 25 -88 32q-40 23 -49 75zM826 238v191q-151 49 -284 49q-289 0 -289 -187q0 -97 87 -145q69 -38 174 -38q93 0 168 35q58 26 144 95zM563 1117q-89 0 -148.5 62.5
t-59.5 151.5q0 93 61.5 155t154.5 62q92 0 153 -59.5t61 -150.5q0 -95 -63 -158t-159 -63zM575 1215q49 0 81 34.5t32 83.5q0 52 -34 85t-86 33q-48 0 -82 -33.5t-34 -81.5q0 -52 35.5 -86.5t87.5 -34.5zM904 1867q0 -41 -73 -93l-176 -125q-45 -32 -72 -32q-48 0 -48 48
q0 25 41 69l153 163q53 57 98 57q77 0 77 -87z" />
    <glyph glyph-name="AEacute" unicode="&#x1fc;" 
d="M251 369l-71 -339q-9 -58 -68 -58q-57 0 -57 71l200 1109q17 96 87 154t168 58h463q93 0 93 -64q0 -67 -88 -67h-294v-460h236q92 0 92 -62q0 -69 -98 -69h-230v-510h285q49 0 68 -9q29 -14 29 -57q0 -66 -96 -66h-351q-71 0 -71 72v297h-297zM270 500h278v733h-40
q-105 0 -128 -127zM844 1697q0 -41 -73 -93l-176 -125q-45 -32 -72 -32q-48 0 -48 48q0 25 41 69l153 163q53 57 98 57q77 0 77 -87z" />
    <glyph glyph-name="aeacute" unicode="&#x1fd;" 
d="M492 438q-88 40 -164 40q-80 0 -123 -57q-40 -51 -40 -133q0 -74 34 -124q38 -57 109 -57q92 0 184 143v188zM545 126q-73 -79 -112 -104q-63 -43 -144 -43q-123 0 -192 94q-62 84 -62 212q0 138 69 226q75 97 209 97q96 0 179 -40v168q0 71 -41 115t-111 44
q-98 0 -141 -62q-17 -24 -44 -116q-19 -62 -57 -62q-64 0 -64 98q0 120 94 198q89 72 212 72q85 0 137 -31q47 -28 98 -102q47 72 87 100q49 33 127 33q284 0 284 -431q0 -114 -82 -114h-369v-130q0 -241 170 -241q73 0 141 77t100 77q54 0 54 -55q0 -48 -72 -124
q-98 -103 -228 -103q-150 0 -242 147zM622 606h321q0 289 -166 289q-155 0 -155 -236v-53zM766 1367q0 -41 -73 -93l-176 -125q-45 -32 -72 -32q-48 0 -48 48q0 25 41 69l153 163q53 57 98 57q77 0 77 -87z" />
    <glyph glyph-name="Oslashacute" unicode="&#x1fe;" 
d="M881 1018l-587 -804q89 -110 267 -110q143 0 231 75q95 80 95 222v545q0 28 -6 72zM822 1154q-83 107 -276 107q-146 0 -230 -81.5t-84 -227.5v-551q0 -29 3 -60zM136 206q-41 79 -41 185v566q0 208 125 324q121 112 331 112q231 0 354 -123q27 37 55 75q41 48 73 48
q62 0 62 -54q0 -27 -47 -93q-33 -44 -67 -88q43 -76 43 -201v-566q0 -193 -136 -309q-128 -109 -324 -109q-213 0 -350 130l-52 -76q-37 -48 -72 -48q-63 0 -63 58q0 24 45 87zM844 1697q0 -41 -73 -93l-176 -125q-45 -32 -72 -32q-48 0 -48 48q0 25 41 69l153 163
q53 57 98 57q77 0 77 -87z" />
    <glyph glyph-name="oslashacute" unicode="&#x1ff;" 
d="M313 161q109 -54 257 -54q311 0 311 210v368q0 29 -6 52zM807 840q-100 55 -251 55q-317 0 -317 -210v-358q0 -36 13 -64zM223 68q-86 -89 -115 -89q-28 0 -40.5 11.5t-12.5 44.5q0 28 37 68l58 56q-40 71 -40 158v368q0 338 460 338q209 0 328 -90q71 90 124 90
q43 0 43 -54q0 -41 -88 -126q34 -60 34 -158v-368q0 -337 -446 -337q-230 0 -342 88zM794 1367q0 -41 -73 -93l-176 -125q-45 -32 -72 -32q-48 0 -48 48q0 25 41 69l153 163q53 57 98 57q77 0 77 -87z" />
    <glyph glyph-name="Wacute" unicode="&#x1e82;" 
d="M313 96l133 677q25 128 114 128q92 0 123 -137l149 -668l93 1225q5 72 64 72q64 0 62 -65l-1 -28l-86 -1181q-11 -146 -131 -146q-67 0 -99 40q-22 29 -39 104l-135 600l-111 -592q-28 -152 -139 -152q-118 0 -132 152l-108 1179q-2 22 -2 30q0 59 56 59q61 0 68 -73z
M774 1697q0 -41 -73 -93l-176 -125q-45 -32 -72 -32q-48 0 -48 48q0 25 41 69l153 163q53 57 98 57q77 0 77 -87z" />
    <glyph glyph-name="wacute" unicode="&#x1e83;" 
d="M317 69l147 746q15 72 95 72q76 0 93 -72l182 -746l89 883q8 71 69 71q60 0 60 -69q0 -14 -10 -105l-97 -802q-18 -67 -120 -67q-89 0 -105 62l-164 714l-132 -709q-11 -67 -102 -67q-106 0 -120 80l-120 787q-14 98 -14 107q0 69 60 69q56 0 65 -66zM744 1367
q0 -41 -73 -93l-176 -125q-45 -32 -72 -32q-48 0 -48 48q0 25 41 69l153 163q53 57 98 57q77 0 77 -87z" />
    <glyph glyph-name="Ygrave" unicode="&#x1ef2;" 
d="M492 587l-379 693q-17 31 -17 54q0 59 61 59q40 0 65 -46l338 -623l335 618q28 51 67 51q63 0 63 -49q0 -23 -20 -60l-377 -705v-531q0 -75 -68 -75t-68 75v539zM295 1697q0 87 77 87q46 0 87 -45l169 -185q36 -39 36 -59q0 -48 -48 -48q-23 0 -70 32l-185 125
q-66 45 -66 93z" />
    <glyph glyph-name="ygrave" unicode="&#x1ef3;" 
d="M487 36l-363 868q-15 36 -15 57q0 62 66 62q40 0 61 -49l327 -767l304 737q28 79 81 79q62 0 62 -53q0 -23 -17 -64l-495 -1190q-62 -148 -212 -148q-63 0 -111 19q-66 27 -66 80q0 61 62 61q14 0 48 -16t65 -16q68 0 104 91zM365 1367q0 87 77 87q46 0 87 -45l169 -185
q36 -39 36 -59q0 -48 -48 -48q-23 0 -70 32l-185 125q-66 45 -66 93z" />
    <glyph glyph-name="quotereversed" unicode="&#x201b;" 
d="M683 1288q0 -34 -51.5 -71t-51.5 -55q0 -33 51.5 -77t51.5 -61q0 -41 -43 -41q-69 0 -138 99q-65 93 -65 167q0 62 34 103t95 41q49 0 82 -27q35 -30 35 -78z" />
    <glyph glyph-name="radicalex" unicode="&#x203e;" 
d="M-18 1434h1172q61 0 61 -49q0 -52 -60 -52h-1170q-60 0 -60 50q0 51 57 51z" />
    <glyph glyph-name="afii08941" unicode="&#x20a4;" 
d="M567 314q111 -114 125 -127q97 -86 153 -86q61 0 85.5 93t72.5 93q62 0 62 -66q0 -98 -53 -170q-59 -78 -155 -78q-144 0 -288 152q-38 -80 -81 -113q-49 -39 -131 -39q-106 0 -170 61t-64 165q0 91 59 155.5t150 64.5q33 0 74 -16l-32 128h-200q-78 0 -78 65q0 67 78 67
h162l-33 140h-129q-78 0 -78 65q0 67 75 67h101q-40 157 -40 196q0 132 102 202q88 60 226 60q227 0 316 -127q66 -94 66 -179q0 -64 -67 -64q-41 0 -64 62q-34 86 -60 114q-59 62 -185 62q-199 0 -199 -128q0 -33 40 -198h237q79 0 79 -68q0 -64 -79 -64h-206l32 -140h175
q79 0 79 -68q0 -64 -79 -64h-138zM449 194q0 39 -32 66t-72 27q-39 0 -65.5 -27t-26.5 -66q0 -93 99 -93q42 0 69.5 26t27.5 67z" />
    <glyph glyph-name="oneeighth" unicode="&#x215b;" horiz-adv-x="1232" 
d="M113 1283q-53 0 -53 48t53 48h130q53 0 53 -48v-569h89q54 0 54 -50q0 -46 -54 -46h-298q-54 0 -54 48t54 48h110v521h-84zM1019 1393q49 0 49 -50q0 -29 -34 -82l-795 -1239q-28 -49 -74 -49q-52 0 -53 52q0 26 25 64l791 1233q36 71 91 71zM923 714q85 0 141 -53
t56 -137q0 -87 -72 -143q99 -58 99 -180q0 -101 -61 -163t-162 -62q-98 0 -163 60q-68 62 -68 161q0 122 103 182q-76 50 -76 140q0 85 59 140t144 55zM922 617q-103 0 -103 -101q0 -94 105 -94q96 0 96 96q0 99 -98 99zM926 69q122 0 122 128q0 58 -34 96t-91 38
q-59 0 -95 -36t-36 -95t37 -95t97 -36z" />
    <glyph glyph-name="threeeighths" unicode="&#x215c;" horiz-adv-x="1232" 
d="M330 1140q70 -2 111.5 -47.5t41.5 -116.5q0 -135 -137 -234q-124 -90 -260 -90q-65 0 -65 45t57 45q72 0 130 26q69 30 118 82q58 59 58 120q0 74 -68 74q-24 0 -63.5 -17t-54.5 -17q-39 0 -39 44q0 21 15 40l154 189h-227q-59 0 -59 49q0 47 59 47h320q55 0 55 -42
q0 -19 -13 -35zM999 1393q49 0 49 -50q0 -29 -34 -82l-795 -1239q-28 -49 -74 -49q-52 0 -53 52q0 26 25 64l791 1233q36 71 91 71zM923 714q85 0 141 -53t56 -137q0 -87 -72 -143q99 -58 99 -180q0 -101 -61 -163t-162 -62q-98 0 -163 60q-68 62 -68 161q0 122 103 182
q-76 50 -76 140q0 85 59 140t144 55zM922 617q-103 0 -103 -101q0 -94 105 -94q96 0 96 96q0 99 -98 99zM926 69q122 0 122 128q0 58 -34 96t-91 38q-59 0 -95 -36t-36 -95t37 -95t97 -36z" />
    <glyph glyph-name="fiveeighths" unicode="&#x215d;" horiz-adv-x="1232" 
d="M497 955q0 -145 -138 -231q-117 -72 -265 -72q-51 0 -51 45q0 43 58 49q117 11 177 42q120 62 120 166q0 49 -28 82t-73 33q-31 0 -81 -22t-70 -22q-43 0 -41 55l8 229q2 70 61 70h257q52 0 52 -47q0 -49 -52 -49h-226l-6 -140q54 21 97 21q88 0 144.5 -61t56.5 -148z
M1009 1393q49 0 49 -50q0 -29 -34 -82l-795 -1239q-28 -49 -74 -49q-52 0 -53 52q0 26 25 64l791 1233q36 71 91 71zM933 714q85 0 141 -53t56 -137q0 -87 -72 -143q99 -58 99 -180q0 -101 -61 -163t-162 -62q-98 0 -163 60q-68 62 -68 161q0 122 103 182q-76 50 -76 140
q0 85 59 140t144 55zM932 617q-103 0 -103 -101q0 -94 105 -94q96 0 96 96q0 99 -98 99zM936 69q122 0 122 128q0 58 -34 96t-91 38q-59 0 -95 -36t-36 -95t37 -95t97 -36z" />
    <glyph glyph-name="seveneighths" unicode="&#x215e;" horiz-adv-x="1232" 
d="M76 1332q0 47 58 47h356q54 0 54 -43q0 -14 -16 -55l-230 -585q-17 -44 -52 -44q-45 0 -45 46q0 12 11 41l216 544h-294q-58 0 -58 49zM989 1393q49 0 49 -50q0 -29 -34 -82l-795 -1239q-28 -49 -74 -49q-52 0 -53 52q0 26 25 64l791 1233q36 71 91 71zM923 714
q85 0 141 -53t56 -137q0 -87 -72 -143q99 -58 99 -180q0 -101 -61 -163t-162 -62q-98 0 -163 60q-68 62 -68 161q0 122 103 182q-76 50 -76 140q0 85 59 140t144 55zM922 617q-103 0 -103 -101q0 -94 105 -94q96 0 96 96q0 99 -98 99zM926 69q122 0 122 128q0 58 -34 96
t-91 38q-59 0 -95 -36t-36 -95t37 -95t97 -36z" />
    <glyph glyph-name="afii00208" unicode="&#x2015;" 
d="M-8 587h1132q77 0 77 -64q0 -66 -76 -66h-1129q-78 0 -78 66q0 64 74 64z" />
    <glyph glyph-name="afii61352" unicode="&#x2116;" 
d="M437 410v889q0 94 67 94q70 0 70 -94v-1255q0 -71 -68 -71q-20 0 -43 12q-27 14 -31 31l-240 940v-906q0 -77 -72 -77q-65 0 -65 77v1249q0 94 67 94q57 0 71 -52zM704 743h326q78 0 78 -63q0 -30 -23.5 -48.5t-53.5 -18.5h-323q-78 0 -78 64q0 66 74 66zM869 1393
q240 0 240 -184v-179q0 -190 -237 -190q-244 0 -244 190v179q0 184 241 184zM865 1298q-141 0 -141 -89v-179q0 -95 146 -95q143 0 143 95v179q0 89 -148 89z" />
    <glyph glyph-name="arrowleft" unicode="&#x2190;" 
d="M216 568h49q-54 -109 -126 -200h1034v-66h-1034q67 -71 128 -200h-50q-145 161 -270 220v30q118 50 269 216z" />
    <glyph glyph-name="arrowup" unicode="&#x2191;" 
d="M327 600q166 153 216 268h30q61 -126 220 -268v-51q-131 62 -200 128v-955h-66v956q-88 -72 -200 -127v49z" />
    <glyph glyph-name="arrowright" unicode="&#x2192;" 
d="M905 568q149 -166 268 -216v-30q-124 -57 -269 -220h-50q60 130 128 200h-1035v66h1035q-68 84 -127 200h50z" />
    <glyph glyph-name="arrowdown" unicode="&#x2193;" 
d="M327 -11v50q112 -55 200 -127v956h66v-955q69 66 200 128v-51q-159 -142 -220 -268h-30q-51 118 -216 267z" />
    <glyph glyph-name="arrowboth" unicode="&#x21ee;" 
d="M1173 350v-29q-122 -57 -264 -218h-51q44 111 125 201h-846q81 -90 126 -201h-52q-144 162 -264 218v29q119 54 264 219h52q-45 -112 -126 -202h846q-81 90 -125 202h51q146 -165 264 -219z" />
    <glyph glyph-name="arrowupdn" unicode="&#x2195;" 
d="M545 948h30q56 -122 218 -263v-52q-110 44 -201 126v-846q90 81 201 125v-51q-161 -141 -218 -264h-30q-54 119 -218 264v51q112 -45 201 -125v846q-91 -82 -201 -126v52q162 142 218 263z" />
    <glyph glyph-name="arrowupdnbse" unicode="&#x21a8;" 
d="M545 948h30q56 -122 218 -263v-52q-110 44 -201 126v-846q90 81 201 125v-51q-161 -141 -218 -264h-30q-54 119 -218 264v51q112 -45 201 -125v846q-91 -82 -201 -126v52q162 142 218 263zM328 -339h465v-63h-465v63z" />
    <glyph glyph-name="orthogonal" unicode="&#x221f;" 
d="M-53 1223h96v-1128h1130v-95h-1226v1223z" />
    <glyph glyph-name="integraltp" unicode="&#x2320;" 
d="M688 -446h-147v1839q0 165 64 287q80 154 230 154q56 0 94 -26q44 -30 44 -83q0 -39 -25 -65.5t-63 -26.5q-48 0 -89.5 49t-55.5 49q-42 0 -51 -73q-1 -10 -1 -105v-1999z" />
    <glyph glyph-name="integralbt" unicode="&#x2321;" 
d="M432 1858h147v-1839q0 -166 -64 -288q-79 -153 -230 -153q-55 0 -94 26q-44 30 -44 83q0 38 24.5 65t62.5 27q51 0 90.5 -49t55.5 -49q42 0 51 73q1 12 1 105v1999z" />
    <glyph glyph-name="upblock" unicode="&#x2580;" 
d="M0 815v1043h1120v-1043h-1120z" />
    <glyph glyph-name="dnblock" unicode="&#x2584;" 
d="M0 -446v1043h1120v-1043h-1120z" />
    <glyph glyph-name="block" unicode="&#x2588;" 
d="M0 -446v2304h1120v-2304h-1120z" />
    <glyph glyph-name="lfblock" unicode="&#x258c;" 
d="M0 -446v2304h615v-2304h-615z" />
    <glyph glyph-name="rtblock" unicode="&#x2590;" 
d="M1120 -446h-614v2304h614v-2304z" />
    <glyph glyph-name="ltshade" unicode="&#x2591;" 
d="M102 1489h103v-97h-103v97zM512 1489h103v-97h-103v97zM922 1489h103v-97h-103v97zM307 1295h103v-96h-103v96zM717 1295h103v-96h-103v96zM1127 1295h102v-96h-102v96zM922 1102h103v-96h-103v96zM512 1102h103v-96h-103v96zM102 1102h103v-96h-103v96zM1127 909h102
v-97h-102v97zM717 909h103v-97h-103v97zM307 909h103v-97h-103v97zM102 715h103v-96h-103v96zM512 715h103v-96h-103v96zM922 715h103v-96h-103v96zM1127 522h102v-96h-102v96zM717 522h103v-96h-103v96zM307 522h103v-96h-103v96zM102 329h103v-97h-103v97zM512 329h103
v-97h-103v97zM922 329h103v-97h-103v97zM307 135h103v-96h-103v96zM717 135h103v-96h-103v96zM1127 135h102v-96h-102v96zM922 -58h103v-97h-103v97zM512 -58h103v-97h-103v97zM102 -58h103v-97h-103v97zM307 -251h103v-97h-103v97zM717 -251h103v-97h-103v97zM1127 -251
h102v-97h-102v97zM307 1682h103v-97h-103v97zM717 1682h103v-97h-103v97zM1127 1682h102v-97h-102v97zM102 1874h103v-95h-103v95zM512 1874h103v-95h-103v95zM922 1874h103v-95h-103v95z" />
    <glyph glyph-name="shade" unicode="&#x2592;" 
d="M102 1489h103v-97h-103v97zM307 1489h103v-97h-103v97zM512 1489h103v-97h-103v97zM717 1489h103v-97h-103v97zM922 1489h103v-97h-103v97zM1127 1489h102v-97h-102v97zM0 1295h102v-96h-102v96zM205 1295h102v-96h-102v96zM410 1295h102v-96h-102v96zM615 1295h102v-96
h-102v96zM820 1295h102v-96h-102v96zM1025 1295h102v-96h-102v96zM102 1102h103v-96h-103v96zM307 1102h103v-96h-103v96zM512 1102h103v-96h-103v96zM717 1102h103v-96h-103v96zM922 1102h103v-96h-103v96zM1127 1102h102v-96h-102v96zM0 909h102v-97h-102v97zM205 909h102
v-97h-102v97zM410 909h102v-97h-102v97zM615 909h102v-97h-102v97zM820 909h102v-97h-102v97zM1025 909h102v-97h-102v97zM102 715h103v-96h-103v96zM307 715h103v-96h-103v96zM512 715h103v-96h-103v96zM717 715h103v-96h-103v96zM922 715h103v-96h-103v96zM1127 715h102
v-96h-102v96zM0 522h102v-96h-102v96zM410 522h102v-96h-102v96zM615 522h102v-96h-102v96zM820 522h102v-96h-102v96zM1025 522h102v-96h-102v96zM205 522h102v-96h-102v96zM1127 329h102v-97h-102v97zM922 329h103v-97h-103v97zM717 329h103v-97h-103v97zM512 329h103v-97
h-103v97zM307 329h103v-97h-103v97zM102 329h103v-97h-103v97zM0 135h102v-96h-102v96zM205 135h102v-96h-102v96zM410 135h102v-96h-102v96zM615 135h102v-96h-102v96zM820 135h102v-96h-102v96zM1025 135h102v-96h-102v96zM1127 -58h102v-97h-102v97zM922 -58h103v-97
h-103v97zM717 -58h103v-97h-103v97zM512 -58h103v-97h-103v97zM307 -58h103v-97h-103v97zM102 -58h103v-97h-103v97zM0 -251h102v-97h-102v97zM205 -251h102v-97h-102v97zM410 -251h102v-97h-102v97zM615 -251h102v-97h-102v97zM820 -251h102v-97h-102v97zM1025 -251h102
v-97h-102v97zM0 1682h102v-97h-102v97zM205 1682h102v-97h-102v97zM410 1682h102v-97h-102v97zM615 1682h102v-97h-102v97zM820 1682h102v-97h-102v97zM1025 1682h102v-97h-102v97zM102 1874h103v-95h-103v95zM307 1874h103v-95h-103v95zM512 1874h103v-95h-103v95z
M717 1874h103v-95h-103v95zM922 1874h103v-95h-103v95zM1127 1874h102v-95h-102v95z" />
    <glyph glyph-name="dkshade" unicode="&#x2593;" 
d="M1229 1682h-102v-97h102v-290h-102v-96h102v-290h-102v-97h102v-290h-102v-97h102v-290h-102v-96h102v-290h-102v-97h102v-98h-1229v291h102v97h-102v290h102v97h-102v290h102v96h-102v290h102v97h-102v290h102v97h-102v290h102v95h103v-95h102v95h103v-95h102v95h103
v-95h102v95h103v-95h102v95h103v-95h102v95h102v-192zM102 1295v-96h103v96h-103zM307 1295v-96h103v96h-103zM512 1295v-96h103v96h-103zM717 1295v-96h103v96h-103zM922 1295v-96h103v96h-103zM1127 1102h-102v-97h102v97zM922 1102h-102v-97h102v97zM717 1102h-102v-97
h102v97zM512 1102h-102v-97h102v97zM307 1102h-102v-97h102v97zM102 909v-97h103v97h-103zM307 909v-97h103v97h-103zM512 909v-97h103v97h-103zM717 909v-97h103v97h-103zM922 909v-97h103v97h-103zM307 715h-102v-96h102v96zM410 715v-96h102v96h-102zM615 715v-96h102v96
h-102zM820 715v-96h102v96h-102zM1025 715v-96h102v96h-102zM102 522v-97h103v97h-103zM512 522v-97h103v97h-103zM410 425v97h-103v-97h103zM717 522v-97h103v97h-103zM922 522v-97h103v97h-103zM1127 232v97h-102v-97h102zM922 232v97h-102v-97h102zM717 232v97h-102v-97
h102zM512 232v97h-102v-97h102zM307 232v97h-102v-97h102zM102 135v-96h103v96h-103zM307 135v-96h103v96h-103zM512 135v-96h103v96h-103zM717 135v-96h103v96h-103zM922 135v-96h103v96h-103zM1127 -155v97h-102v-97h102zM922 -155v97h-102v-97h102zM717 -155v97h-102v-97
h102zM512 -155v97h-102v-97h102zM307 -155v97h-102v-97h102zM102 -251v-97h103v97h-103zM307 -251v-97h103v97h-103zM512 -251v-97h103v97h-103zM717 -251v-97h103v97h-103zM922 -251v-97h103v97h-103zM1127 1489h-102v-97h102v97zM922 1489h-102v-97h102v97zM717 1489h-102
v-97h102v97zM512 1489h-102v-97h102v97zM307 1489h-102v-97h102v97zM1025 1682h-103v-97h103v97zM820 1682h-103v-97h103v97zM615 1682h-103v-97h103v97zM410 1682h-103v-97h103v97zM205 1682h-103v-97h103v97z" />
    <glyph glyph-name="filledbox" unicode="&#x25a0;" 
d="M2 1116h1116v-1116h-1116v1116z" />
    <glyph glyph-name="filledrect" unicode="&#x25ac;" 
d="M2 626h1116v-231h-1116v231z" />
    <glyph glyph-name="triagup" unicode="&#x25b2;" 
d="M2 0l558 1198l558 -1198h-1116z" />
    <glyph glyph-name="triagrt" unicode="&#x25ba;" 
d="M2 1196l1116 -611l-1116 -611v1222z" />
    <glyph glyph-name="triagdn" unicode="&#x25bc;" 
d="M1118 1172l-558 -1198l-558 1198h1116z" />
    <glyph glyph-name="triaglf" unicode="&#x25c4;" 
d="M1118 1196v-1222l-1116 611z" />
    <glyph glyph-name="circle" unicode="&#x25cb;" 
d="M561 1018q182 0 311 -128.5t129 -311.5q0 -184 -128.5 -312.5t-311.5 -128.5q-185 0 -313 128.5t-128 312.5q0 183 128.5 311.5t312.5 128.5zM561 942q-152 0 -258.5 -106t-106.5 -258t106 -258.5t259 -106.5q152 0 258 106.5t106 258.5q0 151 -106.5 257.5t-257.5 106.5
z" />
    <glyph glyph-name="invbullet" unicode="&#x25d8;" 
d="M70 0v980h980v-980h-980zM560 692q-85 0 -143.5 -58.5t-58.5 -143.5q0 -84 59 -143t143 -59t143 59t59 143q0 85 -58.5 143.5t-143.5 58.5z" />
    <glyph glyph-name="invcircle" unicode="&#x25d9;" 
d="M-18 0v1155h1156v-1155h-1156zM560 1018q-184 0 -312 -129t-128 -312t128 -311.5t312 -128.5q183 0 312 128t129 312t-129 312.5t-312 128.5zM561 942q151 0 257.5 -106.5t106.5 -258.5t-106 -258t-258 -106q-153 0 -259 106t-106 258t106 258.5t259 106.5z" />
    <glyph glyph-name="smileface" unicode="&#x263a;" 
d="M1119 584q0 -261 -153 -433q-156 -178 -406 -178t-407 178q-151 172 -151 433t151 433q156 179 407 179q250 0 407 -178q152 -172 152 -434zM1030 584q0 224 -126 371q-131 152 -344 152t-344 -153q-125 -146 -125 -370q0 -223 125 -370q131 -152 344 -152q212 0 343 152
q127 146 127 370zM404 751q0 -32 -23 -55t-55 -23q-33 0 -55 23t-22 55t22 54.5t55 22.5q32 0 55 -22.5t23 -54.5zM872 751q0 -32 -22.5 -55t-54.5 -23q-33 0 -55.5 23t-22.5 55t22.5 54.5t55.5 22.5q32 0 54.5 -22.5t22.5 -54.5zM278 427l60 35q75 -138 222 -138
q146 0 222 138l60 -35q-98 -187 -282 -187t-282 187z" />
    <glyph glyph-name="invsmileface" unicode="&#x263b;" 
d="M1119 584q0 -261 -153 -433q-156 -178 -406 -178t-407 178q-151 172 -151 433t151 433q156 179 407 179q250 0 407 -178q152 -172 152 -434zM872 751q0 32 -22.5 54.5t-54.5 22.5q-33 0 -55.5 -22.5t-22.5 -54.5t22.5 -55t55.5 -23q32 0 54.5 23t22.5 55zM404 751
q0 32 -23 54.5t-55 22.5q-33 0 -55 -22.5t-22 -54.5t22 -55t55 -23q32 0 55 23t23 55zM842 427l-60 35q-76 -138 -222 -138q-147 0 -222 138l-60 -35q98 -187 282 -187q183 0 282 187z" />
    <glyph glyph-name="sun" unicode="&#x263c;" 
d="M528 1083h66v-217q119 -9 224 -90l186 182l45 -45l-184 -184q87 -116 92 -230h216v-61h-216q-13 -120 -91 -221l183 -189l-48 -43l-183 182q-104 -77 -224 -91v-217h-66v217q-126 18 -221 89l-189 -179l-44 44l183 185q-80 100 -93 226h-217v61h217q11 126 92 224
l-182 184l41 49l189 -182q114 78 224 89v217zM559 804q-139 0 -235.5 -97.5t-96.5 -235.5q0 -139 96.5 -235.5t235.5 -96.5q138 0 235.5 96.5t97.5 235.5q0 138 -97.5 235.5t-235.5 97.5z" />
    <glyph glyph-name="female" unicode="&#x2640;" 
d="M524 577q-108 15 -179.5 95.5t-71.5 189.5q0 121 83.5 206t204.5 85q120 0 203.5 -85.5t83.5 -205.5q0 -110 -70.5 -190.5t-178.5 -94.5v-165h255v-69h-255v-263h-75v263h-258v69h258v165zM560 1069q-86 0 -145.5 -59.5t-59.5 -145.5t59.5 -146t145.5 -60t146 60t60 146
t-60 145.5t-146 59.5z" />
    <glyph glyph-name="male" unicode="&#x2642;" 
d="M573 782l242 242q-199 51 -199 105q0 20 22 20q24 0 77 -10t81 -10q92 0 130.5 12t48.5 12l12 -3l4 -12q-23 -169 -23 -183q0 -28 9 -83t9 -79q0 -21 -19 -21q-27 0 -64 88q-28 64 -41 117l-237 -237q84 -81 84 -192q0 -123 -84 -210.5t-207 -87.5q-119 0 -204 83
t-85 202q0 121 85 205.5t206 84.5q71 0 153 -43zM420 750q-89 0 -151 -61.5t-62 -150.5t62 -151t151 -62t150.5 62t61.5 151t-61.5 150.5t-150.5 61.5z" />
    <glyph glyph-name="spade" unicode="&#x2660;" 
d="M561 1231q37 -155 165 -296l214 -212q106 -115 106 -225q0 -93 -62.5 -158t-155.5 -65q-156 0 -255 190q1 -208 84 -308q89 -107 293 -120l7 -37h-792l7 37q190 0 290 112q95 106 93 297v19q-90 -190 -261 -190q-90 0 -155 64.5t-65 154.5q0 120 108 231q108 102 216 203
q128 138 163 303z" />
    <glyph glyph-name="club" unicode="&#x2663;" 
d="M983 0h-842l8 34q165 35 218 68q85 54 135 156q48 98 48 203q0 16 -2 46q-115 -236 -324 -236q-118 0 -197.5 80.5t-79.5 197.5q0 105 67 186q70 88 173 88q61 0 163 -51q-67 108 -67 181q0 116 79 192.5t196 76.5q113 0 194.5 -76.5t81.5 -189.5q0 -88 -68 -184
q111 52 161 52q106 0 178 -83q68 -79 68 -188q0 -117 -78.5 -199t-194.5 -82q-193 0 -329 235q5 -222 95.5 -326.5t308.5 -146.5z" />
    <glyph glyph-name="heart" unicode="&#x2665;" 
d="M563 -22q-29 108 -83 206q-41 72 -221 311q-155 206 -186 295q-19 55 -19 110q0 104 68 173.5t172 69.5q189 0 269 -233q65 234 263 234q98 0 169.5 -67t71.5 -165q0 -123 -110 -291q-111 -153 -222 -305q-134 -190 -172 -338z" />
    <glyph glyph-name="diamond" unicode="&#x2666;" 
d="M558 1222q195 -330 458 -622q-254 -264 -457 -624q-93 178 -455 624q291 332 454 622z" />
    <glyph glyph-name="musicalnote" unicode="&#x266a;" 
d="M537 303v850h75v-101q158 -195 182 -233q81 -130 81 -276q0 -154 -95 -271h-47q59 130 59 249q0 94 -44 177q-52 98 -136 111v-506q0 -117 -67 -193q-70 -81 -185 -81t-115 99q0 80 61 136.5t141 56.5q46 0 90 -18z" />
    <glyph glyph-name="musicalnotedbl" unicode="&#x266b;" 
d="M1056 323q0 -115 -67 -192q-71 -81 -184 -81q-115 0 -115 99q0 79 60.5 135.5t140.5 56.5q46 0 90 -18v450l-550 -150v-393q0 -116 -67 -193q-70 -80 -185 -80t-115 99q0 79 61 135t141 56q48 0 90 -17v750l700 179v-836zM431 750l550 150v115l-550 -150v-115z" />
    <glyph glyph-name="H22073" unicode="&#x25a1;" 
d="M2 1116h1116v-1116h-1116v1116zM78 1040v-964h964v964h-964z" />
    <glyph glyph-name="H18543" unicode="&#x25aa;" 
d="M814 383h-507v507h507v-507z" />
    <glyph glyph-name="H18551" unicode="&#x25ab;" 
d="M814 383h-507v507h507v-507zM738 459v355h-355v-355h355z" />
    <glyph glyph-name="H18533" unicode="&#x25cf;" 
d="M561 1018q182 0 311 -128.5t129 -311.5q0 -184 -128.5 -312.5t-311.5 -128.5q-185 0 -313 128.5t-128 312.5q0 183 128.5 311.5t312.5 128.5z" />
    <glyph glyph-name="openbullet" unicode="&#x25e6;" 
d="M808 637q0 -103 -72.5 -175.5t-175.5 -72.5q-104 0 -175.5 72.5t-71.5 175.5t72 175t175 72t175.5 -72t72.5 -175zM732 637q0 71 -50.5 121t-121.5 50t-121 -50t-50 -121t49.5 -121.5t121.5 -50.5q71 0 121.5 50t50.5 122z" />
    <glyph glyph-name="estimated" unicode="&#x212e;" 
d="M287 501v-328q70 -66 111 -89q58 -32 137 -32q254 0 395 246l72 -43q-120 -169 -189 -215q-93 -61 -278 -60q-222 -1 -342 161q-107 144 -107 360q0 264 107 373q146 149 342 149q235 0 376 -132q75 -70 102 -182q15 -62 21 -208h-747zM833 575v254q-128 121 -300 121
q-81 0 -137 -31q-42 -24 -109 -91v-253h546z" />
    <glyph glyph-name="fivesuperior" unicode="&#x2075;" 
d="M787 955q0 -145 -138 -231q-117 -72 -265 -72q-51 0 -51 45q0 43 58 49q117 11 177 42q120 62 120 166q0 49 -28 82t-73 33q-31 0 -81 -22t-70 -22q-43 0 -41 55l8 229q2 70 61 70h257q52 0 52 -47q0 -49 -52 -49h-226l-6 -140q54 21 97 21q88 0 144.5 -61t56.5 -148z
" />
    <glyph glyph-name="sevensuperior" unicode="&#x2077;" 
d="M326 1332q0 47 58 47h356q54 0 54 -43q0 -14 -16 -55l-230 -585q-17 -44 -52 -44q-45 0 -45 46q0 12 11 41l216 544h-294q-58 0 -58 49z" />
    <glyph glyph-name="eightsuperior" unicode="&#x2078;" 
d="M563 1393q85 0 141 -53t56 -137q0 -87 -72 -143q99 -58 99 -180q0 -101 -61 -163t-162 -62q-98 0 -163 60q-68 62 -68 161q0 122 103 182q-76 50 -76 140q0 85 59 140t144 55zM562 1296q-103 0 -103 -101q0 -94 105 -94q96 0 96 96q0 99 -98 99zM566 748q122 0 122 128
q0 58 -34 96t-91 38q-59 0 -95 -36t-36 -95t37 -95t97 -36z" />
    <glyph glyph-name="u20AC" unicode="&#x20ac;" 
d="M178 486h-59q-78 0 -78 66t78 66h59v110h-59q-78 0 -78 66t78 66h59v165q0 368 458 368q443 0 443 -338q0 -82 -67 -82q-52 0 -65 61q0 227 -316 227q-317 0 -317 -236v-165h276q79 0 79 -67q0 -65 -79 -65h-276v-110h276q79 0 79 -67q0 -65 -79 -65h-276v-145
q0 -237 327 -237q305 0 305 221q16 68 65 68q68 0 68 -83q0 -337 -433 -337q-468 0 -468 368v145z" />
    <glyph glyph-name="zerosuperior" unicode="&#x2070;" 
d="M799 1158v-278q0 -228 -238 -228q-112 0 -176 59t-64 169v278q0 110 64 172.5t176 62.5t175 -63t63 -172zM421 1158v-278q0 -56 41 -93.5t100 -37.5q60 0 98.5 36t38.5 95v278q0 59 -41.5 98t-101.5 39t-97.5 -37.5t-37.5 -99.5z" />
    <glyph glyph-name="csuperior" 
d="M563 1393q87 0 152 -37q82 -46 82 -133q0 -45 -43 -45q-28 0 -45 31q-24 46 -36 58q-34 31 -105 31q-150 0 -150 -111v-143q0 -69 50 -93q33 -16 109 -16q86 0 132 48l8 8q20 20 38 20q42 0 42 -43q0 -35 -37 -71q-60 -56 -193 -56q-244 0 -244 203v155q0 194 240 194z
" />
    <glyph glyph-name="permillestroke" 
d="M1008 875q25 0 44.5 -17.5t19.5 -42.5q0 -51 -95 -68l-827 -152q-33 -6 -42 -6q-24 0 -42 17.5t-18 41.5q0 51 78 65l819 151q60 11 63 11z" />
    <glyph glyph-name="dotlessj" 
d="M696 875h-241q-87 0 -87 64t87 64h285q86 0 86 -84v-987q0 -185 -82 -273q-86 -91 -270 -91q-146 0 -278 102q-128 99 -128 197q0 93 67 92q21 0 53 -73q38 -86 88 -121q99 -70 201 -70q123 0 173 58q46 53 46 179v943z" />
    <glyph glyph-name="glyph490" 
d="M487 36l-363 868q-15 36 -15 57q0 62 66 62q40 0 61 -49l327 -767l304 737q28 79 81 79q62 0 62 -53q0 -23 -17 -64l-495 -1190q-62 -148 -212 -148q-63 0 -111 19q-66 27 -66 80q0 61 62 61q14 0 48 -16t65 -16q68 0 104 91zM764 1367q0 -41 -73 -93l-176 -125
q-45 -32 -72 -32q-48 0 -48 48q0 25 41 69l153 163q53 57 98 57q77 0 77 -87z" />
    <glyph glyph-name="glyph491" 
d="M253 908q151 115 344 115q181 0 290 -80q123 -91 123 -266v-353q0 -167 -120 -260q-109 -85 -281 -85q-202 0 -356 110v-423q0 -98 -64 -98q-66 0 -66 98v1692q0 96 66 96q64 0 64 -90v-456zM253 233q134 -126 342 -126q120 0 195 47q91 57 91 170v356q0 115 -96 171
q-78 45 -202 45q-214 0 -330 -145v-518z" />
  </font>
</defs>
</svg>
